<svg width="239" height="243" viewBox="0 0 239 243" fill="none" xmlns="http://www.w3.org/2000/svg">
<g clip-path="url(#clip0_100_473)">
<path d="M211.294 209.187C206.388 214.36 201.741 217.692 198.075 220.33C154.947 251.304 103.922 242.279 93.0775 240.074C77.0661 236.82 46.1097 230.519 23.7267 204.171C-10.1338 164.31 -4.86314 101.503 21.4035 60.0459C26.206 52.4609 51.5797 10.3698 103.159 3.62653C134.376 -0.46108 170.759 7.78356 197.112 29.8792C252.42 76.2662 248.484 169.986 211.294 209.187Z" fill="url(#paint0_linear_100_473)"/>
<path d="M163.383 234.878C162.967 234.817 162.594 234.6 162.343 234.262C158.702 229.349 132.236 190.921 167.457 155.79C200.893 122.438 216.055 115.591 218.066 95.9945C218.3 93.7034 221.395 93.1566 222.409 95.2221C230.003 110.635 241.845 146.617 202.67 170.231C159.456 196.275 162.993 224.837 165.091 232.951C165.377 234.019 164.484 235.025 163.383 234.878Z" fill="#76C5AA"/>
<path d="M168.749 235.607C167.769 235.477 166.989 234.713 166.833 233.732C165.801 227.05 163.27 202.073 181.648 195.451C201.881 188.161 218.213 207.02 233.08 192.257C233.86 191.476 235.178 192.153 234.987 193.247C233.661 200.962 227.766 218.822 201.534 222.415C173.456 226.26 170.3 229.488 170.864 233.489C171.046 234.722 169.98 235.78 168.749 235.607Z" fill="#76C5AA"/>
<path opacity="0.47" d="M217.104 115.973C216.757 117.431 216.306 118.794 215.76 120.148C215.223 121.501 214.607 122.821 213.94 124.114C212.613 126.7 211.018 129.156 209.276 131.491C205.765 136.151 201.509 140.239 196.827 143.701C194.487 145.428 191.99 147.008 189.52 148.44C187.118 149.837 184.804 151.399 182.585 153.091C178.146 156.476 174.124 160.399 170.578 164.703C163.504 173.321 158.485 183.718 156.829 194.783C155.989 200.303 155.98 205.961 156.734 211.524C157.488 217.096 159.075 222.555 161.164 227.823C161.277 228.1 161.138 228.421 160.86 228.534C160.592 228.647 160.288 228.517 160.158 228.257C157.714 223.058 155.885 217.521 154.87 211.819C154.35 208.964 154.047 206.074 153.96 203.167C153.891 200.26 154.012 197.344 154.376 194.445C155.078 188.656 156.708 182.98 159.066 177.643C161.424 172.297 164.536 167.307 168.177 162.759C171.809 158.203 176.031 154.124 180.643 150.557C182.957 148.778 185.367 147.138 187.89 145.654C190.36 144.239 192.701 142.79 194.972 141.15C199.506 137.913 203.693 134.172 207.291 129.902C209.111 127.785 210.767 125.52 212.275 123.159C213.758 120.79 215.136 118.299 216.133 115.713L216.142 115.678C216.237 115.418 216.532 115.296 216.792 115.392C217.026 115.487 217.156 115.739 217.104 115.973Z" fill="white"/>
<path opacity="0.47" d="M167.578 231.076C167.665 230.833 167.639 230.608 167.63 230.382L167.613 229.697L167.595 228.317C167.595 227.397 167.613 226.486 167.656 225.566C167.734 223.734 167.89 221.903 168.142 220.081C168.644 216.444 169.468 212.817 170.933 209.397C172.381 206.004 174.583 202.758 177.773 200.641C179.359 199.599 181.154 198.862 183.009 198.48C184.864 198.089 186.771 198.028 188.635 198.193C195.943 199.044 203.103 200.441 210.29 201.587C213.87 202.125 217.493 202.593 221.004 202.116C221.88 201.986 222.738 201.795 223.57 201.526C224.394 201.24 225.209 200.901 225.971 200.45C227.497 199.573 228.841 198.384 230.046 197.056C230.211 196.874 230.497 196.857 230.679 197.022C230.861 197.187 230.878 197.464 230.713 197.647C229.5 199.053 228.104 200.346 226.483 201.318C225.677 201.812 224.81 202.203 223.917 202.533C223.024 202.845 222.105 203.071 221.169 203.227C217.424 203.774 213.722 203.305 210.099 202.81C206.467 202.29 202.886 201.621 199.289 201.04C195.7 200.458 192.076 199.894 188.505 199.469C186.745 199.296 184.959 199.339 183.243 199.686C181.518 200.016 179.879 200.684 178.406 201.63C175.441 203.522 173.282 206.533 171.826 209.788C170.343 213.06 169.468 216.609 168.913 220.185C168.636 221.973 168.454 223.786 168.341 225.6C168.289 226.503 168.246 227.414 168.228 228.325L168.22 229.688L168.228 230.365C168.237 230.59 168.22 230.825 168.332 231.033C168.436 231.233 168.358 231.484 168.159 231.589C167.96 231.693 167.708 231.615 167.604 231.415C167.543 231.311 167.543 231.189 167.578 231.076Z" fill="white"/>
<path d="M129.391 2.75894C118.382 2.67215 107.277 4.41654 97.4468 8.50415C74.5784 17.9985 55.1602 43.1403 62.7628 68.8202C65.2334 77.1603 63.9331 86.3683 72.2378 89.9873C76.7283 91.9486 88.96 93.1202 93.6152 91.5668C105.977 87.4618 114.1 76.2144 107.381 63.7433C105.231 59.7511 102.44 56.1061 100.585 51.9664C98.7298 47.8268 97.8803 42.9147 99.7701 38.7924C103.489 30.7039 115.851 28.1264 123.861 28.3694C133.318 28.6558 141.892 33.3422 146.981 41.3786C153.326 51.3937 154.93 63.5784 154.002 75.199C153.005 87.6354 147.769 97.1384 139.915 106.676C133.154 114.895 125.716 122.775 121.217 132.425C117.09 141.278 115.747 151.093 115.556 160.787C115.521 162.662 106.194 180.366 106.228 185.773C106.237 186.536 116.804 189.071 117.576 189.079C121.555 189.123 132.833 189.253 136.985 189.296C137.835 189.305 138.546 188.619 138.554 187.769C138.849 161.464 146.929 136.383 167.387 118.722C174.834 112.291 182.852 107.058 188.634 98.9435C196.887 87.375 200.953 75.9974 199.783 61.7298C198.708 48.6946 194.425 35.6507 185.938 25.5402C176.819 14.6659 163.469 7.87929 149.59 4.94594C143.123 3.5834 136.275 2.81101 129.391 2.75894Z" fill="url(#paint1_linear_100_473)"/>
<path d="M149.702 218.785C149.702 230.883 143.001 241.584 130.926 241.584C128.316 241.584 119.439 241.61 117.116 240.768C108.69 237.722 108.664 231.248 108.664 221.762C108.664 209.664 112.747 197.766 124.823 197.766C136.907 197.766 149.702 206.687 149.702 218.785Z" fill="#E1473D"/>
<path d="M118.93 -0.000828229C107.92 -0.0876139 96.8155 1.65678 86.985 5.74439C64.1166 15.2474 44.7071 40.3892 52.301 66.0691C54.7716 74.4092 60.4757 84.9103 68.7718 88.538C73.2622 90.4993 78.4895 90.3691 83.1447 88.8243C95.5065 84.7194 103.629 73.472 96.9108 61.0008C94.761 57.0087 91.9696 53.3637 90.1145 49.224C88.2593 45.0843 87.4098 40.1723 89.2996 36.05C93.0185 27.9615 105.38 25.384 113.39 25.627C122.848 25.9134 131.421 30.5998 136.51 38.6362C142.856 48.6512 144.459 60.836 143.532 72.4566C142.535 84.893 137.299 94.396 129.445 103.934C122.683 112.152 115.245 120.032 110.746 129.683C106.62 138.535 105.276 148.351 105.086 158.045C105.051 159.919 105.684 179.533 105.718 184.94C105.727 185.703 106.343 186.319 107.105 186.328C111.084 186.371 122.363 186.502 126.515 186.545C127.364 186.554 128.075 185.868 128.084 185.018C128.379 158.713 136.458 133.632 156.917 115.971C164.363 109.54 172.382 104.307 178.164 96.1925C186.417 84.6239 190.482 73.2463 189.312 58.9787C188.237 45.9435 183.955 32.8996 175.468 22.7891C166.357 11.9148 153.007 5.11953 139.128 2.19485C132.661 0.823636 125.813 0.0599218 118.93 -0.000828229Z" fill="url(#paint2_linear_100_473)"/>
<path d="M120.074 240.907C132.158 240.907 141.954 231.1 141.954 219.002C141.954 206.905 132.158 197.098 120.074 197.098C107.989 197.098 98.1934 206.905 98.1934 219.002C98.1934 231.1 107.989 240.907 120.074 240.907Z" fill="url(#paint3_linear_100_473)"/>
<path opacity="0.63" d="M59.538 63.5517C59.4079 63.5517 59.2953 63.4649 59.2606 63.3347C57.7262 56.4005 57.5008 45.5523 65.1381 33.2027C72.5933 21.1569 83.0392 13.0945 96.2072 9.24118C110.277 5.12754 126.982 6.00407 145.862 11.8621C146.01 11.9055 146.096 12.0617 146.044 12.2179C146.001 12.3655 145.836 12.4522 145.698 12.4002C109.427 1.14407 80.9934 8.64236 65.6148 33.4978C58.0816 45.6825 58.2983 56.3832 59.8067 63.2045C59.8414 63.3521 59.746 63.5083 59.59 63.543C59.5813 63.5517 59.564 63.5517 59.538 63.5517Z" fill="white"/>
<path opacity="0.63" d="M64.1418 74.7038C64.0551 74.7038 63.9684 74.6604 63.9164 74.591C63.847 74.5042 62.2693 72.3172 60.8043 68.4813C60.7523 68.3338 60.8216 68.1776 60.969 68.1168C61.1164 68.0647 61.2724 68.1342 61.3331 68.2817C62.7721 72.0482 64.3585 74.2439 64.3672 74.2612C64.4625 74.3827 64.4279 74.565 64.3065 74.6518C64.2545 74.6865 64.2025 74.7038 64.1418 74.7038Z" fill="white"/>
<path opacity="0.63" d="M127.39 204.805C127.346 204.805 127.303 204.796 127.26 204.77C125.014 203.633 122.596 203.052 120.065 203.052C119.908 203.052 119.787 202.921 119.787 202.774C119.787 202.618 119.908 202.496 120.065 202.496C122.682 202.496 125.188 203.095 127.511 204.275C127.65 204.345 127.702 204.518 127.632 204.657C127.598 204.753 127.494 204.805 127.39 204.805Z" fill="white"/>
<path opacity="0.63" d="M111.014 232.732C110.962 232.732 110.902 232.715 110.858 232.68C106.307 229.599 103.594 224.487 103.594 218.994C103.594 212.91 106.923 207.33 112.289 204.449C112.427 204.379 112.592 204.423 112.67 204.561C112.739 204.7 112.696 204.865 112.557 204.943C107.382 207.729 104.166 213.11 104.166 218.994C104.166 224.296 106.793 229.243 111.188 232.211C111.318 232.298 111.352 232.472 111.266 232.602C111.196 232.689 111.101 232.732 111.014 232.732Z" fill="white"/>
<g opacity="0.3">
<path d="M47.2967 40.9721C47.0626 41.2585 46.6465 41.3019 46.3691 41.0675C45.8143 40.6162 45.2335 40.191 44.644 39.7918C44.3406 39.5922 44.2626 39.1843 44.462 38.8805L44.4706 38.8719C44.6787 38.5681 45.0861 38.49 45.3895 38.6983C46.0137 39.1235 46.6205 39.5748 47.2013 40.0435C47.4701 40.2604 47.5221 40.6423 47.34 40.92C47.3314 40.9374 47.314 40.9547 47.2967 40.9721ZM41.6359 38.0387C40.9944 37.7263 40.3356 37.4312 39.6768 37.1709C39.3387 37.0407 39.1653 36.6501 39.304 36.3117C39.4427 35.9732 39.8241 35.7996 40.1622 35.9385C40.8557 36.2075 41.5492 36.52 42.2254 36.8497C42.5548 37.0146 42.6849 37.4052 42.5288 37.735C42.5202 37.761 42.5028 37.7784 42.4942 37.8044C42.3034 38.0821 41.9393 38.1949 41.6359 38.0387ZM36.3479 36.1294C35.6544 35.9645 34.9436 35.8257 34.2414 35.7215C33.8773 35.6695 33.6346 35.331 33.6866 34.9665C33.7386 34.602 34.0767 34.359 34.4408 34.4111C35.1863 34.5239 35.9318 34.6627 36.66 34.8363C37.0154 34.9231 37.2322 35.2789 37.1541 35.6347C37.1368 35.7129 37.1021 35.7823 37.0675 35.843C36.9114 36.0774 36.6253 36.1989 36.3479 36.1294ZM30.7739 35.4525C30.063 35.4438 29.3435 35.4699 28.6327 35.5219C28.2686 35.548 27.9478 35.2789 27.9218 34.9144C27.8958 34.5499 28.1646 34.2288 28.5286 34.2028C29.2742 34.142 30.037 34.116 30.7825 34.1247C31.1466 34.1247 31.4414 34.4284 31.4414 34.7929C31.4414 34.9231 31.398 35.0446 31.3373 35.1487C31.216 35.331 31.0079 35.4525 30.7739 35.4525ZM25.1825 36.034C24.489 36.1902 23.7868 36.3724 23.1106 36.5807C22.7639 36.6849 22.3911 36.4939 22.2784 36.1468C22.1744 35.7996 22.3651 35.4265 22.7119 35.3136C23.4314 35.088 24.1595 34.8971 24.8964 34.7409C25.2518 34.6627 25.6072 34.8884 25.6853 35.2442C25.7286 35.4265 25.6853 35.6 25.5899 35.7476C25.5032 35.8864 25.3558 35.9906 25.1825 36.034ZM19.8598 37.8391C19.2183 38.1429 18.5768 38.4726 17.9613 38.8285C17.6406 39.0107 17.2418 38.9066 17.0598 38.5855C16.8777 38.2644 16.9817 37.8651 17.3025 37.6829C17.9527 37.3097 18.6288 36.9539 19.305 36.6415C19.6344 36.4852 20.0332 36.6328 20.1892 36.9626C20.2932 37.1795 20.2672 37.4225 20.1459 37.6048C20.0679 37.7002 19.9725 37.7784 19.8598 37.8391ZM4.94072 57.4006C4.57663 57.3485 4.3339 57.0101 4.38591 56.6456C4.49861 55.9079 4.64598 55.1615 4.81936 54.4238C4.90604 54.068 5.26147 53.8511 5.61689 53.9379C5.97231 54.0246 6.18903 54.3805 6.10235 54.7363C5.93764 55.4306 5.79894 56.1422 5.69491 56.8452C5.67757 56.9406 5.6429 57.0274 5.59955 57.1055C5.45218 57.3138 5.20079 57.4353 4.94072 57.4006ZM15.0746 40.7725C14.5111 41.2064 13.965 41.675 13.4449 42.161C13.1761 42.4127 12.76 42.3954 12.5086 42.1263C12.2572 41.8573 12.2746 41.4407 12.5433 41.189C13.0894 40.677 13.6702 40.1823 14.2597 39.7224C14.5458 39.4967 14.9619 39.5488 15.1873 39.8352C15.3693 40.0608 15.3693 40.3732 15.222 40.6076C15.1786 40.677 15.1266 40.7291 15.0746 40.7725ZM6.29306 51.7769C5.95498 51.6467 5.7816 51.2562 5.9203 50.9177C6.1977 50.2234 6.50111 49.5291 6.8392 48.8522C7.00391 48.5224 7.40267 48.3922 7.72342 48.5571C8.05284 48.722 8.18287 49.1212 8.01816 49.4424C7.69741 50.0846 7.41134 50.7441 7.15128 51.4037C7.13394 51.4471 7.1166 51.4818 7.09059 51.5252C6.91722 51.7856 6.5878 51.8984 6.29306 51.7769ZM11.0609 44.7125C10.6101 45.268 10.1854 45.8407 9.77794 46.4309C9.56988 46.7346 9.16245 46.8127 8.85904 46.6045C8.5643 46.4049 8.47761 45.997 8.67699 45.6932L8.68566 45.6845C9.11043 45.0597 9.56121 44.4522 10.0293 43.8707C10.2634 43.5843 10.6795 43.5409 10.9569 43.7752C11.2256 43.9922 11.2776 44.3654 11.0956 44.6518C11.0869 44.6691 11.0783 44.6952 11.0609 44.7125Z" fill="#687B75"/>
<path d="M5.31301 61.7489C5.38236 61.6361 5.4257 61.5059 5.41703 61.367C5.40836 61.0285 5.3997 60.6814 5.40836 60.3343C5.40836 59.9698 5.12229 59.666 4.74953 59.666C4.38544 59.666 4.08203 59.9524 4.08203 60.3256C4.08203 60.6901 4.08203 61.0546 4.0907 61.4104C4.09937 61.7749 4.41145 62.0613 4.77554 62.0526C5.0096 62.0439 5.20031 61.9224 5.31301 61.7489Z" fill="#687B75"/>
</g>
<g opacity="0.3">
<path d="M13.7751 80.0949C13.9485 79.8259 13.9052 79.4614 13.6624 79.2444C13.411 79.0188 13.1596 78.7758 12.9083 78.5328C12.6482 78.2724 12.2321 78.2811 11.972 78.5415C11.712 78.8018 11.7206 79.2184 11.9807 79.4787C12.2408 79.7304 12.5008 79.9821 12.7696 80.2251C13.0383 80.4681 13.4631 80.4507 13.7058 80.1817C13.7405 80.147 13.7578 80.121 13.7751 80.0949Z" fill="#687B75"/>
<path d="M51.953 76.12C51.7363 76.4151 51.3289 76.4845 51.0254 76.2675C50.7307 76.0506 50.6614 75.6427 50.8781 75.3389C51.2855 74.7748 51.6756 74.1847 52.0397 73.5772C52.2304 73.2647 52.6378 73.1606 52.9499 73.3515C53.262 73.5425 53.366 73.9503 53.1753 74.2628C53.0193 74.5231 52.8546 74.7835 52.6899 75.0438C52.4558 75.4083 52.2131 75.7728 51.953 76.12ZM53.9555 71.3988C53.6174 71.2513 53.4614 70.8608 53.6088 70.531C53.8862 69.8888 54.1376 69.2205 54.3629 68.5609C54.4756 68.2138 54.8571 68.0229 55.2038 68.1444C55.5506 68.2572 55.7413 68.6391 55.6199 68.9862C55.3859 69.6892 55.1171 70.3834 54.8224 71.0604C54.8051 71.0951 54.7877 71.1298 54.7704 71.1558C54.6057 71.4249 54.2589 71.529 53.9555 71.3988ZM49.6471 78.8971C49.1356 79.4265 48.5982 79.9472 48.0434 80.4419C47.766 80.6849 47.3499 80.6589 47.1071 80.3812C46.8644 80.1034 46.8904 79.6869 47.1678 79.4439C47.6966 78.9752 48.2081 78.4892 48.6849 77.9772C48.9363 77.7168 49.3524 77.6995 49.6211 77.9598C49.8552 78.1855 49.8898 78.5413 49.7165 78.8017C49.7078 78.8364 49.6818 78.8711 49.6471 78.8971ZM55.7586 66.0094C55.4032 65.94 55.1605 65.5929 55.2298 65.2371C55.3599 64.5515 55.4639 63.8398 55.5332 63.1455C55.5679 62.781 55.8973 62.512 56.2614 62.5554C56.6255 62.5901 56.8943 62.9199 56.8509 63.2844C56.7729 64.0221 56.6689 64.7597 56.5302 65.4887C56.5128 65.5755 56.4781 65.6536 56.4348 65.7317C56.2961 65.94 56.0274 66.0615 55.7586 66.0094ZM45.1913 82.6376C44.5758 83.0455 43.943 83.436 43.2928 83.7918C42.9721 83.9654 42.5733 83.8526 42.3913 83.5315C42.2179 83.2104 42.3306 82.8112 42.6513 82.6289C43.2668 82.2904 43.8736 81.9259 44.4545 81.5354C44.7579 81.3358 45.174 81.4139 45.3734 81.7177C45.5207 81.9433 45.5207 82.2297 45.3734 82.4467C45.33 82.5248 45.2693 82.5855 45.1913 82.6376ZM40.016 85.3106C39.3312 85.5709 38.6203 85.8139 37.9095 86.0222C37.5541 86.1264 37.19 85.9181 37.0859 85.5709C36.9819 85.2151 37.19 84.8506 37.5367 84.7465C38.2129 84.5469 38.8804 84.3212 39.5392 84.0696C39.8773 83.9394 40.2674 84.1129 40.3974 84.4514C40.4755 84.6597 40.4495 84.8767 40.3368 85.0502C40.2674 85.1717 40.1547 85.2585 40.016 85.3106ZM34.3899 86.7946C33.6618 86.8988 32.9162 86.9769 32.1794 87.0289C31.8153 87.055 31.5032 86.7773 31.4772 86.4128C31.4512 86.0483 31.7286 85.7358 32.0927 85.7098C32.7949 85.6664 33.497 85.5883 34.1906 85.4842C34.5546 85.4321 34.8927 85.6838 34.9447 86.0396C34.9707 86.2045 34.9274 86.3694 34.8494 86.4996C34.7454 86.6471 34.5893 86.7599 34.3899 86.7946ZM28.5731 87.0029C27.8363 86.9508 27.0908 86.8641 26.3626 86.7426C25.9985 86.6818 25.7558 86.3433 25.8164 85.9875C25.8771 85.623 26.2152 85.38 26.5706 85.4408C27.2641 85.5536 27.9663 85.6317 28.6685 85.6838C29.0326 85.7098 29.31 86.0309 29.284 86.3954C29.2753 86.5082 29.2406 86.6211 29.18 86.7078C29.0499 86.8988 28.8245 87.0203 28.5731 87.0029ZM22.843 85.9354C22.1409 85.7185 21.43 85.4755 20.7452 85.1978C20.4071 85.0589 20.2424 84.6771 20.3724 84.3386C20.5111 84.0001 20.8925 83.8352 21.2306 83.9654C21.8808 84.2258 22.5483 84.4601 23.2245 84.6684C23.5712 84.7725 23.7706 85.1457 23.6666 85.4928C23.6492 85.5536 23.6232 85.6143 23.5886 85.6577C23.4412 85.9007 23.1378 86.0222 22.843 85.9354ZM17.503 83.6356C17.0349 83.3666 16.5581 83.0802 16.1073 82.7851C15.9426 82.681 15.7779 82.5682 15.6219 82.4553C15.3185 82.2471 15.2318 81.8392 15.4485 81.5354C15.6566 81.2317 16.064 81.1536 16.3674 81.3618C16.5234 81.466 16.6795 81.5701 16.8355 81.6743C17.269 81.952 17.7111 82.2297 18.1619 82.4814C18.4826 82.6636 18.5953 83.0628 18.4133 83.3839C18.4046 83.3926 18.3959 83.41 18.3959 83.4187C18.1965 83.7051 17.8064 83.8092 17.503 83.6356Z" fill="#687B75"/>
<path d="M56.8593 60.0388C56.9286 59.926 56.972 59.7958 56.9633 59.657C56.946 59.3011 56.9286 58.9366 56.9026 58.5721C56.8766 58.2076 56.5559 57.9386 56.1918 57.9646C55.8277 57.9907 55.5503 58.3118 55.585 58.6763C55.611 59.0234 55.6283 59.3706 55.6456 59.709C55.663 60.0735 55.9664 60.3599 56.3305 60.3512C56.5472 60.3339 56.7466 60.2124 56.8593 60.0388Z" fill="#687B75"/>
</g>
<path d="M48.5534 52.2876C48.5101 52.1574 48.3974 52.0793 48.2673 52.0706L44.505 51.9838C43.6035 50.4738 42.4505 49.0939 41.0722 47.9223L41.6097 44.1905C41.627 44.0603 41.5663 43.9301 41.4449 43.8694L37.4313 41.8039C37.3099 41.7431 37.1712 41.7605 37.0758 41.8559L34.3538 44.4595C32.5941 44.0169 30.8083 43.8781 29.0572 44.0256L26.8033 41.0054C26.7252 40.9013 26.5865 40.8579 26.4652 40.8926L22.1654 42.2725C22.0441 42.3159 21.9574 42.4287 21.9487 42.5589L21.862 46.3254C20.3536 47.228 18.9753 48.3822 17.805 49.7621L14.0774 49.2241C13.9474 49.2067 13.8173 49.2674 13.7567 49.3889L11.6935 53.4071C11.6328 53.5286 11.6501 53.6675 11.7455 53.763L14.3461 56.488C13.904 58.2498 13.7653 60.0376 13.9127 61.7906L10.8959 64.0471C10.7919 64.1252 10.7486 64.264 10.7832 64.3855L12.1616 68.6901C12.2049 68.8116 12.3176 68.8984 12.4477 68.9071L16.2099 68.9938C17.1115 70.5039 18.2645 71.8838 19.6428 73.0554L19.1053 76.7872C19.088 76.9174 19.1487 77.0476 19.27 77.1083L23.2837 79.1738C23.4051 79.2346 23.5438 79.2172 23.6391 79.1217L26.3612 76.5182C28.1209 76.9608 29.9067 77.0996 31.6578 76.9521L33.9117 79.9722C33.9897 80.0764 34.1284 80.1198 34.2498 80.0851L38.5496 78.7052C38.6796 78.6618 38.7576 78.5489 38.7663 78.4188L38.853 74.6523C40.3613 73.7497 41.7397 72.5954 42.91 71.2156L46.6376 71.7536C46.7676 71.771 46.8976 71.7102 46.9583 71.5887L49.0215 67.5706C49.0822 67.4491 49.0649 67.3102 48.9695 67.2147L46.3688 64.4897C46.811 62.7279 46.9497 60.9401 46.8023 59.1871L49.819 56.9306C49.9231 56.8525 49.9664 56.7137 49.9317 56.5922L48.5534 52.2876Z" fill="#687B75"/>
<path d="M33.7561 63.5089C32.1003 65.3922 29.2223 65.5744 27.3498 63.9081C26.4396 63.101 25.8934 61.9989 25.8241 60.7839C25.746 59.5689 26.1448 58.4059 26.951 57.4947C28.6068 55.6114 31.4848 55.4292 33.3573 57.0955C35.0651 58.6055 35.3685 61.1223 34.1635 62.9795C34.0421 63.1618 33.9121 63.3354 33.7561 63.5089ZM26.8817 60.7231C26.9423 61.6517 27.3585 62.5022 28.052 63.1184C29.491 64.3855 31.6929 64.2466 32.9672 62.806C34.2415 61.3653 34.0941 59.161 32.6551 57.8852C31.2161 56.6181 29.0142 56.757 27.7399 58.1976C27.6272 58.3278 27.5232 58.4667 27.4278 58.6055C27.029 59.2304 26.8297 59.9681 26.8817 60.7231Z" fill="#BDD0FB"/>
<path d="M39.6077 66.6338C39.8157 66.3127 40.0064 65.9829 40.1798 65.6445C40.2318 65.5403 40.2925 65.4275 40.3445 65.3147C40.6046 64.7766 40.8126 64.2125 40.9774 63.6397C40.9774 63.631 40.986 63.6224 40.986 63.6137C40.9947 63.5876 40.9947 63.5703 41.0034 63.5443C41.012 63.5009 41.0294 63.4575 41.038 63.4141C41.0727 63.3013 41.0207 63.1798 40.9253 63.119C40.8993 63.1016 40.8733 63.093 40.8473 63.0843C40.7086 63.0496 40.5612 63.1277 40.5266 63.2752C40.3272 64.0042 40.0585 64.7159 39.7117 65.3928C37.9866 68.7514 34.7184 70.7995 31.2162 71.1207C29.2657 71.3029 27.2546 70.9471 25.3908 69.9838C25.0614 69.8189 24.7493 69.6279 24.4459 69.437C22.4 68.1092 20.883 66.1305 20.1288 63.7699C19.2619 61.0622 19.5046 58.1809 20.7963 55.6468C23.4836 50.4223 29.9072 48.3654 35.1172 51.0558C35.438 51.2207 35.75 51.4029 36.0534 51.6025C37.3624 52.453 38.4634 53.5813 39.2869 54.9004C39.3043 54.9351 39.3389 54.9611 39.3649 54.9785C39.4516 55.0306 39.5557 55.0393 39.651 54.9785C39.7724 54.9004 39.8157 54.7355 39.7377 54.614C38.8795 53.2254 37.7179 52.0365 36.3482 51.1513C36.0361 50.943 35.7067 50.752 35.3686 50.5785C29.8986 47.7579 23.1455 49.9276 20.3282 55.4038C18.9672 58.0594 18.7158 61.0882 19.626 63.9261C20.4149 66.3995 22.0099 68.4824 24.1511 69.8796C24.4719 70.0879 24.8013 70.2788 25.148 70.4611C27.8007 71.8236 30.8261 72.0753 33.6608 71.164C36.1401 70.3743 38.212 68.7861 39.6077 66.6338Z" fill="#BDD0FB"/>
<g opacity="0.3">
<path d="M74.2841 31.4691C74.3795 31.3216 74.3708 31.122 74.2494 30.9831C74.024 30.7227 73.79 30.4624 73.5472 30.2107C73.3912 30.0458 73.1311 30.0458 72.9664 30.202C72.8017 30.3582 72.8017 30.6186 72.9578 30.7835C73.1918 31.0178 73.4172 31.2695 73.6339 31.5212C73.7813 31.6948 74.0414 31.7121 74.2147 31.5646C74.2321 31.5299 74.2581 31.5038 74.2841 31.4691Z" fill="#687B75"/>
<path d="M71.9964 29.3164C71.8577 29.4899 71.5977 29.516 71.4243 29.3771C70.9822 29.0213 70.5141 28.6828 70.0373 28.3704C69.9333 28.301 69.8379 28.2402 69.7339 28.1795C69.5432 28.058 69.4825 27.8063 69.6038 27.6154C69.7252 27.4418 69.9766 27.3637 70.1673 27.4852C70.2713 27.5546 70.384 27.624 70.4881 27.6848C70.9909 28.0146 71.4763 28.3704 71.9444 28.7436C72.1091 28.8738 72.1438 29.1081 72.0311 29.2817C72.0138 29.2903 72.0051 29.299 71.9964 29.3164ZM67.9047 27.1901C67.2806 26.9037 66.6304 26.6434 65.9716 26.4351C65.7549 26.3657 65.6422 26.14 65.7029 25.923C65.7722 25.7061 66.0063 25.5933 66.2143 25.654C66.8992 25.871 67.584 26.14 68.2428 26.4438C68.4509 26.5392 68.5376 26.7822 68.4422 26.9905C68.4335 27.0079 68.4249 27.0252 68.4162 27.0426C68.3035 27.2075 68.0868 27.2769 67.9047 27.1901ZM63.9518 25.923C63.2756 25.7929 62.5821 25.7061 61.8886 25.6627C61.6632 25.6453 61.4898 25.4544 61.5071 25.2288C61.5245 25.0031 61.7152 24.8295 61.9406 24.8469C62.6601 24.8903 63.3883 24.9858 64.0991 25.1159C64.3245 25.1593 64.4632 25.3676 64.4285 25.5933C64.4199 25.6453 64.3939 25.6974 64.3679 25.7408C64.2812 25.8797 64.1251 25.9491 63.9518 25.923ZM59.8167 25.6627C59.1232 25.7061 58.4297 25.7929 57.7535 25.923C57.5281 25.9664 57.3201 25.8189 57.2767 25.5933C57.2334 25.3676 57.3808 25.1593 57.6062 25.1159C58.317 24.9858 59.0452 24.8903 59.7647 24.8469C59.9901 24.8295 60.1808 25.0031 60.1981 25.2288C60.2068 25.3155 60.1808 25.4023 60.1288 25.4804C60.0681 25.5846 59.9467 25.654 59.8167 25.6627ZM55.7424 26.4264C55.0835 26.6347 54.4334 26.8864 53.8092 27.1728C53.6012 27.2682 53.3584 27.1728 53.2631 26.9732C53.1677 26.7649 53.2544 26.5219 53.4625 26.4264C54.1213 26.1227 54.8061 25.8623 55.491 25.6367C55.7077 25.5672 55.9331 25.6887 56.0024 25.9057C56.0371 26.0272 56.0198 26.1574 55.9591 26.2528C55.9071 26.3396 55.8377 26.4004 55.7424 26.4264ZM51.9714 28.1534C51.3819 28.5179 50.8185 28.9172 50.281 29.3511C50.1076 29.4899 49.8475 29.4639 49.7088 29.2903C49.5701 29.1168 49.5961 28.8564 49.7695 28.7175C50.333 28.2663 50.9311 27.841 51.5466 27.4592C51.7374 27.3377 51.9887 27.3984 52.1101 27.5893C52.1968 27.7282 52.1881 27.9018 52.1014 28.0319C52.0754 28.084 52.0321 28.1274 51.9714 28.1534ZM48.7466 30.757C48.2698 31.2517 47.8104 31.7811 47.3943 32.3365C47.2556 32.5188 47.0042 32.5535 46.8221 32.4146C46.6401 32.2758 46.6054 32.0241 46.7441 31.8418C47.1775 31.2604 47.6543 30.7049 48.1571 30.1842C48.3132 30.0193 48.5732 30.0193 48.7379 30.1755C48.8766 30.3144 48.9026 30.5314 48.7986 30.6963C48.7813 30.7136 48.7639 30.7397 48.7466 30.757ZM44.7936 36.1464C44.5856 36.0596 44.4902 35.8166 44.5769 35.6083C44.8196 35.0355 45.097 34.4628 45.4091 33.9073C45.4524 33.8205 45.5045 33.7424 45.5478 33.6557C45.6518 33.456 45.9119 33.3953 46.1026 33.5081C46.302 33.6209 46.3627 33.8726 46.25 34.0635C46.2066 34.1417 46.1633 34.2198 46.1199 34.2979C45.8252 34.8273 45.5565 35.374 45.3311 35.9208C45.3224 35.9468 45.3137 35.9642 45.2964 35.9815C45.1924 36.1551 44.9757 36.2245 44.7936 36.1464Z" fill="#687B75"/>
</g>
<g opacity="0.3">
<path d="M75.516 52.3395C75.1172 52.9297 74.6838 53.5025 74.2243 54.0492C74.077 54.2228 73.8169 54.2401 73.6435 54.0926C73.4701 53.9451 73.4528 53.6847 73.6002 53.5111C74.0423 52.9991 74.4584 52.4524 74.8311 51.8796C74.9525 51.6886 75.2126 51.6452 75.3946 51.7667C75.5853 51.8882 75.6373 52.1399 75.516 52.3395C75.516 52.3309 75.516 52.3309 75.516 52.3395ZM76.0448 50.6646C75.8454 50.5604 75.7587 50.3174 75.8627 50.1178C76.1661 49.5103 76.4435 48.8768 76.6776 48.2433C76.7556 48.035 76.9897 47.9221 77.1977 48.0002C77.4058 48.0784 77.5185 48.3127 77.4405 48.521C77.1977 49.1892 76.9117 49.8488 76.5909 50.491C76.5822 50.5084 76.5736 50.517 76.5649 50.5257C76.4609 50.6993 76.2355 50.76 76.0448 50.6646ZM72.7246 55.5766C72.1958 56.054 71.6323 56.5053 71.0515 56.9218C70.8695 57.052 70.6094 57.0086 70.4794 56.8264C70.3493 56.6441 70.3927 56.3837 70.5747 56.2536C71.1295 55.863 71.667 55.4291 72.1698 54.9691C72.3345 54.8129 72.5946 54.8303 72.7506 54.9952C72.8807 55.134 72.8893 55.3423 72.794 55.4899C72.7766 55.5246 72.7506 55.5506 72.7246 55.5766ZM77.5705 46.7679C77.3538 46.7158 77.2151 46.4989 77.2671 46.2732C77.4231 45.6136 77.5358 44.928 77.6052 44.2598C77.6312 44.0341 77.8306 43.8692 78.056 43.8953C78.2813 43.9213 78.446 44.1209 78.42 44.3466C78.342 45.0582 78.2293 45.7699 78.0646 46.4641C78.0559 46.5162 78.0386 46.5596 78.0126 46.5943C77.9086 46.7332 77.7352 46.8113 77.5705 46.7679ZM69.2397 58.05C68.6156 58.3885 67.9567 58.6922 67.2979 58.9526C67.0899 59.0394 66.8471 58.9352 66.7691 58.7183C66.6824 58.51 66.7865 58.267 67.0032 58.1889C67.636 57.9372 68.2602 57.6508 68.8583 57.3297C69.0577 57.2256 69.3091 57.295 69.4131 57.4946C69.4825 57.6335 69.4738 57.7897 69.3958 57.9112C69.3524 57.9719 69.3004 58.0153 69.2397 58.05ZM65.2607 59.6122C64.5672 59.7944 63.865 59.9246 63.1629 60.0201C62.9375 60.0461 62.7294 59.8899 62.7034 59.6642C62.6774 59.4386 62.8335 59.2303 63.0589 59.2043C63.7264 59.1175 64.4025 58.9786 65.0614 58.8137C65.2781 58.753 65.5035 58.8919 65.5555 59.1088C65.5815 59.2216 65.5641 59.3431 65.5035 59.4386C65.4514 59.5254 65.3648 59.5861 65.2607 59.6122ZM61.0217 60.1763C60.3108 60.185 59.5913 60.1502 58.8805 60.0721C58.6551 60.0461 58.4904 59.8465 58.5164 59.6209C58.5424 59.3952 58.7418 59.2303 58.9672 59.2564C59.6433 59.3345 60.3282 59.3692 61.0043 59.3605C61.2297 59.3605 61.4118 59.5427 61.4204 59.7684C61.4204 59.8552 61.3944 59.9333 61.3511 59.994C61.2904 60.0982 61.169 60.1763 61.0217 60.1763Z" fill="#687B75"/>
<path d="M78.4375 42.4119C78.4808 42.3425 78.5068 42.2644 78.5068 42.1776C78.4981 41.8304 78.4808 41.4746 78.4548 41.1361C78.4375 40.9105 78.2381 40.7456 78.0127 40.763C77.7873 40.7803 77.6226 40.9799 77.6399 41.2056C77.6659 41.5354 77.6833 41.8651 77.6919 42.2036C77.6919 42.4293 77.8827 42.6115 78.108 42.6028C78.2381 42.5941 78.3681 42.5247 78.4375 42.4119Z" fill="#687B75"/>
</g>
<path d="M72.8974 36.9372C72.8714 36.8504 72.7934 36.7984 72.7067 36.7897L70.1841 36.7376C69.5773 35.7309 68.8057 34.8023 67.8868 34.0212L68.2423 31.5218C68.2509 31.435 68.2076 31.3482 68.1296 31.3048L65.4422 29.9163C65.3642 29.8729 65.2688 29.8902 65.2082 29.951L63.3877 31.6954C62.2087 31.4003 61.0124 31.3048 59.8421 31.4003L58.3424 29.3955C58.2904 29.3261 58.1951 29.2914 58.117 29.3261L55.239 30.246C55.1523 30.2721 55.1003 30.3502 55.0916 30.437L55.0396 32.9624C54.034 33.5699 53.1064 34.3423 52.3263 35.2623L49.8296 34.9064C49.7429 34.8978 49.6563 34.9412 49.6129 35.0193L48.2259 37.7096C48.1825 37.7877 48.1999 37.8832 48.2606 37.9439L50.003 39.7664C49.7083 40.9467 49.6129 42.1444 49.7083 43.316L47.6884 44.826C47.6191 44.8781 47.5844 44.9736 47.6191 45.0517L48.538 47.933C48.564 48.0198 48.642 48.0718 48.7287 48.0805L51.2513 48.1326C51.8581 49.1393 52.6297 50.0679 53.5486 50.849L53.1931 53.3484C53.1845 53.4352 53.2278 53.522 53.3058 53.5654L55.9932 54.9539C56.0712 54.9973 56.1666 54.98 56.2272 54.9192L58.0477 53.1748C59.2267 53.4699 60.423 53.5654 61.5932 53.4699L63.1016 55.492C63.1536 55.5614 63.249 55.5962 63.327 55.5614L66.2051 54.6415C66.2918 54.6155 66.3438 54.5374 66.3524 54.4506L66.4045 51.9251C67.41 51.3176 68.3376 50.5452 69.1178 49.6253L71.6144 49.9811C71.7011 49.9898 71.7878 49.9464 71.8312 49.8683L73.2182 47.1779C73.2615 47.0998 73.2442 47.0044 73.1835 46.9436L71.4411 45.1211C71.7358 43.9408 71.8312 42.7432 71.7358 41.5716L73.7556 40.0615C73.825 40.0094 73.8597 39.914 73.825 39.8359L72.8974 36.9372Z" fill="#687B75"/>
<path d="M63.0418 44.4781C62.4957 45.103 61.7415 45.4675 60.918 45.5195C60.0944 45.5716 59.2969 45.3026 58.6814 44.7558C57.3984 43.6276 57.2771 41.6662 58.404 40.3818C59.531 39.0974 61.4901 38.9759 62.7731 40.1041C63.3886 40.6509 63.7614 41.4059 63.8134 42.2304C63.8567 42.8986 63.6833 43.5495 63.3279 44.1049C63.2412 44.2438 63.1459 44.3653 63.0418 44.4781ZM59.2189 44.1396C59.6783 44.5389 60.2591 44.7385 60.866 44.7037C61.4728 44.669 62.0276 44.3913 62.4264 43.94C62.8251 43.4801 63.0245 42.8986 62.9898 42.2911C62.9552 41.6836 62.6778 41.1282 62.227 40.729C61.2821 39.8958 59.843 39.9913 59.0195 40.9286C58.9415 41.0154 58.8808 41.1021 58.8201 41.1976C58.2133 42.1262 58.3607 43.3846 59.2189 44.1396Z" fill="#BDD0FB"/>
<path d="M67.1149 46.6567C67.2536 46.4398 67.3837 46.2141 67.505 45.9798C67.7478 45.5112 67.9385 45.0252 68.0772 44.5131C68.0858 44.4871 68.0858 44.4697 68.0945 44.4437C68.1378 44.2701 68.0685 44.0879 67.9211 43.9924C67.8865 43.9664 67.8431 43.949 67.7998 43.9403C67.583 43.8796 67.3577 44.0098 67.297 44.2267C67.1669 44.6954 66.9936 45.1554 66.7682 45.598C66.7595 45.624 66.7422 45.65 66.7335 45.6674C66.196 46.6915 65.4158 47.5506 64.4796 48.1755C63.9681 48.514 63.4133 48.7917 62.8152 48.9826C62.8065 48.9826 62.8065 48.9826 62.7978 48.9913C62.7805 49 62.7718 49 62.7545 49.0086C61.0034 49.5727 59.1396 49.4165 57.5012 48.5747C57.2931 48.4619 57.0851 48.3491 56.8857 48.2189C55.5594 47.3597 54.5798 46.0753 54.0943 44.5478C53.5308 42.7948 53.6869 40.9289 54.5278 39.2886C55.3686 37.6571 56.799 36.4421 58.5501 35.878C60.3012 35.3138 62.165 35.4701 63.8034 36.3119C64.0115 36.416 64.2109 36.5375 64.4102 36.659C65.2511 37.2058 65.9706 37.9348 66.4994 38.794C66.5341 38.846 66.5775 38.8894 66.6208 38.9241C66.7508 39.0109 66.9242 39.0109 67.0629 38.9328C67.2536 38.8113 67.3143 38.5596 67.1929 38.3687C66.5948 37.4054 65.7973 36.5896 64.8524 35.9821C64.6356 35.8432 64.4102 35.7044 64.1762 35.5916C62.3471 34.6456 60.2579 34.472 58.2987 35.1056C56.3396 35.7304 54.7445 37.0843 53.7996 38.9241C52.8547 40.7553 52.6813 42.8468 53.3141 44.8082C53.8603 46.5179 54.9612 47.9498 56.4349 48.9132C56.6516 49.052 56.8857 49.1909 57.1198 49.3124C60.674 51.1262 64.9911 49.9286 67.1149 46.6567Z" fill="#BDD0FB"/>
<path d="M157.099 74.4434L145.205 86.6194L159.465 82.8008L157.099 74.4434Z" fill="#76C5AA"/>
<path d="M227.855 79.4861L160.29 82.7666C158.556 82.8534 157.1 81.4648 157.1 79.7291V51.8969C157.1 48.8681 159.501 46.3947 162.518 46.2993L223.416 44.416C227.95 44.416 231.626 48.0957 231.626 52.6346V75.52C231.626 77.6376 229.961 79.382 227.855 79.4861Z" fill="#76C5AA"/>
<path opacity="0.85" d="M162.308 81.6479C161.233 81.6479 160.219 81.24 159.43 80.4937C158.598 79.6952 158.139 78.6191 158.139 77.4648V52.3838C158.139 49.4244 160.505 47.0378 163.531 46.951L222.488 45.1719C226.952 45.1719 230.584 48.7214 230.584 53.0867V74.7137C230.584 76.7966 228.92 78.5063 226.796 78.6017L162.508 81.6479C162.438 81.6479 162.369 81.6479 162.308 81.6479ZM222.488 45.4583L163.531 47.2374C160.67 47.3242 158.425 49.5806 158.425 52.3751V77.4562C158.425 78.5323 158.85 79.5303 159.63 80.268C160.41 81.0057 161.424 81.3876 162.49 81.3355L226.779 78.2893C228.746 78.1938 230.289 76.6143 230.289 74.6877V53.0781C230.289 48.8776 226.787 45.4583 222.488 45.4583Z" fill="white"/>
<path d="M222.288 50.5339L168.264 52.556C167.735 52.5734 167.319 52.9292 167.336 53.3371L167.354 53.8144C167.371 54.2223 167.805 54.5347 168.333 54.5174L222.366 52.5386C222.895 52.5213 223.32 52.1655 223.294 51.7576L223.268 51.2369C223.251 50.829 222.817 50.5165 222.288 50.5339Z" fill="url(#paint4_linear_100_473)"/>
<path d="M217.46 64.2292L163.436 66.2426C162.907 66.26 162.491 66.6245 162.508 67.0497L162.526 67.5444C162.543 67.9697 162.985 68.2908 163.505 68.2734L217.538 66.312C218.067 66.2947 218.483 65.9302 218.466 65.5049L218.44 64.9582C218.422 64.5329 217.98 64.2118 217.46 64.2292Z" fill="url(#paint5_linear_100_473)"/>
<path d="M223.77 69.9565L163.539 72.2303C162.949 72.2563 162.481 72.6208 162.499 73.0548L162.516 73.5495C162.533 73.9747 163.019 74.3045 163.608 74.2785L223.839 72.0567C224.429 72.0307 224.897 71.6662 224.88 71.2323L224.854 70.6855C224.836 70.2603 224.351 69.9305 223.77 69.9565Z" fill="url(#paint6_linear_100_473)"/>
<path d="M192.667 58.6056L163.219 59.4648C162.933 59.4735 162.716 59.8727 162.733 60.35L162.759 60.9054C162.785 61.3828 163.028 61.7559 163.323 61.7473L192.771 60.9488C193.057 60.9401 193.274 60.5409 193.256 60.0636L193.23 59.4561C193.204 58.9788 192.953 58.5969 192.667 58.6056Z" fill="url(#paint7_linear_100_473)"/>
<path d="M225.115 57.59L197.279 58.3884C197.002 58.3971 196.802 58.7963 196.828 59.2736L196.854 59.8291C196.88 60.3064 197.115 60.6796 197.383 60.6709L225.219 59.9332C225.496 59.9245 225.696 59.5253 225.67 59.048L225.644 58.4405C225.626 57.9545 225.384 57.5813 225.115 57.59Z" fill="url(#paint8_linear_100_473)"/>
<path d="M54.5022 232.975C54.5022 232.975 53.9474 236.134 53.67 239.258C53.566 240.482 54.5022 241.54 55.7245 241.592C59.8769 241.766 68.7711 242.104 71.9613 241.957C72.4381 241.94 72.7501 241.445 72.5768 240.994C72.4294 240.62 72.1433 240.317 71.7792 240.152L57.0942 233.391L54.5022 232.975Z" fill="url(#paint9_linear_100_473)"/>
<path d="M54.043 231.119L54.4937 234.894C54.4937 234.894 57.0684 236.091 58.8195 234.746L57.7532 230.537L54.043 231.119Z" fill="url(#paint10_linear_100_473)"/>
<path d="M54.3802 160.136C54.1895 161.125 53.3399 209.334 58.4892 230.944C58.5759 231.3 58.3939 231.656 58.0558 231.795C57.2669 232.116 55.7152 232.584 53.8601 232.645C53.2879 232.662 52.7678 232.289 52.6117 231.743C51.138 226.726 44.0903 201.611 43.1714 177.614C42.1398 150.806 43.1714 176.703 43.1714 176.703L43.7782 160.127L54.3802 160.136Z" fill="url(#paint11_linear_100_473)"/>
<path d="M37.6074 234.615C37.6074 234.615 36.7231 236.212 35.8649 240.447C35.7089 241.211 36.2463 241.94 37.0179 242.018C38.3875 242.157 40.5027 242.331 42.1932 242.313C42.9734 242.304 43.5802 241.628 43.4848 240.855C43.2941 239.31 42.7133 236.776 40.9102 234.797L37.6074 234.615Z" fill="url(#paint12_linear_100_473)"/>
<path d="M36.834 229.765L37.8829 235.475C37.8829 235.475 38.9145 236.248 40.9604 235.683L40.4576 229.539L36.834 229.765Z" fill="url(#paint13_linear_100_473)"/>
<path d="M34.0092 161.612C29.7961 187.048 34.9194 224.488 36.6532 231.813C36.7572 232.264 37.1213 232.602 37.5721 232.68C38.3436 232.811 39.6093 232.915 40.8662 232.55C41.2997 232.429 41.6031 232.038 41.6204 231.587C41.8545 225.659 41.4384 189.296 45.3567 174.925C45.5561 174.196 45.9982 173.562 46.6137 173.119L54.2249 167.704L54.8057 158.947L34.0092 161.612Z" fill="url(#paint14_linear_100_473)"/>
<path d="M60.8394 113.411C48.2176 113.203 34.2955 116.726 34.2955 116.726C30.5332 138.701 33.6366 164.042 33.6366 164.042C43.4064 166.611 54.4245 162.471 54.4245 162.471C56.0456 153.289 63.6222 127.444 63.6222 127.444C69.7857 126.681 74.8656 124.902 79.044 122.541C75.8539 118.835 74.3542 114.132 73.6953 111.346C69.2396 112.734 64.7318 113.481 60.8394 113.411Z" fill="url(#paint15_linear_100_473)"/>
<path d="M98.1079 94.804C96.8682 93.3026 95.2992 94.0142 95.2992 94.0142C93.444 101.868 83.7089 108.23 73.7051 111.345C74.3552 114.131 75.8636 118.844 79.0538 122.541C95.6546 113.203 98.1079 94.804 98.1079 94.804Z" fill="url(#paint16_linear_100_473)"/>
<path d="M97.8026 95.1855C97.9326 95.6021 96.4329 96.2269 95.5487 94.5346C95.514 93.7275 95.0286 90.2561 95.5053 89.5965C98.08 86.0817 103.065 81.6816 103.065 81.6816C103.905 82.5148 103.212 83.3306 103.212 83.3306L100.793 85.856C101.296 86.7673 101.92 87.5484 102.206 88.6505C102.423 89.4924 102.293 90.3863 101.868 91.15C101.443 91.9137 100.863 92.9117 100.317 93.6928C99.285 95.1768 97.8026 95.1855 97.8026 95.1855Z" fill="url(#paint17_linear_100_473)"/>
<path d="M99.7352 87.5059L97.5334 89.3804L96.8398 91.2463L98.8077 93.4333C98.8077 93.4333 99.4665 89.7363 99.9606 88.9378C100.455 88.1307 100.195 87.7402 99.7352 87.5059Z" fill="url(#paint18_linear_100_473)"/>
<path d="M39.1323 128.962L34.295 116.734C34.295 116.734 22.5054 124.753 20.5723 134.916C22.8002 135.081 26.8485 135.662 30.8188 137.667C31.6857 132.859 39.1323 128.962 39.1323 128.962Z" fill="url(#paint19_linear_100_473)"/>
<path d="M49.4307 140.469C49.4307 140.469 36.202 147.959 31.7376 141.563C30.81 140.235 30.5933 138.916 30.8187 137.657C26.8483 135.653 22.8 135.071 20.5721 134.906C19.9913 137.97 20.2947 141.233 22.0978 144.522C29.9171 158.842 51.1904 143.732 51.1904 143.732L49.4307 140.469Z" fill="url(#paint20_linear_100_473)"/>
<path d="M47.8459 149.947L55.067 124.701C55.145 124.414 55.3964 124.206 55.6912 124.171C57.0002 124.015 60.7885 123.59 65.1662 123.217C70.4369 122.774 76.5658 122.41 80.224 122.713C80.7441 122.757 81.0562 123.312 80.8308 123.772C78.7503 127.99 70.1942 145.13 65.9031 150.745C65.7644 150.927 65.539 151.04 65.3049 151.04L48.5481 150.884C48.0626 150.884 47.7159 150.415 47.8459 149.947Z" fill="#76C5AA"/>
<path d="M65.9196 121.022L71.1556 120.145C71.433 120.102 71.667 120.362 71.5717 120.631L71.0516 122.202C71.0082 122.341 70.8868 122.437 70.7481 122.454L65.7115 123.131C65.4515 123.166 65.2348 122.931 65.2954 122.671L65.6162 121.3C65.6422 121.161 65.7636 121.048 65.9196 121.022Z" fill="#BDD0FB"/>
<path d="M61.9932 125.456L62.4266 123.208C62.47 122.983 62.652 122.809 62.8861 122.792L73.4621 121.715C73.8175 121.681 74.1036 122.002 74.0169 122.358L73.3407 125.161C73.2887 125.387 73.0893 125.551 72.8639 125.56L62.5307 126.081C62.1926 126.098 61.9325 125.794 61.9932 125.456Z" fill="#BDD0FB"/>
<path d="M49.5879 143.847C49.5879 143.847 48.5823 139.708 48.9898 138.241C49.3972 136.774 50.1861 134.882 52.804 135.299C55.422 135.715 58.5168 136.826 58.5168 136.826C58.5168 136.826 58.3608 138.744 56.3669 138.119L57.5979 139.074C57.5979 139.074 57.4245 140.61 55.7428 139.786L56.8957 141.053C56.8957 141.053 56.1762 142.311 54.9366 141.504C53.6969 140.697 53.0988 144.342 49.5879 143.847Z" fill="url(#paint21_linear_100_473)"/>
<path d="M48.0524 103.16L44.0387 114.781C43.9694 114.972 44.0474 115.189 44.2295 115.284C45.3217 115.892 49.2661 117.645 54.0166 114.625C54.5107 114.312 54.8488 113.8 54.9268 113.219L56.2271 103.16H48.0524V103.16Z" fill="url(#paint22_linear_100_473)"/>
<path d="M56.7927 92.3906C56.7927 92.3906 61.2052 100.696 60.633 104.055C60.0696 107.413 54.6082 107.17 49.8316 104.445L46.4941 95.4715L56.7927 92.3906Z" fill="url(#paint23_linear_100_473)"/>
<path d="M50.0469 100.046C50.2376 99.9589 50.3156 99.7246 50.1943 99.5423C49.8388 99.0042 49.18 97.9021 48.972 96.9387C48.972 96.9387 48.1831 96.4267 50.9918 95.7585C53.8005 95.0815 57.9875 94.0401 58.8718 91.6448C59.73 89.3103 57.4761 83.4436 53.8785 88.1213C53.7398 88.3036 53.4711 88.3036 53.3324 88.1213C52.7429 87.3489 51.1912 85.7607 49.0413 86.7241C47.0215 87.6266 46.7961 89.1107 46.8307 89.857C46.8394 90.074 46.64 90.2476 46.432 90.2042C45.4091 90.0132 42.9644 89.8397 41.8288 92.3564C40.8926 94.422 41.4994 95.5936 42.0542 96.1663C42.2363 96.3486 42.1582 96.661 41.9068 96.7305C41.2393 96.9387 40.3725 97.5028 40.4591 99.0737C40.5805 101.243 43.0078 101.052 43.6926 100.957C43.8053 100.94 43.918 100.983 43.996 101.061C44.5855 101.721 47.2555 104.506 50.1422 104.836C50.3936 104.862 50.5844 104.619 50.5063 104.376L49.258 100.74C49.1973 100.575 49.284 100.384 49.4401 100.315L50.0469 100.046Z" fill="url(#paint24_linear_100_473)"/>
<path d="M50.55 100.558C50.55 100.558 47.4119 98.4052 47.1778 100.219C46.9525 102.033 50.0039 102.849 51.5209 102.172L50.55 100.558Z" fill="url(#paint25_linear_100_473)"/>
</g>
<defs>
<linearGradient id="paint0_linear_100_473" x1="193.825" y1="225.641" x2="42.0285" y2="41.1106" gradientUnits="userSpaceOnUse">
<stop stop-color="#FFE5FF"/>
<stop stop-color="#FFF5FF"/>
</linearGradient>
<linearGradient id="paint1_linear_100_473" x1="424.159" y1="-164.743" x2="-22.7616" y2="215.767" gradientUnits="userSpaceOnUse">
<stop stop-color="#E1473D"/>
<stop offset="1" stop-color="#E9605A"/>
</linearGradient>
<linearGradient id="paint2_linear_100_473" x1="7.334" y1="197.928" x2="395.404" y2="-212.561" gradientUnits="userSpaceOnUse">
<stop stop-color="#FF928E"/>
<stop offset="1" stop-color="#FE7062"/>
</linearGradient>
<linearGradient id="paint3_linear_100_473" x1="164.953" y1="169.356" x2="76.9645" y2="266.474" gradientUnits="userSpaceOnUse">
<stop stop-color="#FF928E"/>
<stop offset="1" stop-color="#FE7062"/>
</linearGradient>
<linearGradient id="paint4_linear_100_473" x1="167.332" y1="52.5268" x2="223.294" y2="52.5268" gradientUnits="userSpaceOnUse">
<stop stop-color="#DAE3FE"/>
<stop offset="1" stop-color="#E9EFFD"/>
</linearGradient>
<linearGradient id="paint5_linear_100_473" x1="162.498" y1="66.2505" x2="218.462" y2="66.2505" gradientUnits="userSpaceOnUse">
<stop stop-color="#DAE3FE"/>
<stop offset="1" stop-color="#E9EFFD"/>
</linearGradient>
<linearGradient id="paint6_linear_100_473" x1="162.497" y1="72.1194" x2="224.882" y2="72.1194" gradientUnits="userSpaceOnUse">
<stop stop-color="#DAE3FE"/>
<stop offset="1" stop-color="#E9EFFD"/>
</linearGradient>
<linearGradient id="paint7_linear_100_473" x1="162.738" y1="60.1774" x2="193.26" y2="60.1774" gradientUnits="userSpaceOnUse">
<stop stop-color="#DAE3FE"/>
<stop offset="1" stop-color="#E9EFFD"/>
</linearGradient>
<linearGradient id="paint8_linear_100_473" x1="196.828" y1="59.128" x2="225.68" y2="59.128" gradientUnits="userSpaceOnUse">
<stop stop-color="#DAE3FE"/>
<stop offset="1" stop-color="#E9EFFD"/>
</linearGradient>
<linearGradient id="paint9_linear_100_473" x1="71.5019" y1="228.608" x2="17.6592" y2="287.108" gradientUnits="userSpaceOnUse">
<stop stop-color="#09005D"/>
<stop offset="1" stop-color="#1A0F91"/>
</linearGradient>
<linearGradient id="paint10_linear_100_473" x1="54.0468" y1="232.958" x2="58.8236" y2="232.958" gradientUnits="userSpaceOnUse">
<stop stop-color="#FEBBBA"/>
<stop offset="1" stop-color="#FF928E"/>
</linearGradient>
<linearGradient id="paint11_linear_100_473" x1="75.7357" y1="162.383" x2="29.9098" y2="224.424" gradientUnits="userSpaceOnUse">
<stop stop-color="#09005D"/>
<stop offset="1" stop-color="#1A0F91"/>
</linearGradient>
<linearGradient id="paint12_linear_100_473" x1="59.4386" y1="217.505" x2="5.59566" y2="276.005" gradientUnits="userSpaceOnUse">
<stop stop-color="#09005D"/>
<stop offset="1" stop-color="#1A0F91"/>
</linearGradient>
<linearGradient id="paint13_linear_100_473" x1="36.83" y1="232.713" x2="40.9543" y2="232.713" gradientUnits="userSpaceOnUse">
<stop stop-color="#FEBBBA"/>
<stop offset="1" stop-color="#FF928E"/>
</linearGradient>
<linearGradient id="paint14_linear_100_473" x1="67.581" y1="156.359" x2="21.7552" y2="218.401" gradientUnits="userSpaceOnUse">
<stop stop-color="#09005D"/>
<stop offset="1" stop-color="#1A0F91"/>
</linearGradient>
<linearGradient id="paint15_linear_100_473" x1="51.4011" y1="128.732" x2="124.475" y2="2.9747" gradientUnits="userSpaceOnUse">
<stop stop-color="#4F52FF"/>
<stop offset="1" stop-color="#4042E2"/>
</linearGradient>
<linearGradient id="paint16_linear_100_473" x1="94.3449" y1="79.7336" x2="85.9" y2="103.835" gradientUnits="userSpaceOnUse">
<stop stop-color="#FEBBBA"/>
<stop offset="1" stop-color="#FF928E"/>
</linearGradient>
<linearGradient id="paint17_linear_100_473" x1="101.547" y1="82.2573" x2="93.1017" y2="106.358" gradientUnits="userSpaceOnUse">
<stop stop-color="#FEBBBA"/>
<stop offset="1" stop-color="#FF928E"/>
</linearGradient>
<linearGradient id="paint18_linear_100_473" x1="95.0715" y1="97.6601" x2="101.431" y2="84.8451" gradientUnits="userSpaceOnUse">
<stop stop-color="#FEBBBA"/>
<stop offset="1" stop-color="#FF928E"/>
</linearGradient>
<linearGradient id="paint19_linear_100_473" x1="36.2265" y1="119.914" x2="109.301" y2="-5.84332" gradientUnits="userSpaceOnUse">
<stop stop-color="#4F52FF"/>
<stop offset="1" stop-color="#4042E2"/>
</linearGradient>
<linearGradient id="paint20_linear_100_473" x1="20.3024" y1="142.803" x2="51.1855" y2="142.803" gradientUnits="userSpaceOnUse">
<stop stop-color="#FEBBBA"/>
<stop offset="1" stop-color="#FF928E"/>
</linearGradient>
<linearGradient id="paint21_linear_100_473" x1="48.8937" y1="139.563" x2="58.515" y2="139.563" gradientUnits="userSpaceOnUse">
<stop stop-color="#FEBBBA"/>
<stop offset="1" stop-color="#FF928E"/>
</linearGradient>
<linearGradient id="paint22_linear_100_473" x1="44.0164" y1="109.75" x2="56.2265" y2="109.75" gradientUnits="userSpaceOnUse">
<stop stop-color="#FEBBBA"/>
<stop offset="1" stop-color="#FF928E"/>
</linearGradient>
<linearGradient id="paint23_linear_100_473" x1="59.1327" y1="101.974" x2="45.6995" y2="93.7899" gradientUnits="userSpaceOnUse">
<stop stop-color="#FEBBBA"/>
<stop offset="1" stop-color="#FF928E"/>
</linearGradient>
<linearGradient id="paint24_linear_100_473" x1="38.5997" y1="85.1361" x2="55.9584" y2="98.8311" gradientUnits="userSpaceOnUse">
<stop stop-color="#09005D"/>
<stop offset="1" stop-color="#1A0F91"/>
</linearGradient>
<linearGradient id="paint25_linear_100_473" x1="55.6053" y1="105.031" x2="43.5193" y2="97.6681" gradientUnits="userSpaceOnUse">
<stop stop-color="#FEBBBA"/>
<stop offset="1" stop-color="#FF928E"/>
</linearGradient>
<clipPath id="clip0_100_473">
<rect width="239" height="243" fill="white"/>
</clipPath>
</defs>
</svg>
