<svg width="23" height="22" viewBox="0 0 23 22" fill="none" xmlns="http://www.w3.org/2000/svg">
<path d="M6.56833 9.89083C7.88833 12.485 10.015 14.6117 12.6092 15.9317L14.6258 13.915C14.8825 13.6583 15.24 13.585 15.5608 13.6858C16.5875 14.025 17.6875 14.2083 18.8333 14.2083C19.0764 14.2083 19.3096 14.3049 19.4815 14.4768C19.6534 14.6487 19.75 14.8819 19.75 15.125V18.3333C19.75 18.5764 19.6534 18.8096 19.4815 18.9815C19.3096 19.1534 19.0764 19.25 18.8333 19.25C14.7004 19.25 10.7367 17.6082 7.81425 14.6857C4.89181 11.7633 3.25 7.79962 3.25 3.66667C3.25 3.42355 3.34658 3.19039 3.51849 3.01849C3.69039 2.84658 3.92355 2.75 4.16667 2.75H7.375C7.61812 2.75 7.85127 2.84658 8.02318 3.01849C8.19509 3.19039 8.29167 3.42355 8.29167 3.66667C8.29167 4.8125 8.475 5.9125 8.81417 6.93917C8.915 7.26 8.84167 7.6175 8.585 7.87417L6.56833 9.89083Z" fill="#1F483B"/>
</svg>
