<svg width="569" height="475" viewBox="0 0 569 475" fill="none" xmlns="http://www.w3.org/2000/svg">
<g clip-path="url(#clip0_101_564)">
<g opacity="0.41">
<g filter="url(#filter0_d_101_564)">
<path d="M568.18 303.101C568.715 293.819 568.537 284.537 567.466 275.255C562.467 231.878 540.333 191.001 507.488 162.083C495.885 151.73 482.498 142.626 474.822 128.881C461.97 106.033 463.041 79.6141 447.154 57.1225C431.267 34.4525 408.061 16.7806 381.821 7.85535C303.815 -19.0988 194.57 24.8133 204.388 118.885C204.388 119.242 204.388 119.778 204.566 120.313C205.816 139.77 190.643 156.192 171.008 156.728C99.0703 158.513 37.1293 213.849 23.9199 284.18C15.3517 329.342 29.2751 378.966 62.4769 410.918C87.1105 434.838 120.312 447.868 153.336 456.972C219.739 475.001 289.713 478.75 358.08 471.967C422.163 465.54 489.816 447.154 531.229 397.709C553.542 371.29 566.216 337.553 568.18 303.101Z" fill="#F8FAF8"/>
</g>
</g>
<g opacity="0.88">
<path d="M508.917 307.563C509.274 300.245 509.095 292.926 508.381 285.786C504.454 251.87 487.139 219.739 461.434 197.069C452.331 189.037 441.799 181.718 435.908 171.186C425.912 153.336 426.626 132.629 414.131 114.957C401.636 97.2853 383.428 83.362 363.079 76.2218C302.03 54.9798 216.527 89.6097 224.202 163.153C224.202 163.332 224.202 163.867 224.381 164.224C225.452 179.576 213.492 192.428 198.141 192.785C141.733 194.035 93.1801 237.59 82.8268 292.569C76.2222 327.913 87.1109 366.827 112.994 391.817C132.273 410.56 158.334 420.735 184.217 427.875C236.162 441.977 290.963 445.012 344.693 439.657C394.852 434.659 447.868 420.2 480.356 381.464C497.492 360.936 507.31 334.518 508.917 307.563Z" fill="#D8E6E1"/>
</g>
<path opacity="0.8" d="M552.34 74.1251C554.591 64.6287 548.718 55.1049 539.222 52.8533C529.725 50.6017 520.202 56.4748 517.95 65.9712C515.698 75.4677 521.571 84.9913 531.068 87.2429C540.564 89.4945 550.088 83.6215 552.34 74.1251Z" fill="#DCE8E4"/>
<path opacity="0.8" d="M162.878 64.0708C170.825 56.1239 170.825 43.2394 162.878 35.2925C154.931 27.3456 142.047 27.3456 134.1 35.2925C126.153 43.2394 126.153 56.1239 134.1 64.0708C142.047 72.0177 154.931 72.0177 162.878 64.0708Z" fill="#DCE8E4"/>
<path opacity="0.8" d="M26.4206 468.04C41.0112 468.04 52.8392 456.212 52.8392 441.622C52.8392 427.031 41.0112 415.203 26.4206 415.203C11.83 415.203 0.00195312 427.031 0.00195312 441.622C0.00195312 456.212 11.83 468.04 26.4206 468.04Z" fill="#DCE8E4"/>
<path d="M89.255 172.791L189.931 273.468C209.567 293.103 241.519 293.103 261.155 273.468L273.114 261.508C277.577 257.045 277.577 249.548 273.114 245.086L232.058 204.03C227.596 199.567 220.099 199.567 215.636 204.03L195.108 224.558C193.502 226.164 190.824 226.164 189.217 224.558L139.593 174.576C137.987 172.97 137.987 170.471 139.593 168.864L159.764 148.693C164.227 144.231 164.227 136.733 159.764 132.271L117.637 89.9653C113.175 85.5027 105.856 85.5027 101.393 89.7868L89.969 100.854C69.6195 120.49 69.441 152.799 89.255 172.791Z" fill="#243762"/>
<path d="M92.4678 102.818L149.054 159.403L151.017 157.44L159.942 148.515C164.405 144.052 164.405 136.555 159.942 132.092L117.637 89.9653C113.174 85.5027 105.856 85.5027 101.393 89.7868L89.9688 100.854L92.4678 102.818Z" fill="#ECF1F7"/>
<path d="M149.053 160.654L91.9318 103.533L88.7188 100.855L100.857 89.0741C105.677 84.433 113.531 84.433 118.35 89.2526L160.477 131.38C165.297 136.199 165.297 144.232 160.477 149.052L149.053 160.654ZM91.2178 100.855L93.0028 102.283L148.875 158.155L159.049 147.981C161.013 146.017 162.263 143.339 162.263 140.305C162.263 137.449 161.192 134.771 159.049 132.629L117.101 90.6806C112.995 86.575 106.212 86.575 102.107 90.5021L91.2178 100.855Z" fill="#243762"/>
<path d="M207.424 215.989L264.01 272.575L265.973 270.612L274.899 261.687C279.361 257.224 279.361 249.727 274.899 245.264L232.772 203.137C228.309 198.675 220.99 198.675 216.528 202.959L205.104 214.026L207.424 215.989Z" fill="#ECF1F7"/>
<path d="M264.01 273.826L206.889 216.705L203.676 214.027L215.814 202.246C220.634 197.605 228.488 197.605 233.307 202.424L275.435 244.551C277.755 246.872 279.183 250.085 279.183 253.477C279.183 256.868 277.934 259.903 275.435 262.402L264.01 273.826ZM206.353 213.849L208.138 215.277L264.01 271.149L274.185 260.974C276.149 259.01 277.398 256.333 277.398 253.298C277.398 250.442 276.327 247.765 274.185 245.623L232.058 203.674C227.952 199.568 221.169 199.568 217.064 203.495L206.353 213.849Z" fill="#243762"/>
<path d="M131.204 131.559C131.025 131.559 130.668 131.559 130.49 131.381L96.217 96.9294C95.86 96.5724 95.86 96.0369 96.217 95.6799C96.574 95.3229 97.1095 95.3229 97.4665 95.6799L131.918 130.131C132.275 130.488 132.275 131.024 131.918 131.381C131.739 131.559 131.382 131.559 131.204 131.559Z" fill="#243762"/>
<path d="M268.296 268.65C268.118 268.65 267.761 268.65 267.582 268.471L233.131 233.841C232.774 233.484 232.774 232.949 233.131 232.592C233.488 232.235 234.024 232.235 234.381 232.592L268.832 267.043C269.189 267.4 269.189 267.936 268.832 268.293C268.653 268.471 268.475 268.65 268.296 268.65Z" fill="#243762"/>
<path d="M419.488 444.655L287.573 425.198C272.579 423.056 262.404 409.133 264.546 394.139L311.85 74.2589C313.992 59.2645 327.915 49.0897 342.91 51.2318L474.824 70.8673C489.819 73.0093 499.993 86.9327 497.851 101.927L450.548 421.807C448.227 436.623 434.304 446.976 419.488 444.655Z" fill="#243762"/>
<path d="M322.098 81.3082L277.441 383.254L441.128 407.463L485.785 105.517L322.098 81.3082Z" fill="#ECF1F7"/>
<path d="M322.21 81.2654L318.867 103.867L482.554 128.076L485.896 105.474L322.21 81.2654Z" fill="#90B8AB"/>
<path d="M356.656 424.842C356.12 424.842 355.585 424.842 355.049 424.663C352.193 424.306 349.694 422.7 348.087 420.379C346.302 418.059 345.767 415.202 346.124 412.525C346.481 409.669 348.087 407.17 350.408 405.563C352.729 403.778 355.585 403.064 358.262 403.6C361.118 403.957 363.617 405.563 365.224 407.884C367.009 410.204 367.544 413.06 367.187 415.738C366.295 420.915 361.832 424.842 356.656 424.842ZM356.477 405.206C354.514 405.206 352.729 405.742 351.122 406.991C349.159 408.419 347.909 410.561 347.552 412.882C347.195 415.202 347.73 417.523 349.159 419.487C350.587 421.45 352.729 422.7 355.049 423.057C359.869 423.771 364.51 420.379 365.224 415.559C365.581 413.239 365.045 410.918 363.617 408.955C362.189 406.991 360.047 405.742 357.727 405.385C357.37 405.206 357.013 405.206 356.477 405.206Z" fill="#ECF1F7"/>
<path d="M380.217 78.366C380.038 78.366 379.86 78.366 379.681 78.366C378.789 78.1875 377.896 77.8304 377.36 76.9379C376.825 76.2239 376.646 75.3314 376.646 74.4389C376.646 73.5463 377.182 72.6538 378.075 72.1183C378.789 71.5828 379.681 71.4043 380.574 71.4043C381.466 71.5828 382.359 71.9398 382.894 72.8323C383.43 73.5463 383.608 74.4389 383.608 75.3314C383.43 77.1164 382.002 78.366 380.217 78.366ZM380.217 73.1893C379.86 73.1893 379.503 73.3678 379.324 73.5463C378.967 73.7249 378.789 74.2604 378.61 74.6174C378.61 74.9744 378.61 75.5099 378.967 75.8669C379.146 76.2239 379.681 76.4024 380.038 76.5809C380.395 76.5809 380.931 76.5809 381.288 76.2239C381.645 76.0454 381.823 75.5099 382.002 75.1529C382.002 74.7959 382.002 74.2604 381.645 73.9034C381.466 73.5464 380.931 73.3678 380.574 73.1893C380.395 73.1893 380.395 73.1893 380.217 73.1893Z" fill="#ECF1F7"/>
<path d="M433.412 86.2191C433.234 86.2191 433.055 86.2191 432.877 86.2191L391.107 79.9714C390.214 79.7929 389.322 79.4359 388.786 78.5434C388.251 77.8294 388.072 76.9369 388.072 76.0443C388.251 75.1518 388.608 74.2593 389.5 73.7238C390.214 73.1883 391.107 73.0098 391.999 73.0098L433.769 79.2574C434.662 79.4359 435.554 79.7929 436.09 80.6854C436.625 81.3995 436.804 82.292 436.804 83.1845C436.625 84.077 436.268 84.9696 435.376 85.5051C434.84 86.0406 434.126 86.2191 433.412 86.2191ZM391.642 74.9733C390.75 74.9733 390.214 75.5088 390.036 76.4013C390.036 76.7584 390.036 77.2939 390.393 77.6509C390.571 78.0079 391.107 78.1864 391.464 78.3649L433.234 84.6125C434.126 84.7911 435.019 84.077 435.197 83.1845C435.197 82.8275 435.197 82.292 434.84 81.935C434.662 81.578 434.126 81.3995 433.769 81.221L391.821 74.9733C391.821 74.9733 391.821 74.9733 391.642 74.9733Z" fill="#ECF1F7"/>
<path d="M441.979 315.062L327.736 298.104C325.951 297.747 324.166 299.175 323.809 300.96L319.346 330.592C318.989 332.377 320.417 334.162 322.202 334.519L419.844 348.978L429.84 362.901L431.625 350.763L436.266 351.477C438.051 351.834 439.837 350.406 440.194 348.621L444.656 318.989C445.013 317.025 443.764 315.419 441.979 315.062Z" fill="#D5DED5"/>
<path d="M420.023 349.87C419.845 349.87 419.845 349.87 420.023 349.87L322.203 335.411C321.132 335.232 320.061 334.697 319.347 333.804C318.633 332.912 318.454 331.662 318.633 330.591L323.095 300.96C323.452 298.639 325.594 297.033 327.915 297.39L354.334 301.317C354.869 301.317 355.226 301.852 355.048 302.388C355.048 302.923 354.512 303.28 353.977 303.102L327.558 299.175C326.13 298.996 324.88 299.889 324.702 301.317L320.239 330.948C320.061 331.662 320.239 332.198 320.775 332.733C321.132 333.269 321.846 333.626 322.381 333.804L420.023 348.263C420.559 348.263 420.916 348.799 420.737 349.334C420.737 349.513 420.38 349.87 420.023 349.87Z" fill="#243762"/>
<path d="M460.01 192.249L345.767 175.291C343.982 174.934 342.197 176.362 341.84 178.147L337.377 207.779C337.02 209.564 338.448 211.349 340.233 211.706L437.875 226.165L447.872 240.088L449.657 227.95L454.298 228.664C456.083 229.021 457.868 227.593 458.225 225.808L462.687 196.176C463.223 194.213 461.973 192.606 460.01 192.249Z" fill="#D5DED5"/>
<path d="M448.763 242.411L437.696 227.06L340.411 212.601C338.09 212.244 336.484 210.102 336.841 207.781C336.841 207.246 337.376 206.889 337.912 207.067C338.447 207.067 338.804 207.603 338.626 208.138C338.447 208.852 338.626 209.388 339.161 209.923C339.518 210.459 340.232 210.816 340.768 210.994L438.767 225.453L447.692 237.948L449.298 227.06L454.832 227.952C455.546 228.131 456.082 227.952 456.617 227.417C457.153 227.06 457.51 226.346 457.688 225.81L460.544 206.175C460.544 205.639 461.08 205.282 461.615 205.46C462.151 205.46 462.508 205.996 462.329 206.532L459.473 226.167C459.295 227.238 458.759 228.309 457.867 229.023C456.974 229.737 455.725 229.916 454.654 229.737L450.905 229.202L448.763 242.411Z" fill="#243762"/>
<path d="M315.419 230.45L429.661 247.408C431.446 247.765 432.874 249.371 432.517 251.335L428.055 280.966C427.698 282.751 426.091 284.179 424.128 283.822L326.486 269.364L312.92 279.717L314.705 267.578L310.063 266.864C308.278 266.507 306.85 264.901 307.207 262.937L311.67 233.306C311.849 231.521 313.634 230.093 315.419 230.45Z" fill="#90B8AB"/>
<path d="M424.843 284.715C424.665 284.715 424.486 284.715 424.129 284.715L363.081 275.611C362.545 275.611 362.188 275.076 362.367 274.54C362.367 274.005 362.902 273.648 363.438 273.826L424.486 282.93C425.2 283.109 425.736 282.93 426.271 282.395C426.807 282.038 427.164 281.324 427.342 280.788L431.805 251.156C431.983 249.728 431.091 248.479 429.663 248.3C429.127 248.3 428.77 247.765 428.949 247.229C428.949 246.694 429.484 246.337 430.02 246.515C432.34 246.872 433.947 249.014 433.59 251.335L429.127 280.967C428.949 282.038 428.413 283.109 427.521 283.823C426.628 284.358 425.736 284.715 424.843 284.715Z" fill="#243762"/>
<path d="M281.5 355.516L277.4 383.238L441.087 407.447L445.187 379.725L281.5 355.516Z" fill="white"/>
<path d="M305.782 372.896C304.889 378.251 299.891 382.178 294.536 381.286C289.181 380.393 285.254 375.395 286.146 370.04C287.039 364.685 292.037 360.758 297.392 361.65C302.747 362.543 306.496 367.541 305.782 372.896Z" fill="#D5DED5"/>
<path opacity="0.33" d="M426.449 400.029C426.092 400.029 425.556 400.029 425.199 399.85L318.989 384.142C316.668 383.785 314.526 382.535 313.098 380.572C311.67 378.608 311.135 376.288 311.492 373.967C312.206 369.148 316.668 365.756 321.667 366.47L427.877 382.178C432.696 382.892 436.088 387.355 435.374 392.175C434.66 396.816 430.911 400.029 426.449 400.029ZM425.556 398.065C429.483 398.601 433.053 395.923 433.589 391.996C433.946 390.033 433.41 388.248 432.339 386.641C431.268 385.034 429.483 384.142 427.698 383.785L321.488 368.077C317.561 367.541 313.991 370.219 313.455 374.146C313.098 376.109 313.634 377.894 314.705 379.501C315.776 381.107 317.561 382 319.346 382.357L425.556 398.065Z" fill="#90B8AB"/>
<path d="M332.378 97.4636C332.2 97.4636 332.021 97.4636 331.842 97.4636C329.879 97.1066 328.629 95.3216 328.808 93.5365C328.986 92.644 329.522 91.7515 330.236 91.216C330.95 90.6805 331.843 90.502 332.914 90.502C334.877 90.859 336.127 92.644 335.948 94.429C335.591 96.2141 333.985 97.4636 332.378 97.4636ZM332.378 92.287C332.021 92.287 331.664 92.4655 331.307 92.644C330.95 93.001 330.771 93.358 330.593 93.715C330.593 94.2505 330.593 94.6076 330.95 94.9646C331.307 95.3216 331.664 95.5001 332.021 95.6786C332.914 95.8571 333.806 95.1431 333.985 94.2505C333.985 93.715 333.985 93.358 333.628 93.001C333.271 92.644 332.914 92.4655 332.557 92.287C332.557 92.287 332.378 92.287 332.378 92.287Z" fill="white"/>
<path d="M342.017 98.8926C341.838 98.8926 341.66 98.8926 341.481 98.8926C339.518 98.5356 338.268 96.7506 338.447 94.9656C338.804 93.002 340.589 91.7525 342.374 91.931C343.266 92.1095 344.159 92.4665 344.694 93.359C345.23 94.073 345.408 94.9655 345.408 96.0366C345.23 96.9291 344.694 97.8216 343.98 98.3571C343.445 98.7141 342.731 98.8926 342.017 98.8926ZM342.017 93.716C341.124 93.716 340.41 94.2515 340.41 95.1441C340.41 95.6796 340.41 96.0366 340.767 96.3936C341.124 96.7506 341.481 96.9291 341.838 97.1076C342.374 97.1076 342.731 97.1076 343.088 96.7506C343.445 96.3936 343.623 96.0366 343.802 95.6796C343.802 95.1441 343.802 94.787 343.445 94.43C343.088 94.073 342.731 93.8945 342.374 93.716C342.195 93.716 342.017 93.716 342.017 93.716Z" fill="white"/>
<path d="M351.478 100.32C351.299 100.32 351.121 100.32 350.942 100.32C348.979 99.9634 347.729 98.1783 348.086 96.3933C348.443 94.4297 350.228 93.1802 352.013 93.3587C353.977 93.7157 355.226 95.5008 355.048 97.2858C354.691 99.0708 353.084 100.32 351.478 100.32ZM351.478 95.1438C351.121 95.1438 350.764 95.3223 350.407 95.5008C350.05 95.8578 349.871 96.2148 349.693 96.5718C349.693 97.1073 349.693 97.4643 350.05 97.8213C350.407 98.1783 350.764 98.3568 351.121 98.5353C352.013 98.7138 352.906 97.9998 353.084 97.1073C353.263 96.2148 352.549 95.3223 351.656 95.1438C351.656 95.1438 351.478 95.1438 351.478 95.1438Z" fill="white"/>
<path d="M484.821 129.237C484.821 129.237 484.643 129.237 484.821 129.237L333.092 106.746C332.557 106.746 332.2 106.21 332.378 105.675C332.378 105.139 332.914 104.782 333.45 104.96L485 127.452C485.535 127.452 485.892 127.988 485.714 128.523C485.535 129.059 485.178 129.237 484.821 129.237Z" fill="#243762"/>
<path d="M421.63 321.844C421.451 321.844 421.451 321.844 421.63 321.844L340.589 309.884C340.053 309.884 339.696 309.349 339.875 308.813C339.875 308.278 340.41 307.921 340.946 308.099L421.808 320.059C422.344 320.059 422.701 320.594 422.522 321.13C422.344 321.487 421.987 321.844 421.63 321.844Z" fill="white"/>
<path d="M373.612 324.701L339.161 319.525C338.625 319.525 338.268 318.989 338.447 318.454C338.447 317.918 338.982 317.561 339.518 317.74L373.969 322.916C374.505 322.916 374.862 323.452 374.683 323.987C374.505 324.344 374.148 324.701 373.612 324.701Z" fill="white"/>
<path d="M362.01 332.198L337.733 328.628C337.198 328.628 336.841 328.093 337.019 327.557C337.019 327.022 337.555 326.665 338.09 326.843L362.188 330.413C362.724 330.413 363.081 330.949 362.902 331.484C362.902 331.841 362.545 332.198 362.01 332.198Z" fill="white"/>
<path d="M420.202 331.483C420.202 331.483 420.023 331.483 420.202 331.483L384.501 326.128C383.965 326.128 383.608 325.593 383.787 325.057C383.787 324.522 384.322 324.165 384.858 324.343L420.38 329.52C420.916 329.52 421.273 330.055 421.094 330.591C420.916 331.305 420.559 331.483 420.202 331.483Z" fill="white"/>
<path d="M411.633 254.727L330.592 242.767C330.057 242.767 329.7 242.232 329.878 241.696C329.878 241.16 330.414 240.803 330.949 240.982L411.812 252.942C412.347 252.942 412.704 253.477 412.526 254.013C412.526 254.37 412.169 254.727 411.633 254.727Z" fill="white"/>
<path d="M363.795 257.582L329.165 252.406C328.629 252.406 328.272 251.87 328.451 251.335C328.451 250.799 328.986 250.442 329.522 250.621L363.973 255.797C364.509 255.797 364.866 256.333 364.687 256.868C364.687 257.225 364.33 257.582 363.795 257.582Z" fill="white"/>
<path d="M399.674 272.041C399.495 272.041 399.495 272.041 399.674 272.041L329.7 261.152C329.164 261.152 328.807 260.616 328.986 260.081C328.986 259.545 329.521 259.188 330.057 259.367L399.852 270.255C400.388 270.255 400.745 270.791 400.566 271.327C400.388 271.684 400.031 272.041 399.674 272.041Z" fill="white"/>
<path d="M410.205 264.366L374.505 259.011C373.969 259.011 373.612 258.476 373.791 257.94C373.791 257.405 374.326 257.048 374.862 257.226L410.384 262.403C410.919 262.403 411.276 262.938 411.098 263.474C411.098 264.009 410.741 264.366 410.205 264.366Z" fill="white"/>
<path d="M330.057 119.065L444.3 136.023C446.085 136.38 447.513 137.986 447.156 139.95L442.693 169.581C442.336 171.366 440.73 172.794 438.766 172.437L341.125 157.979L327.558 168.332L329.343 156.194L324.702 155.48C322.917 155.123 321.489 153.516 321.846 151.552L326.309 121.921C326.487 119.957 328.272 118.708 330.057 119.065Z" fill="#90B8AB"/>
<path d="M442.872 170.293C442.337 170.293 441.98 169.758 441.98 169.222L446.443 139.59C446.621 138.876 446.443 138.341 445.907 137.805C445.55 137.27 444.836 136.913 444.3 136.734L373.434 126.203C372.899 126.203 372.542 125.667 372.72 125.132C372.72 124.596 373.256 124.239 373.791 124.418L444.658 134.949C445.729 135.128 446.8 135.663 447.514 136.556C448.228 137.448 448.406 138.698 448.228 139.769L443.765 169.579C443.765 169.936 443.229 170.293 442.872 170.293Z" fill="#243762"/>
<path d="M426.45 143.34C426.271 143.34 426.271 143.34 426.45 143.34L345.409 131.38C344.873 131.38 344.516 130.845 344.695 130.309C344.695 129.774 345.23 129.417 345.766 129.595L426.628 141.555C427.164 141.555 427.521 142.091 427.342 142.626C427.164 142.983 426.807 143.34 426.45 143.34Z" fill="white"/>
<path d="M378.432 146.196L343.981 141.019C343.446 141.019 343.089 140.483 343.267 139.948C343.267 139.412 343.803 139.055 344.338 139.234L378.789 144.411C379.325 144.411 379.682 144.946 379.504 145.482C379.325 145.839 378.968 146.196 378.432 146.196Z" fill="white"/>
<path d="M414.312 160.654C414.134 160.654 414.134 160.654 414.312 160.654L344.339 149.765C343.803 149.765 343.446 149.23 343.625 148.694C343.625 148.159 344.16 147.802 344.696 147.98L414.491 158.869C415.026 158.869 415.383 159.404 415.205 159.94C415.026 160.297 414.669 160.654 414.312 160.654Z" fill="white"/>
<path d="M425.022 152.98C424.843 152.98 424.843 152.98 425.022 152.98L389.321 147.624C388.786 147.624 388.428 147.089 388.607 146.553C388.607 146.018 389.143 145.661 389.678 145.839L425.2 151.016C425.736 151.016 426.093 151.552 425.914 152.087C425.736 152.623 425.379 152.98 425.022 152.98Z" fill="white"/>
<path d="M439.838 200.283C439.838 200.283 439.66 200.283 439.838 200.283L358.798 188.324C358.262 188.324 357.905 187.788 358.084 187.253C358.084 186.717 358.619 186.36 359.155 186.539L440.017 198.498C440.553 198.498 440.91 199.034 440.731 199.569C440.553 199.926 440.196 200.283 439.838 200.283Z" fill="white"/>
<path d="M392 202.961C391.821 202.961 391.821 202.961 392 202.961L357.37 197.785C356.834 197.785 356.477 197.249 356.656 196.714C356.656 196.178 357.191 195.821 357.727 196L392.178 201.176C392.714 201.176 393.071 201.712 392.892 202.247C392.714 202.604 392.357 202.961 392 202.961Z" fill="white"/>
<path d="M380.394 210.458C380.216 210.458 380.216 210.458 380.394 210.458L356.118 206.888C355.582 206.888 355.225 206.353 355.404 205.817C355.404 205.282 355.939 204.925 356.475 205.103L380.573 208.673C381.108 208.673 381.465 209.209 381.287 209.744C381.108 210.101 380.751 210.458 380.394 210.458Z" fill="white"/>
<path d="M438.411 209.923C438.411 209.923 438.232 209.923 438.411 209.923L402.71 204.568C402.174 204.568 401.817 204.032 401.996 203.497C401.996 202.961 402.531 202.604 403.067 202.783L438.589 207.959C439.125 207.959 439.482 208.495 439.303 209.03C439.125 209.566 438.768 209.923 438.411 209.923Z" fill="white"/>
<path d="M275.257 417.344L92.1112 437.872C88.5411 438.229 85.328 435.73 84.971 432.16L71.7617 314.704C71.7617 314.525 71.9402 314.347 72.1187 314.347L267.402 292.391C267.581 292.391 267.759 292.569 267.759 292.748L280.969 410.203C281.326 413.774 278.827 416.808 275.257 417.344Z" fill="#F7A9B4"/>
<path d="M91.3971 438.944C87.6485 438.944 84.614 436.266 84.0785 432.518L70.8691 315.062C70.8691 314.348 71.2261 313.812 71.9402 313.634L267.224 291.678C267.938 291.678 268.473 292.035 268.652 292.749L281.861 410.205C282.04 412.168 281.504 413.953 280.255 415.56C279.005 416.988 277.399 418.059 275.435 418.237L92.1111 438.765C91.9326 438.765 91.5756 438.944 91.3971 438.944ZM72.6542 315.419L85.8635 432.339C86.2205 435.374 88.8981 437.516 91.9326 437.159L275.257 416.452L275.435 417.345L275.257 416.452C276.685 416.274 277.934 415.56 279.005 414.489C279.898 413.418 280.255 411.99 280.076 410.383L266.867 293.463L72.6542 315.419Z" fill="#243762"/>
<path opacity="0.29" d="M266.688 417.345L101.036 438.051C97.4663 438.408 152.446 368.078 151.91 364.508L71.7617 314.883C71.7617 314.705 71.9402 314.526 72.1187 314.526L267.402 292.57C267.581 292.57 267.759 292.749 267.759 292.927L200.999 358.974C201.356 362.366 270.259 416.809 266.688 417.345Z" fill="#243762"/>
<path d="M72.1168 314.527L152.801 234.736C157.62 229.916 165.118 229.024 170.83 232.594L266.865 292.214C267.044 292.393 267.044 292.571 266.865 292.571L71.7598 314.527" fill="#F7A9B4"/>
<path d="M71.7594 315.419L71.5808 314.169L71.4023 313.991L71.5808 313.812L152.086 234.199C157.263 229.201 165.117 228.13 171.186 232.057L267.222 291.678C267.579 291.856 267.757 292.392 267.757 292.927C267.579 293.463 267.222 293.641 266.865 293.82L71.7594 315.419ZM163.154 231.343C159.583 231.343 156.192 232.771 153.514 235.271L74.6154 313.277L264.723 291.856L170.472 233.307C168.152 231.879 165.653 231.343 163.154 231.343Z" fill="#243762"/>
<path opacity="0.29" d="M72.1187 314.527L152.803 234.736C157.622 229.916 165.119 229.024 170.832 232.594L266.867 292.214C267.045 292.393 267.045 292.571 266.867 292.571L71.7617 314.527" fill="#243762"/>
<path d="M161.725 352.192L101.033 436.624L266.685 417.882L188.679 348.979C180.646 341.839 168.151 343.267 161.725 352.192Z" fill="#F7A9B4"/>
<path d="M99.25 437.695L161.012 351.656L161.727 352.192L161.012 351.656C164.226 347.194 169.045 344.337 174.4 343.802C179.755 343.266 185.289 344.873 189.216 348.443L268.651 418.595L99.25 437.695ZM176.721 345.408C176.007 345.408 175.471 345.408 174.757 345.587C169.938 346.122 165.475 348.8 162.619 352.727L102.999 435.553L264.724 417.346L188.324 349.871C184.932 347.015 180.826 345.408 176.721 345.408Z" fill="#243762"/>
<path d="M81.9355 256.691L209.566 242.232C217.956 241.339 225.453 246.338 226.167 253.656L234.378 326.486L198.856 359.152L151.909 364.507L105.498 335.59L97.4654 265.08L81.9355 256.691Z" fill="white"/>
<path d="M151.73 365.401L104.784 335.948L96.9293 265.439L84.791 255.443L209.566 241.341C213.85 240.805 217.955 241.876 221.347 244.197C224.738 246.517 226.702 249.909 227.237 253.657L235.449 326.844L199.391 360.046L151.73 365.401ZM106.569 334.877L152.266 363.438L198.498 358.261L233.485 326.13L225.274 253.836C224.917 250.623 223.132 247.767 220.097 245.625C217.063 243.661 213.314 242.769 209.566 243.126L84.791 257.228L98.3573 264.368L106.569 334.877Z" fill="#243762"/>
<path opacity="0.29" d="M161.727 344.871L101.035 436.623L266.687 417.88L188.681 341.837C180.648 334.697 168.153 335.946 161.727 344.871Z" fill="#243762"/>
<path d="M161.725 352.192L101.033 436.624L266.685 417.882L188.679 348.979C180.646 341.839 168.151 343.267 161.725 352.192Z" fill="#F7A9B4"/>
<path d="M99.25 437.695L161.012 351.656L161.727 352.192L161.012 351.656C164.226 347.194 169.045 344.337 174.4 343.802C179.755 343.266 185.289 344.873 189.216 348.443L268.651 418.595L99.25 437.695ZM176.721 345.408C176.007 345.408 175.471 345.408 174.757 345.587C169.938 346.122 165.475 348.8 162.619 352.727L102.999 435.553L264.724 417.346L188.324 349.871C184.932 347.015 180.826 345.408 176.721 345.408Z" fill="#243762"/>
<path opacity="0.35" d="M167.618 370.756L122.992 432.697L244.732 418.953L187.432 368.614C181.542 363.259 172.259 364.33 167.618 370.756Z" fill="#ECF1F7"/>
<path d="M72.6882 313.944L71.7441 315.459L151.583 365.214L152.527 363.699L72.6882 313.944Z" fill="#243762"/>
<path d="M267.064 292.018L200.311 358.311L201.568 359.577L268.322 293.285L267.064 292.018Z" fill="#243762"/>
<path d="M101.214 297.388L79.0795 299.888L75.5094 268.114C74.7954 262.223 79.0795 256.868 84.9702 256.332L86.0412 256.154C91.9318 255.44 97.287 259.724 97.8225 265.615L101.214 297.388Z" fill="#ECF1F7"/>
<path d="M78.1869 300.96L74.4384 268.293C74.0814 265.259 74.9739 262.224 76.9374 259.725C78.901 257.226 81.5785 255.798 84.6131 255.441L85.6841 255.263C88.7187 254.906 91.7533 255.798 94.2523 257.762C96.7514 259.725 98.1794 262.403 98.5364 265.437L102.285 298.104L78.1869 300.96ZM87.1122 257.048C86.7552 257.048 86.3981 257.048 86.0411 257.048L84.9701 257.226C82.2925 257.583 79.972 258.833 78.3655 260.796C76.7589 262.76 76.0449 265.437 76.2234 267.936L79.615 298.818L100.143 296.497L96.5729 265.616C96.2159 262.938 94.9664 260.618 93.0028 259.011C91.3963 257.762 89.2542 257.048 87.1122 257.048Z" fill="#243762"/>
<path d="M116.389 280.968C115.853 280.968 115.496 280.611 115.496 280.254C115.496 279.719 115.853 279.362 116.21 279.183L208.675 268.83C209.211 268.83 209.568 269.187 209.746 269.544C209.746 270.08 209.389 270.437 209.032 270.615L116.389 280.968Z" fill="#243762"/>
<path d="M119.957 312.384C119.421 312.384 119.064 312.027 119.064 311.67C119.064 311.135 119.421 310.778 119.778 310.599L212.244 300.246C212.779 300.246 213.136 300.603 213.315 300.96C213.315 301.496 212.958 301.853 212.601 302.031L119.957 312.384Z" fill="#243762"/>
<path d="M118.172 296.498C117.636 296.498 117.279 296.141 117.279 295.784C117.279 295.248 117.636 294.891 117.993 294.713L157.978 290.25C158.514 290.25 158.871 290.607 159.049 290.964C159.049 291.5 158.692 291.857 158.335 292.035L118.172 296.498Z" fill="#243762"/>
<path d="M168.512 290.784C167.976 290.784 167.619 290.427 167.619 290.07C167.619 289.535 167.976 289.178 168.333 288.999L210.46 284.18C210.996 284.18 211.353 284.537 211.531 284.894C211.531 285.429 211.174 285.786 210.817 285.965L168.512 290.784C168.69 290.784 168.69 290.784 168.512 290.784Z" fill="#243762"/>
<path d="M121.92 330.234C121.384 330.234 121.027 329.877 121.027 329.52C121.027 328.984 121.384 328.627 121.741 328.449L161.726 323.986C162.262 323.986 162.619 324.343 162.797 324.7C162.797 325.236 162.44 325.593 162.083 325.771L121.92 330.234C121.92 330.234 122.098 330.234 121.92 330.234Z" fill="#243762"/>
</g>
<defs>
<filter id="filter0_d_101_564" x="13.4492" y="-7.98242" width="563.023" height="491.109" filterUnits="userSpaceOnUse" color-interpolation-filters="sRGB">
<feFlood flood-opacity="0" result="BackgroundImageFix"/>
<feColorMatrix in="SourceAlpha" type="matrix" values="0 0 0 0 0 0 0 0 0 0 0 0 0 0 0 0 0 0 127 0" result="hardAlpha"/>
<feOffset/>
<feGaussianBlur stdDeviation="4"/>
<feComposite in2="hardAlpha" operator="out"/>
<feColorMatrix type="matrix" values="0 0 0 0 0 0 0 0 0 0 0 0 0 0 0 0 0 0 0.25 0"/>
<feBlend mode="normal" in2="BackgroundImageFix" result="effect1_dropShadow_101_564"/>
<feBlend mode="normal" in="SourceGraphic" in2="effect1_dropShadow_101_564" result="shape"/>
</filter>
<clipPath id="clip0_101_564">
<rect width="568.358" height="475" fill="white"/>
</clipPath>
</defs>
</svg>
