<svg width="28" height="28" viewBox="0 0 28 28" fill="none" xmlns="http://www.w3.org/2000/svg">
<path d="M14.0007 2.38086C7.58398 2.38086 2.33398 7.61919 2.33398 14.0709C2.33398 19.9042 6.60398 24.7459 12.1807 25.6209V17.4542H9.21732V14.0709H12.1807V11.4925C12.1807 8.56419 13.919 6.95419 16.5907 6.95419C17.8623 6.95419 19.1923 7.17586 19.1923 7.17586V10.0575H17.7223C16.2757 10.0575 15.8207 10.9559 15.8207 11.8775V14.0709H19.064L18.539 17.4542H15.8207V25.6209C18.5698 25.1867 21.0732 23.784 22.8789 21.6659C24.6846 19.5479 25.6736 16.8541 25.6673 14.0709C25.6673 7.61919 20.4173 2.38086 14.0007 2.38086Z" fill="#1F483B"/>
</svg>
