<svg width="29" height="28" viewBox="0 0 29 28" fill="none" xmlns="http://www.w3.org/2000/svg">
<path d="M9.76667 2.33398H19.5667C23.3 2.33398 26.3333 5.36732 26.3333 9.10065V18.9007C26.3333 20.6953 25.6204 22.4164 24.3514 23.6854C23.0824 24.9544 21.3613 25.6673 19.5667 25.6673H9.76667C6.03333 25.6673 3 22.634 3 18.9007V9.10065C3 7.30602 3.71291 5.58489 4.98191 4.3159C6.25091 3.0469 7.97204 2.33398 9.76667 2.33398M9.53333 4.66732C8.41942 4.66732 7.35114 5.10982 6.56349 5.89747C5.77583 6.68512 5.33333 7.75341 5.33333 8.86732V19.134C5.33333 21.4557 7.21167 23.334 9.53333 23.334H19.8C20.9139 23.334 21.9822 22.8915 22.7699 22.1038C23.5575 21.3162 24 20.2479 24 19.134V8.86732C24 6.54565 22.1217 4.66732 19.8 4.66732H9.53333ZM20.7917 6.41732C21.1784 6.41732 21.5494 6.57096 21.8229 6.84445C22.0964 7.11794 22.25 7.48888 22.25 7.87565C22.25 8.26243 22.0964 8.63336 21.8229 8.90685C21.5494 9.18034 21.1784 9.33398 20.7917 9.33398C20.4049 9.33398 20.034 9.18034 19.7605 8.90685C19.487 8.63336 19.3333 8.26243 19.3333 7.87565C19.3333 7.48888 19.487 7.11794 19.7605 6.84445C20.034 6.57096 20.4049 6.41732 20.7917 6.41732ZM14.6667 8.16732C16.2138 8.16732 17.6975 8.7819 18.7915 9.87586C19.8854 10.9698 20.5 12.4536 20.5 14.0007C20.5 15.5477 19.8854 17.0315 18.7915 18.1254C17.6975 19.2194 16.2138 19.834 14.6667 19.834C13.1196 19.834 11.6358 19.2194 10.5419 18.1254C9.44792 17.0315 8.83333 15.5477 8.83333 14.0007C8.83333 12.4536 9.44792 10.9698 10.5419 9.87586C11.6358 8.7819 13.1196 8.16732 14.6667 8.16732M14.6667 10.5007C13.7384 10.5007 12.8482 10.8694 12.1918 11.5258C11.5354 12.1822 11.1667 13.0724 11.1667 14.0007C11.1667 14.9289 11.5354 15.8191 12.1918 16.4755C12.8482 17.1319 13.7384 17.5007 14.6667 17.5007C15.5949 17.5007 16.4852 17.1319 17.1415 16.4755C17.7979 15.8191 18.1667 14.9289 18.1667 14.0007C18.1667 13.0724 17.7979 12.1822 17.1415 11.5258C16.4852 10.8694 15.5949 10.5007 14.6667 10.5007Z" fill="#1F483B"/>
</svg>
