<svg width="404" height="309" viewBox="0 0 404 309" fill="none" xmlns="http://www.w3.org/2000/svg">
<g clip-path="url(#clip0_63_442)">
<path d="M162.5 87.8008C152 87.8008 142.5 92.3008 135.9 99.5008C134.4 99.1008 132.9 98.9008 131.3 98.9008C121.4 98.9008 113.4 106.401 112.4 116.001C99.0004 120.201 89.3004 132.801 89.3004 147.601C89.3004 149.701 89.5004 151.701 89.9004 153.701C78.0004 159.701 69.9004 171.901 69.9004 186.001C69.9004 197.601 75.4004 207.901 83.9004 214.501C82.6004 218.201 81.9004 222.301 81.9004 226.401C81.9004 243.101 93.2004 257.101 108.6 261.201C108.5 262.001 108.4 262.901 108.4 263.801C108.4 274.301 116.9 282.801 127.4 282.801C128.9 282.801 130.3 282.601 131.7 282.301C138 292.601 149.4 299.501 162.4 299.501C195.4 299.501 198.4 270.801 198.4 270.801V123.801C198.5 104.001 182.4 87.8008 162.5 87.8008Z" fill="#DD799A"/>
<path opacity="0.6" d="M158.9 142.3C170.995 142.3 180.8 133.838 180.8 123.4C180.8 112.962 170.995 104.5 158.9 104.5C146.805 104.5 137 112.962 137 123.4C137 133.838 146.805 142.3 158.9 142.3Z" fill="#DC8CA6"/>
<path opacity="0.62" d="M133.001 199.301C128.601 197.301 126.001 192.801 126.201 188.001C126.201 187.601 126.201 187.201 126.201 186.801C126.201 183.401 125.501 180.201 124.301 177.301C122.801 173.701 123.301 169.701 125.501 166.501C128.601 161.901 130.501 155.801 130.501 149.101C130.501 135.001 122.201 123.701 112.001 123.701C101.801 123.701 93.5012 135.101 93.5012 149.101C93.5012 153.701 94.4012 158.001 96.0012 161.801C83.6012 163.801 74.2012 174.301 74.2012 186.901C74.2012 198.601 82.3012 208.501 93.4012 211.501C90.6012 216.001 89.1012 221.301 89.1012 227.001C89.1012 243.701 103.001 257.301 120.101 257.301C137.201 257.301 151.101 243.701 151.101 227.001C151.101 214.701 143.701 204.101 133.001 199.301Z" fill="#DC8CA6"/>
<path d="M181.7 115.601C183.8 119.401 184.7 123.601 184.7 127.901V217.001C184.7 255.101 144.1 280.001 110.4 262.201C109.8 261.901 109.2 261.601 108.6 261.201V266.201C109.8 275.501 117.8 282.701 127.4 282.701C128.9 282.701 130.3 282.501 131.7 282.201C138 292.501 149.4 299.401 162.4 299.401C195.4 299.401 198.4 270.701 198.4 270.701V123.801C198.4 103.901 182.3 87.8008 162.4 87.8008C151.9 87.8008 142.4 92.3008 135.8 99.5008C135.9 99.6008 170.4 95.2008 181.7 115.601Z" fill="#E392AD"/>
<path d="M121.401 181.3C121.501 190.8 129.301 198.5 138.801 198.5C140.001 198.5 141.001 197.5 141.001 196.3C141.001 195.1 140.001 194.1 138.801 194.1C131.701 194.1 125.901 188.3 125.901 181.2C125.901 174.1 131.701 168.3 138.801 168.3C140.001 168.3 141.001 167.3 141.001 166.1C141.001 164.9 140.001 163.9 138.801 163.9C130.701 163.9 123.901 169.5 121.901 177.1C106.401 176.7 93.3012 166 89.4012 151.5C89.5012 152.3 89.6012 153.2 89.8012 154C88.6012 154.6 87.4012 155.3 86.2012 156.1C91.6012 170.3 105.301 180.7 121.401 181.3Z" fill="#A55E75"/>
<path d="M102.7 211.301C103.9 211.601 105.1 210.801 105.3 209.601C105.6 208.401 104.8 207.201 103.6 207.001C95.6004 205.301 87.5004 207.401 81.4004 212.401C82.2004 213.201 83.1004 213.901 84.0004 214.601C83.8004 215.301 83.6004 216.001 83.4004 216.701C88.5004 211.801 95.7004 209.801 102.7 211.301Z" fill="#A55E75"/>
<path d="M126.801 254.8C128.001 255 129.201 254.3 129.401 253.1C129.601 251.9 128.901 250.7 127.701 250.5C122.201 249.4 116.801 250.7 112.601 253.7C107.001 248.9 104.401 241.6 105.901 234.3C106.101 233.1 105.401 231.9 104.201 231.7C103.001 231.5 101.801 232.2 101.601 233.4C99.8011 242.1 102.801 250.9 109.301 256.7C108.201 257.9 107.301 259.2 106.601 260.7C107.301 261 108.101 261.2 108.901 261.4C108.801 262.2 108.701 263.1 108.701 264C108.701 265.1 108.801 266.2 109.001 267.3C109.101 267.1 109.201 267 109.201 266.8C110.601 258.4 118.601 253.1 126.801 254.8Z" fill="#A55E75"/>
<path d="M161 255.701C162.2 255.701 163.2 254.701 163.2 253.501C163.2 252.301 162.2 251.301 161 251.301C143.9 251.301 129.9 265.201 129.9 282.401C129.9 282.501 129.9 282.601 129.9 282.701C130.5 282.601 131.2 282.501 131.8 282.401C132.7 283.801 133.6 285.101 134.7 286.401C134.5 285.101 134.4 283.801 134.4 282.401C134.4 267.701 146.3 255.701 161 255.701Z" fill="#A55E75"/>
<path d="M107.801 140.7C107.801 141.9 108.801 142.9 110.001 142.9C111.201 142.9 112.201 141.9 112.201 140.7C112.201 136.8 113.901 133.1 116.801 130.6C120.701 134.2 125.901 136.3 131.601 136.3C132.801 136.3 133.801 135.3 133.801 134.1C133.801 132.9 132.801 131.9 131.601 131.9C121.901 131.9 114.001 124 114.001 114.3C114.001 113.5 113.601 112.9 113.001 112.4C112.601 113.6 112.401 114.8 112.201 116.1C111.301 116.4 110.501 116.7 109.701 117C110.201 120.8 111.601 124.3 113.701 127.2C110.001 130.6 107.801 135.5 107.801 140.7Z" fill="#A55E75"/>
<path d="M150.701 121.201C144.201 126.401 140.101 134.301 140.101 143.201C140.101 144.401 141.101 145.401 142.301 145.401C143.501 145.401 144.501 144.401 144.501 143.201C144.501 130.101 155.201 119.401 168.301 119.401C169.501 119.401 170.501 118.401 170.501 117.201C170.501 116.001 169.501 115.001 168.301 115.001C164.201 115.001 160.301 115.901 156.801 117.501C156.701 117.501 156.601 117.501 156.501 117.501C146.201 117.501 137.801 109.101 137.801 98.8008C137.801 98.5008 137.701 98.1008 137.601 97.8008C137.001 98.3008 136.501 98.9008 135.901 99.5008C135.101 99.3008 134.201 99.1008 133.301 99.0008C133.501 109.801 140.801 118.701 150.701 121.201Z" fill="#A55E75"/>
<path d="M169.2 209.301C169 208.101 167.8 207.301 166.6 207.501C165.4 207.701 164.6 208.901 164.8 210.101C168.1 227.601 181.4 241.301 198.5 245.201V240.601C183.6 236.901 172.1 224.701 169.2 209.301Z" fill="#A55E75"/>
<path d="M174.501 159.6C174.201 159.6 173.901 159.6 173.601 159.6C173.401 158.8 173.401 158.1 173.401 157.3C173.401 151 178.601 145.8 184.901 145.8C186.101 145.8 187.101 144.8 187.101 143.6C187.101 142.4 186.101 141.4 184.901 141.4C176.101 141.4 168.901 148.6 168.901 157.4C168.901 158.3 169.001 159.3 169.201 160.2C162.201 161.5 156.001 165.4 151.601 171.2C150.901 172.2 151.101 173.6 152.001 174.3C153.001 175 154.401 174.8 155.101 173.9C159.701 167.7 166.801 164.2 174.501 164.2C186.601 164.2 196.701 173.2 198.501 184.8V172.6C193.301 164.7 184.501 159.6 174.501 159.6Z" fill="#A55E75"/>
<path d="M180.201 276.5C180.201 273.9 181.001 271.4 182.601 269.4C183.401 268.4 183.201 267 182.201 266.3C181.201 265.5 179.801 265.7 179.101 266.7C176.901 269.5 175.701 272.9 175.701 276.5C175.701 283.6 180.301 289.7 186.801 291.8C188.201 290.6 189.501 289.4 190.601 288.1H190.501C184.601 287.4 180.201 282.4 180.201 276.5Z" fill="#A55E75"/>
<path d="M121.401 181.3C121.501 190.8 129.301 198.5 138.801 198.5C140.001 198.5 141.001 197.5 141.001 196.3C141.001 195.1 140.001 194.1 138.801 194.1C131.701 194.1 125.901 188.3 125.901 181.2C125.901 174.1 131.701 168.3 138.801 168.3C140.001 168.3 141.001 167.3 141.001 166.1C141.001 164.9 140.001 163.9 138.801 163.9C130.701 163.9 123.901 169.5 121.901 177.1C106.401 176.7 93.3012 166 89.4012 151.5C89.5012 152.3 89.6012 153.2 89.8012 154C88.6012 154.6 87.4012 155.3 86.2012 156.1C91.6012 170.3 105.301 180.7 121.401 181.3Z" fill="#A55E75"/>
<path d="M102.7 211.301C103.9 211.601 105.1 210.801 105.3 209.601C105.6 208.401 104.8 207.201 103.6 207.001C95.6004 205.301 87.5004 207.401 81.4004 212.401C82.2004 213.201 83.1004 213.901 84.0004 214.601C83.8004 215.301 83.6004 216.001 83.4004 216.701C88.5004 211.801 95.7004 209.801 102.7 211.301Z" fill="#A55E75"/>
<path d="M126.801 254.8C128.001 255 129.201 254.3 129.401 253.1C129.601 251.9 128.901 250.7 127.701 250.5C122.201 249.4 116.801 250.7 112.601 253.7C107.001 248.9 104.401 241.6 105.901 234.3C106.101 233.1 105.401 231.9 104.201 231.7C103.001 231.5 101.801 232.2 101.601 233.4C99.8011 242.1 102.801 250.9 109.301 256.7C108.201 257.9 107.301 259.2 106.601 260.7C107.301 261 108.101 261.2 108.901 261.4C108.801 262.2 108.701 263.1 108.701 264C108.701 265.1 108.801 266.2 109.001 267.3C109.101 267.1 109.201 267 109.201 266.8C110.601 258.4 118.601 253.1 126.801 254.8Z" fill="#A55E75"/>
<path d="M161 255.701C162.2 255.701 163.2 254.701 163.2 253.501C163.2 252.301 162.2 251.301 161 251.301C143.9 251.301 129.9 265.201 129.9 282.401C129.9 282.501 129.9 282.601 129.9 282.701C130.5 282.601 131.2 282.501 131.8 282.401C132.7 283.801 133.6 285.101 134.7 286.401C134.5 285.101 134.4 283.801 134.4 282.401C134.4 267.701 146.3 255.701 161 255.701Z" fill="#A55E75"/>
<path d="M107.801 140.7C107.801 141.9 108.801 142.9 110.001 142.9C111.201 142.9 112.201 141.9 112.201 140.7C112.201 136.8 113.901 133.1 116.801 130.6C120.701 134.2 125.901 136.3 131.601 136.3C132.801 136.3 133.801 135.3 133.801 134.1C133.801 132.9 132.801 131.9 131.601 131.9C121.901 131.9 114.001 124 114.001 114.3C114.001 113.5 113.601 112.9 113.001 112.4C112.601 113.6 112.401 114.8 112.201 116.1C111.301 116.4 110.501 116.7 109.701 117C110.201 120.8 111.601 124.3 113.701 127.2C110.001 130.6 107.801 135.5 107.801 140.7Z" fill="#A55E75"/>
<path d="M150.701 121.201C144.201 126.401 140.101 134.301 140.101 143.201C140.101 144.401 141.101 145.401 142.301 145.401C143.501 145.401 144.501 144.401 144.501 143.201C144.501 130.101 155.201 119.401 168.301 119.401C169.501 119.401 170.501 118.401 170.501 117.201C170.501 116.001 169.501 115.001 168.301 115.001C164.201 115.001 160.301 115.901 156.801 117.501C156.701 117.501 156.601 117.501 156.501 117.501C146.201 117.501 137.801 109.101 137.801 98.8008C137.801 98.5008 137.701 98.1008 137.601 97.8008C137.001 98.3008 136.501 98.9008 135.901 99.5008C135.101 99.3008 134.201 99.1008 133.301 99.0008C133.501 109.801 140.801 118.701 150.701 121.201Z" fill="#A55E75"/>
<path d="M169.2 209.301C169 208.101 167.8 207.301 166.6 207.501C165.4 207.701 164.6 208.901 164.8 210.101C168.1 227.601 181.4 241.301 198.5 245.201V240.601C183.6 236.901 172.1 224.701 169.2 209.301Z" fill="#A55E75"/>
<path d="M174.501 159.6C174.201 159.6 173.901 159.6 173.601 159.6C173.401 158.8 173.401 158.1 173.401 157.3C173.401 151 178.601 145.8 184.901 145.8C186.101 145.8 187.101 144.8 187.101 143.6C187.101 142.4 186.101 141.4 184.901 141.4C176.101 141.4 168.901 148.6 168.901 157.4C168.901 158.3 169.001 159.3 169.201 160.2C162.201 161.5 156.001 165.4 151.601 171.2C150.901 172.2 151.101 173.6 152.001 174.3C153.001 175 154.401 174.8 155.101 173.9C159.701 167.7 166.801 164.2 174.501 164.2C186.601 164.2 196.701 173.2 198.501 184.8V172.6C193.301 164.7 184.501 159.6 174.501 159.6Z" fill="#A55E75"/>
<path d="M180.201 276.5C180.201 273.9 181.001 271.4 182.601 269.4C183.401 268.4 183.201 267 182.201 266.3C181.201 265.5 179.801 265.7 179.101 266.7C176.901 269.5 175.701 272.9 175.701 276.5C175.701 283.6 180.301 289.7 186.801 291.8C188.201 290.6 189.501 289.4 190.601 288.1H190.501C184.601 287.4 180.201 282.4 180.201 276.5Z" fill="#A55E75"/>
<path d="M241.1 87.8008C251.6 87.8008 261.1 92.3008 267.7 99.5008C269.2 99.1008 270.7 98.9008 272.3 98.9008C282.2 98.9008 290.2 106.401 291.2 116.001C304.6 120.201 314.3 132.801 314.3 147.601C314.3 149.701 314.1 151.701 313.7 153.701C325.5 159.601 333.6 171.801 333.6 185.901C333.6 197.501 328.1 207.801 319.6 214.401C320.9 218.101 321.6 222.201 321.6 226.301C321.6 243.001 310.3 257.001 294.9 261.101C295 261.901 295.1 262.801 295.1 263.701C295.1 274.201 286.6 282.701 276.1 282.701C274.6 282.701 273.2 282.501 271.8 282.201C265.5 292.501 254.1 299.401 241.1 299.401C208.1 299.401 205.1 270.701 205.1 270.701V123.801C205.1 104.001 221.3 87.8008 241.1 87.8008Z" fill="#DD799A"/>
<path opacity="0.6" d="M244.699 142.3C256.794 142.3 266.599 133.838 266.599 123.4C266.599 112.962 256.794 104.5 244.699 104.5C232.604 104.5 222.799 112.962 222.799 123.4C222.799 133.838 232.604 142.3 244.699 142.3Z" fill="#DC8CA6"/>
<path opacity="0.62" d="M270.6 199.301C275 197.301 277.6 192.801 277.4 188.001C277.4 187.601 277.4 187.201 277.4 186.801C277.4 183.401 278.1 180.201 279.3 177.301C280.8 173.701 280.3 169.701 278.1 166.501C275 161.901 273.1 155.801 273.1 149.101C273.1 135.001 281.4 123.701 291.6 123.701C301.8 123.701 310.1 135.101 310.1 149.101C310.1 153.701 309.2 158.001 307.6 161.801C320 163.801 329.4 174.301 329.4 186.901C329.4 198.601 321.3 208.501 310.2 211.501C313 216.001 314.5 221.301 314.5 227.001C314.5 243.701 300.6 257.301 283.5 257.301C266.4 257.301 252.5 243.701 252.5 227.001C252.6 214.701 259.9 204.101 270.6 199.301Z" fill="#DC8CA6"/>
<path d="M221.899 115.601C219.799 119.401 218.899 123.601 218.899 127.901V217.001C218.899 255.101 259.499 280.001 293.199 262.201C293.799 261.901 294.399 261.601 294.999 261.201V266.201C293.799 275.501 285.799 282.701 276.199 282.701C274.699 282.701 273.299 282.501 271.899 282.201C265.599 292.501 254.199 299.401 241.199 299.401C208.199 299.401 205.199 270.701 205.199 270.701V123.801C205.199 103.901 221.299 87.8008 241.199 87.8008C251.699 87.8008 261.199 92.3008 267.799 99.5008C267.699 99.6008 233.199 95.2008 221.899 115.601Z" fill="#E392AD"/>
<path opacity="0.48" d="M209.6 106.5C206.8 111.7 205.1 117.6 205.1 123.9V270.8C205.1 270.8 205.7 276.8 209.6 283.4V106.5Z" fill="#A55E75"/>
<path d="M272.901 147.702C267.901 141.802 259.301 139.702 252.001 143.302C250.901 143.802 250.401 145.202 251.001 146.302C251.501 147.402 252.901 147.902 254.001 147.302C260.401 144.202 268.201 146.802 271.301 153.202C274.401 159.602 271.801 167.402 265.401 170.502C264.301 171.002 263.801 172.402 264.401 173.502C264.901 174.602 266.301 175.102 267.401 174.502C275.901 170.302 279.501 160.002 275.401 151.402C288.101 144.502 295.601 131.502 295.901 117.902C294.501 117.202 293.001 116.602 291.401 116.102C291.701 129.002 284.801 141.402 272.901 147.702Z" fill="#A55E75"/>
<path d="M232.101 279.8C231.801 278.6 230.501 277.9 229.301 278.3C228.101 278.6 227.401 279.901 227.801 281.101C229.401 286.601 228.701 292.301 226.301 297.101C227.701 297.601 229.101 298.001 230.701 298.401C233.301 292.701 233.901 286.1 232.101 279.8Z" fill="#A55E75"/>
<path d="M319.4 209.601C324.6 202.501 325.7 193.301 322.1 185.201C321.6 184.101 320.3 183.501 319.2 184.001C318.1 184.501 317.5 185.801 318 186.901C321 193.701 320 201.401 315.4 207.301C310.6 205.301 305.1 205.101 299.9 207.401C298.8 207.901 298.2 209.201 298.7 210.301C299.2 211.401 300.5 211.901 301.6 211.501C308.4 208.501 316.3 211.001 320.2 217.101C320 216.201 319.7 215.301 319.4 214.501C320.3 213.801 321.2 213.001 322.1 212.201C321.4 211.301 320.5 210.401 319.4 209.601Z" fill="#A55E75"/>
<path d="M243.001 253C241.801 253 240.801 254 240.801 255.2C240.801 256.4 241.801 257.4 243.001 257.4C257.701 257.4 269.601 269.3 269.601 284C269.601 284.5 269.601 285 269.501 285.5C270.301 284.4 271.101 283.4 271.801 282.2C272.501 282.4 273.301 282.5 274.001 282.6C273.301 266.2 259.701 253 243.001 253Z" fill="#A55E75"/>
<path d="M293.701 163.401C292.501 163.101 291.301 163.901 291.001 165.101C290.701 166.301 291.501 167.501 292.701 167.801C298.301 169.001 303.801 168.001 308.401 165.401C310.701 168.501 311.601 172.401 310.701 176.301C310.401 177.501 311.201 178.701 312.401 179.001C313.601 179.301 314.801 178.501 315.101 177.301C316.201 172.201 315.101 167.001 312.001 162.901C314.201 161.001 315.901 158.701 317.201 156.001C316.101 155.301 314.901 154.601 313.701 154.001C313.801 153.401 313.901 152.801 314.001 152.201C311.201 160.301 302.501 165.301 293.701 163.401Z" fill="#A55E75"/>
<path d="M301.1 238.801C301.2 238.701 301.2 238.701 301.3 238.601C304.9 237.201 308.3 235.101 311.2 232.201C312.1 231.301 312.1 229.901 311.2 229.001C310.3 228.101 308.9 228.101 308 229.001C298.7 238.301 283.7 238.301 274.4 229.001C273.5 228.101 272.1 228.101 271.2 229.001C270.3 229.901 270.3 231.301 271.2 232.201C277.5 238.501 286.1 241.201 294.3 240.301C289.8 247.901 290.1 257.601 295.1 265.001C295.1 264.601 295.2 264.301 295.2 263.901C295.2 263.001 295.1 262.201 295 261.301C295.9 261.101 296.8 260.801 297.7 260.501C294.1 253.401 295.2 244.601 301.1 238.801Z" fill="#A55E75"/>
<path d="M238.8 133.301C239 132.101 238.2 130.901 237 130.701C235.8 130.501 234.6 131.301 234.4 132.501C231.5 147.901 220 160.001 205.1 163.801V168.401C222.2 164.501 235.6 150.801 238.8 133.301Z" fill="#A55E75"/>
<path d="M229.1 215.8C236.8 215.8 243.9 219.3 248.5 225.5C249.2 226.5 250.6 226.7 251.6 225.9C252.6 225.2 252.8 223.8 252 222.8C247.6 217 241.4 213.1 234.4 211.8C234.6 210.9 234.7 209.9 234.7 209C234.7 200.2 227.5 193 218.7 193C217.5 193 216.5 194 216.5 195.2C216.5 196.4 217.5 197.4 218.7 197.4C225 197.4 230.2 202.6 230.2 208.9C230.2 209.7 230.1 210.5 230 211.2C229.7 211.2 229.4 211.2 229.1 211.2C219.1 211.2 210.3 216.3 205.1 224.1V236.3C206.9 224.8 217 215.8 229.1 215.8Z" fill="#A55E75"/>
<path d="M264.601 111.1C262.801 112.9 260.401 114.1 257.901 114.4C256.701 114.6 255.801 115.7 256.001 116.9C256.201 118.1 257.301 119 258.501 118.8C262.101 118.3 265.301 116.8 267.801 114.2C271.901 110.1 273.401 104.2 272.001 98.9004C270.501 98.9004 269.101 99.1004 267.701 99.5004C267.601 99.4004 267.501 99.3004 267.401 99.2004C268.701 103.3 267.801 107.9 264.601 111.1Z" fill="#A55E75"/>
<path d="M263.9 45.7004H260V18.9004C260 13.3004 255.4 8.70039 249.8 8.70039H240.6V4.90039H249.8C257.5 4.90039 263.9 11.2004 263.9 19.0004V45.7004Z" fill="#4F708E"/>
<path d="M143.701 45.7008H139.801V18.9008C139.801 11.2008 146.101 4.80078 153.901 4.80078H164.201V8.70078H153.901C148.301 8.70078 143.701 13.3008 143.701 18.9008V45.7008Z" fill="#4F708E"/>
<path opacity="0.22" d="M153.6 7.59961C146.9 7.59961 142.4 13.0996 142.4 19.7996V45.6996H143.7V18.8996C143.7 13.2996 148.3 8.69961 153.9 8.69961H164.2V7.59961H153.6Z" fill="#112E49"/>
<path d="M166.7 0H164.4C163.7 0 163.1 0.6 163.1 1.3V12.2C163.1 12.9 163.7 13.5 164.4 13.5H166.7C168.8 13.5 170.5 11.8 170.5 9.7V3.7C170.5 1.7 168.8 0 166.7 0Z" fill="#2C4968"/>
<path d="M164.6 0H164.4C163.7 0 163.1 0.6 163.1 1.3V12.2C163.1 12.9 163.7 13.5 164.4 13.5H164.6V0Z" fill="#112E49"/>
<path d="M236.9 13.5H239.2C239.9 13.5 240.5 12.9 240.5 12.2V1.3C240.5 0.6 239.9 0 239.2 0H236.9C234.8 0 233.1 1.7 233.1 3.8V9.8C233.1 11.9 234.8 13.5 236.9 13.5Z" fill="#2C4968"/>
<path d="M239.3 0H239V13.5H239.3C240 13.5 240.6 12.9 240.6 12.2V1.3C240.6 0.6 240 0 239.3 0Z" fill="#112E49"/>
<path opacity="0.48" d="M227.001 263.1L207.701 279.7C211.401 288.1 220.301 299.5 241.101 299.5C247.501 299.5 253.501 297.8 258.801 294.9L227.001 263.1Z" fill="#A55E75"/>
<path d="M258.501 45.6992C258.501 62.4992 243.501 77.5992 221.201 83.3992C215.001 84.9992 208.501 85.7992 201.801 85.7992C195.101 85.7992 188.601 84.9992 182.401 83.3992C160.101 77.5992 145.101 62.4992 145.101 45.6992H138.301C138.301 65.5992 155.301 83.3992 180.701 89.9992C182.501 90.4992 184.401 90.8992 186.301 91.1992C193.301 92.4992 198.401 98.5992 198.401 105.799V258.899H205.201V105.799C205.201 98.6992 210.301 92.4992 217.301 91.1992C219.201 90.8992 221.101 90.3992 222.901 89.9992C248.301 83.3992 265.301 65.5992 265.301 45.6992H258.501Z" fill="#34574C"/>
<path d="M205.2 231.5H198.4V258.9H205.2V231.5Z" fill="#1F483B"/>
<path d="M201.5 308.999C218.124 308.999 231.6 295.523 231.6 278.899C231.6 262.275 218.124 248.799 201.5 248.799C184.877 248.799 171.4 262.275 171.4 278.899C171.4 295.523 184.877 308.999 201.5 308.999Z" fill="#34574C"/>
<path d="M222.801 257.599C218.401 253.199 212.901 250.399 207.101 249.299C211.301 250.699 215.301 253.099 218.701 256.499C230.501 268.299 230.501 287.299 218.701 299.099C211.401 306.399 201.201 309.199 191.801 307.399C202.301 310.999 214.401 308.599 222.801 300.199C234.601 288.399 234.601 269.399 222.801 257.599Z" fill="#1F483B"/>
<path opacity="0.68" d="M181.901 300.899C170.101 289.099 170.101 270.099 181.901 258.299C190.801 249.399 203.901 247.199 214.801 251.799C203.601 246.299 189.601 248.199 180.301 257.599C168.501 269.399 168.501 288.399 180.301 300.199C183.201 303.099 186.501 305.199 190.001 306.699C187.001 305.199 184.301 303.299 181.901 300.899Z" fill="#F0F0F0"/>
<path d="M201.501 294.2C209.951 294.2 216.801 287.35 216.801 278.9C216.801 270.45 209.951 263.6 201.501 263.6C193.051 263.6 186.201 270.45 186.201 278.9C186.201 287.35 193.051 294.2 201.501 294.2Z" fill="#1F483B"/>
<path d="M227.201 29.3992C221.101 23.2992 211.301 23.2992 205.301 29.3992L200.601 34.0992L195.901 29.3992C189.801 23.2992 180.001 23.2992 174.001 29.3992C167.901 35.4992 167.901 45.2992 174.001 51.2992L178.701 55.9992L196.401 73.6992C198.801 76.0992 202.601 76.0992 204.901 73.6992L222.601 55.9992L227.301 51.2992C233.301 45.2992 233.301 35.4992 227.201 29.3992Z" fill="#DD799A"/>
<path d="M227.2 29.3988C222.8 24.9988 216.4 23.7988 210.8 25.7988C212.5 29.2988 213.4 33.1988 213.4 37.3988C213.4 52.0988 201.5 63.9988 186.8 63.9988C186.7 63.9988 186.6 63.9988 186.5 63.9988L196.2 73.6988C198.6 76.0988 202.4 76.0988 204.7 73.6988L222.4 55.9988L227.1 51.2988C233.3 45.2988 233.3 35.4988 227.2 29.3988Z" fill="#E392AD"/>
<path opacity="0.21" d="M184.302 53.4996C191.316 53.4996 197.002 47.8136 197.002 40.7996C197.002 33.7856 191.316 28.0996 184.302 28.0996C177.288 28.0996 171.602 33.7856 171.602 40.7996C171.602 47.8136 177.288 53.4996 184.302 53.4996Z" fill="white"/>
<path d="M100.6 290.801C100.4 290.701 79.5002 279.901 63.6002 256.601C48.9002 235.101 35.6002 198.201 55.4002 144.701C79.0002 80.9008 56.6002 46.3008 56.4002 45.9008L57.2002 45.3008C57.4002 45.6008 80.1002 80.7008 56.3002 145.001C36.6002 198.101 49.8002 234.601 64.3002 255.901C80.0002 279.001 100.7 289.701 100.9 289.801L100.6 290.801Z" fill="#2C4968"/>
<path d="M67.9008 62.4C66.9008 63.4 65.7008 64.3 64.4008 65.1C62.8008 65.4 61.3008 65.4 59.8008 65.3C41.0008 63.6 31.8008 32 31.8008 32C40.5008 26.8 48.3008 31.4 54.5008 38.6C61.4008 46.7 66.3008 58.2 67.9008 62.4Z" fill="#AC5FB8"/>
<path d="M45.3008 57C49.3008 61.4 54.1008 64.7 59.9008 65.2C61.4008 65.3 62.9008 65.3 64.5008 65C65.8008 64.2 67.0008 63.3 68.0008 62.3C67.8008 61.7 67.5008 61 67.1008 60.1L54.5008 38.5C54.5008 38.5 47.5008 46.8 45.3008 57Z" fill="#A270AA"/>
<path d="M67.9004 62.4002C66.9004 63.4002 65.7004 64.3002 64.4004 65.1002C62.8004 65.4002 61.3004 65.4002 59.8004 65.3003C58.2004 61.0003 54.4004 49.3002 54.4004 38.6002C54.4004 29.1002 57.5004 20.5002 67.8004 18.5002C67.9004 18.4002 81.9004 48.6003 67.9004 62.4002Z" fill="#BC83C5"/>
<path d="M46.5992 179.1C46.4992 178.7 38.2992 137.8 24.1992 116.7L24.9992 116.1C39.1992 137.4 47.3992 178.4 47.4992 178.8L46.5992 179.1Z" fill="#2C4968"/>
<path d="M62.9996 125.1L62.0996 124.7C62.6996 123.5 76.7996 95.4 91.6996 92L91.8996 93C77.4996 96.2 63.0996 124.8 62.9996 125.1Z" fill="#2C4968"/>
<path d="M63.7004 118.2C63.7004 118.2 51.3004 117.5 43.2004 109.4C35.1004 101.3 34.4004 88.9004 34.4004 88.9004C34.4004 88.9004 46.8004 89.6004 54.9004 97.7004C62.9004 105.8 63.7004 118.2 63.7004 118.2Z" fill="#0BB796"/>
<path d="M67 85.8008C67 85.8008 69.3 77.8008 75.8 73.7008C82.3 69.6008 90.5 70.9008 90.5 70.9008C90.5 70.9008 88.2 78.9008 81.7 83.0008C75.2 87.1008 67 85.8008 67 85.8008Z" fill="#0BB796"/>
<path d="M19.9004 244.6C19.9004 244.6 31.1004 238.4 42.6004 241C54.1004 243.6 61.6004 254 61.6004 254C61.6004 254 50.4004 260.2 38.9004 257.6C27.4004 254.9 19.9004 244.6 19.9004 244.6Z" fill="#0BB796"/>
<path d="M49.8001 227.201C49.8001 227.201 49.3001 220.301 53.2001 215.201C57.1001 210.101 63.9001 208.801 63.9001 208.801C63.9001 208.801 64.4001 215.701 60.5001 220.801C56.6001 225.901 49.8001 227.201 49.8001 227.201Z" fill="#0BB796"/>
<path d="M33.5 126.2C32.9 127.1 32.1 128 31.2 128.9C30 129.4 28.8 129.6 27.6 129.8C12.4 131.4 0 107.9 0 107.9C6.1 102.4 13 104.8 19 109.5C25.8 114.8 31.5 123.2 33.5 126.2Z" fill="#AC5FB8"/>
<path d="M14.6992 125.6C18.4992 128.4 22.8992 130.3 27.5992 129.8C28.7992 129.7 29.9992 129.4 31.1992 128.9C32.0992 128.1 32.8992 127.2 33.4992 126.2C33.1992 125.8 32.8992 125.2 32.3992 124.6L18.9992 109.5C18.9992 109.5 14.7992 117.2 14.6992 125.6Z" fill="#A270AA"/>
<path d="M33.4993 126.2C32.8993 127.1 32.0993 128 31.1993 128.9C29.9993 129.4 28.7993 129.6 27.5993 129.8C25.6993 126.6 20.7993 118 19.0993 109.5C17.5993 102 18.5993 94.6004 26.4993 91.4004C26.3993 91.4004 42.3993 113.1 33.4993 126.2Z" fill="#BC83C5"/>
<path d="M91.6997 95.7008C90.8997 95.2008 90.1997 94.5008 89.4997 93.8008C89.0997 92.8008 88.8998 91.8008 88.7998 90.8008C87.3998 78.2008 107.1 67.8008 107.1 67.8008C111.7 72.9008 109.7 78.6008 105.8 83.7008C101.2 89.3008 94.1997 94.0008 91.6997 95.7008Z" fill="#AC5FB8"/>
<path d="M92.1991 80C89.7991 83.2 88.2991 86.9 88.6991 90.7C88.7991 91.7 88.9991 92.7 89.3991 93.7C90.0991 94.5 90.8991 95.1 91.5991 95.6C91.9991 95.4 92.3991 95.1 92.8991 94.7L105.499 83.5C105.699 83.6 99.1991 80.1 92.1991 80Z" fill="#A270AA"/>
<path d="M91.6988 95.7013C90.8988 95.2013 90.1988 94.5013 89.4988 93.8013C89.0988 92.8013 88.8988 91.8013 88.7988 90.8013C91.4988 89.2013 98.6988 85.1013 105.699 83.7013C111.999 82.4013 118.099 83.3013 120.799 89.9013C120.699 89.8013 102.699 103.101 91.6988 95.7013Z" fill="#BC83C5"/>
<path d="M106.001 45.5004C106.001 46.9004 104.801 48.1004 103.401 48.1004C102.001 48.1004 100.801 46.9004 100.801 45.5004C100.801 44.1004 102.001 42.9004 103.401 42.9004C104.901 42.9004 106.001 44.0004 106.001 45.5004Z" fill="#048970"/>
<path d="M101.2 11.9996C101.2 14.6996 99.0004 16.8996 96.3004 16.8996C93.6004 16.8996 91.4004 14.6996 91.4004 11.9996C91.4004 9.29961 93.6004 7.09961 96.3004 7.09961C98.9004 7.09961 101.2 9.29961 101.2 11.9996Z" fill="#BC83C5"/>
<path d="M18.5004 72.3992C20.2125 72.3992 21.6004 71.0113 21.6004 69.2992C21.6004 67.5871 20.2125 66.1992 18.5004 66.1992C16.7883 66.1992 15.4004 67.5871 15.4004 69.2992C15.4004 71.0113 16.7883 72.3992 18.5004 72.3992Z" fill="#BC83C5"/>
<path d="M77.6992 247.4C77.6992 248.5 76.7992 249.4 75.6992 249.4C74.5992 249.4 73.6992 248.5 73.6992 247.4C73.6992 246.3 74.5992 245.4 75.6992 245.4C76.7992 245.4 77.6992 246.3 77.6992 247.4Z" fill="#2C4968"/>
<path d="M121.6 301.7C121.6 304.2 119.5 306.3 117 306.3C114.5 306.3 112.4 304.2 112.4 301.7C112.4 299.2 114.5 297.1 117 297.1C119.5 297.1 121.6 299.1 121.6 301.7Z" fill="#048970"/>
<path d="M51.2008 296.2C51.2008 298 49.8008 299.4 48.0008 299.4C46.2008 299.4 44.8008 298 44.8008 296.2C44.8008 294.4 46.2008 293 48.0008 293C49.7008 293 51.2008 294.5 51.2008 296.2Z" fill="#BC83C5"/>
<path d="M18.2004 193.699C18.2004 196.099 16.2004 198.099 13.8004 198.099C11.4004 198.099 9.40039 196.099 9.40039 193.699C9.40039 191.299 11.4004 189.299 13.8004 189.299C16.2004 189.299 18.2004 191.299 18.2004 193.699Z" fill="#048970"/>
<path d="M77.9992 132.9C77.9992 133.7 77.3992 134.3 76.5992 134.3C75.7992 134.3 75.1992 133.7 75.1992 132.9C75.1992 132.1 75.7992 131.5 76.5992 131.5C77.3992 131.5 77.9992 132.1 77.9992 132.9Z" fill="#2C4968"/>
<path d="M304.4 290.798L303.9 289.898C304.1 289.798 324.8 279.098 340.5 255.998C355 234.698 368.2 198.098 348.5 145.098C324.7 80.7984 347.4 45.7984 347.6 45.3984L348.4 45.9984C348.2 46.2984 325.8 80.9984 349.4 144.798C369.2 198.298 355.9 235.198 341.2 256.698C325.5 279.898 304.6 290.698 304.4 290.798Z" fill="#2C4968"/>
<path d="M344 132.4C344 132.4 352.2 131.9 357.5 126.6C362.9 121.2 363.3 113.1 363.3 113.1C363.3 113.1 355.1 113.6 349.8 118.9C344.5 124.2 344 132.4 344 132.4Z" fill="#0BB796"/>
<path d="M334.9 94.7988C334.9 94.7988 329.5 85.9988 320.4 83.2988C311.3 80.5988 302 84.8988 302 84.8988C302 84.8988 307.4 93.6988 316.5 96.3988C325.6 99.1988 334.9 94.7988 334.9 94.7988Z" fill="#0BB796"/>
<path d="M365.3 62.1998C365.3 62.1998 356.8 60.1998 349.6 63.9998C342.5 67.7998 339.4 76.0998 339.4 76.0998C339.4 76.0998 347.9 78.0998 355.1 74.2998C362.3 70.3998 365.3 62.1998 365.3 62.1998Z" fill="#0BB796"/>
<path d="M385.1 244.598C385.1 244.598 373.9 238.398 362.4 240.998C350.9 243.598 343.4 253.998 343.4 253.998C343.4 253.998 354.6 260.198 366.1 257.598C377.6 254.898 385.1 244.598 385.1 244.598Z" fill="#0BB796"/>
<path d="M355.101 227.199C355.101 227.199 355.601 220.299 351.701 215.199C347.801 210.099 341.001 208.799 341.001 208.799C341.001 208.799 340.501 215.699 344.401 220.799C348.301 225.899 355.101 227.199 355.101 227.199Z" fill="#0BB796"/>
<path d="M357 169.4L356 169.2C356.1 168.8 364.3 127.7 378.5 106.5L379.3 107.1C365.3 128.1 357.1 169 357 169.4Z" fill="#2C4968"/>
<path d="M370.199 116.498C370.799 117.398 371.599 118.298 372.499 119.198C373.699 119.698 374.899 119.898 376.099 120.098C391.199 121.698 403.599 98.1984 403.599 98.1984C397.499 92.6984 390.599 95.0984 384.599 99.7984C377.799 105.098 372.099 113.398 370.199 116.498Z" fill="#AC5FB8"/>
<path d="M388.9 115.9C385.1 118.7 380.7 120.6 376 120.1C374.8 120 373.6 119.7 372.4 119.2C371.5 118.4 370.7 117.5 370.1 116.5C370.4 116.1 370.7 115.5 371.2 114.9L384.6 99.7998C384.6 99.6998 388.8 107.4 388.9 115.9Z" fill="#A270AA"/>
<path d="M370.2 116.499C370.8 117.399 371.6 118.299 372.5 119.199C373.7 119.699 374.9 119.899 376.1 120.099C378 116.899 382.9 108.299 384.6 99.7992C386.1 92.2992 385.1 84.8992 377.2 81.6992C377.2 81.6992 361.2 103.299 370.2 116.499Z" fill="#BC83C5"/>
<path d="M339.301 111.6C334.601 90.2 313.401 57.4 313.201 57L314.001 56.5C314.201 56.8 335.501 89.8 340.201 111.4L339.301 111.6Z" fill="#2C4968"/>
<path d="M311.501 64.6C312.901 64.6 314.401 64.3 315.801 63.9C317.101 62.9 318.201 61.9 319.101 60.7C330.801 45.9 314.301 17.5 314.301 17.5C304.501 20.2 302.501 29.1 303.401 38.4C304.601 49.2 309.601 60.6 311.501 64.6Z" fill="#AC5FB8"/>
<path d="M323.302 44.6C323.702 50.5 322.802 56.3 319.202 60.8C318.302 62 317.202 63 315.902 64C314.402 64.4 313.002 64.6 311.602 64.7C311.302 64.1 311.002 63.4 310.602 62.5L303.602 38.5C303.502 38.5 314.402 39.1 323.302 44.6Z" fill="#A270AA"/>
<path d="M311.502 64.5993C312.902 64.5993 314.402 64.2993 315.802 63.8993C317.102 62.8993 318.202 61.8993 319.102 60.6993C317.002 56.5993 311.202 45.6993 303.402 38.3993C296.502 31.8993 288.102 28.0993 279.602 34.2993C279.702 34.2993 291.902 65.2993 311.502 64.5993Z" fill="#BC83C5"/>
<path d="M344.602 48.2983C345.302 48.9983 346.102 49.5983 347.102 50.0983C348.202 50.1983 349.302 50.1983 350.302 50.0983C363.302 48.3983 368.902 26.2983 368.902 26.2983C362.702 22.8983 357.402 26.2983 353.302 31.3983C348.702 37.1983 345.602 45.2983 344.602 48.2983Z" fill="#AC5FB8"/>
<path d="M360.202 43.9984C357.602 47.0984 354.302 49.5984 350.302 50.0984C349.302 50.1984 348.202 50.1984 347.102 50.0984C346.202 49.5984 345.302 48.9984 344.602 48.2984C344.702 47.8984 344.902 47.3984 345.202 46.6984L353.402 31.3984C353.302 31.3984 358.402 36.9984 360.202 43.9984Z" fill="#A270AA"/>
<path d="M344.601 48.2988C345.301 48.9988 346.101 49.5988 347.101 50.0988C348.201 50.1988 349.301 50.1988 350.301 50.0988C351.301 47.0988 353.601 38.7988 353.401 31.3988C353.101 24.7988 350.801 18.8988 343.601 17.7988C343.501 17.7988 334.501 39.0988 344.601 48.2988Z" fill="#BC83C5"/>
<path d="M285.801 12.8992C288.066 12.8992 289.901 11.0636 289.901 8.79922C289.901 6.53485 288.066 4.69922 285.801 4.69922C283.537 4.69922 281.701 6.53485 281.701 8.79922C281.701 11.0636 283.537 12.8992 285.801 12.8992Z" fill="#DC8CA6"/>
<path d="M376.902 196.4C376.902 197.7 375.802 198.8 374.502 198.8C373.202 198.8 372.102 197.7 372.102 196.4C372.102 195.1 373.202 194 374.502 194C375.802 194.1 376.902 195.1 376.902 196.4Z" fill="#048970"/>
<path d="M284.8 306.599C287.23 306.599 289.2 304.629 289.2 302.199C289.2 299.769 287.23 297.799 284.8 297.799C282.37 297.799 280.4 299.769 280.4 302.199C280.4 304.629 282.37 306.599 284.8 306.599Z" fill="#DC8CA6"/>
<path d="M364.702 290.599C364.702 293.199 362.602 295.399 359.902 295.399C357.302 295.399 355.102 293.299 355.102 290.599C355.102 287.999 357.202 285.799 359.902 285.799C362.502 285.899 364.702 287.999 364.702 290.599Z" fill="#048970"/>
<path d="M337.501 144.399C337.501 146.699 335.701 148.499 333.401 148.499C331.101 148.499 329.301 146.699 329.301 144.399C329.301 142.099 331.101 140.299 333.401 140.299C335.701 140.299 337.501 142.199 337.501 144.399Z" fill="#DC8CA6"/>
<path d="M285.101 78.4996C285.101 80.3996 283.601 81.8996 281.701 81.8996C279.801 81.8996 278.301 80.3996 278.301 78.4996C278.301 76.5996 279.801 75.0996 281.701 75.0996C283.601 75.0996 285.101 76.5996 285.101 78.4996Z" fill="#048970"/>
<path d="M388.101 44.4992C389.427 44.4992 390.501 43.4247 390.501 42.0992C390.501 40.7737 389.427 39.6992 388.101 39.6992C386.776 39.6992 385.701 40.7737 385.701 42.0992C385.701 43.4247 386.776 44.4992 388.101 44.4992Z" fill="#2C4968"/>
<path d="M361.3 94.3992C361.3 95.2992 360.5 96.0992 359.6 96.0992C358.7 96.0992 357.9 95.2992 357.9 94.3992C357.9 93.4992 358.7 92.6992 359.6 92.6992C360.5 92.6992 361.3 93.4992 361.3 94.3992Z" fill="#048970"/>
<path d="M390.501 156C390.501 156.8 389.901 157.4 389.101 157.4C388.301 157.4 387.701 156.8 387.701 156C387.701 155.2 388.301 154.6 389.101 154.6C389.901 154.6 390.501 155.2 390.501 156Z" fill="#DC8CA6"/>
</g>
<defs>
<clipPath id="clip0_63_442">
<rect width="403.6" height="309" fill="white"/>
</clipPath>
</defs>
</svg>
