<svg width="98" height="96" viewBox="0 0 98 96" fill="none" xmlns="http://www.w3.org/2000/svg">
<circle cx="46" cy="46" r="46" fill="#1F483B"/>
<g clip-path="url(#clip0_101_817)">
<path d="M62.331 57.8974H36.0999C35.4991 57.8974 35.0117 57.4102 35.0117 56.8092C35.0117 56.2082 35.499 55.721 36.0999 55.721H62.331C62.6029 55.721 62.824 55.4565 62.824 55.1315V36.8693C62.824 36.5443 62.6029 36.2798 62.331 36.2798H37.6812C37.4092 36.2798 37.1881 36.5443 37.1881 36.8693V49.9807C37.1881 50.5817 36.7009 51.0689 36.0999 51.0689C35.4991 51.0689 35.0117 50.5817 35.0117 49.9807V36.8693C35.0117 35.3442 36.2092 34.1035 37.6811 34.1035H62.3308C63.8027 34.1035 65.0002 35.3442 65.0002 36.8693V55.1314C65.0004 56.6566 63.8029 57.8974 62.331 57.8974Z" fill="white"/>
<path d="M36.0996 36.8691C36.0996 37.4045 36.3406 37.908 36.7483 38.2238L50.0059 48.4967L63.2635 38.2238C63.6712 37.908 63.9122 37.4047 63.9122 36.8691C63.9122 35.9425 63.2042 35.1914 62.3309 35.1914H37.6809C36.8076 35.1915 36.0996 35.9426 36.0996 36.8691Z" fill="white"/>
<path d="M50.006 49.585C49.7709 49.585 49.5357 49.5089 49.3396 49.3571L36.082 39.0842C35.4119 38.5649 35.0117 37.7369 35.0117 36.8693C35.0117 35.3442 36.2092 34.1035 37.6811 34.1035H62.3308C63.8027 34.1035 65.0002 35.3442 65.0002 36.8693C65.0002 37.7369 64.6001 38.5649 63.9299 39.0842L50.6725 49.3571C50.4764 49.5091 50.2412 49.585 50.006 49.585ZM37.6812 36.2797C37.4094 36.2797 37.1881 36.5441 37.1881 36.8691C37.1881 37.0688 37.2729 37.2536 37.415 37.3638L50.006 47.1203L62.597 37.3638C62.7391 37.2536 62.824 37.0688 62.824 36.8691C62.824 36.5441 62.6027 36.2797 62.3309 36.2797H37.6812V36.2797Z" fill="white"/>
<path d="M35.9907 41.2486H26.0882C25.4873 41.2486 25 40.7614 25 40.1605C25 39.5595 25.4873 39.0723 26.0882 39.0723H35.9907C36.5916 39.0723 37.0789 39.5595 37.0789 40.1605C37.0789 40.7615 36.5916 41.2486 35.9907 41.2486Z" fill="white"/>
<path d="M35.9915 46.1998H29.3538C28.753 46.1998 28.2656 45.7127 28.2656 45.1116C28.2656 44.5106 28.7529 44.0234 29.3538 44.0234H35.9915C36.5924 44.0234 37.0797 44.5106 37.0797 45.1116C37.0797 45.7127 36.5924 46.1998 35.9915 46.1998Z" fill="white"/>
<path d="M35.9903 51.151H32.6175C32.0166 51.151 31.5293 50.6638 31.5293 50.0628C31.5293 49.4618 32.0166 48.9746 32.6175 48.9746H35.9903C36.5912 48.9746 37.0785 49.4618 37.0785 50.0628C37.0785 50.6638 36.5912 51.151 35.9903 51.151Z" fill="white"/>
</g>
<circle cx="52" cy="50" r="45.5" stroke="#4BC598"/>
<defs>
<clipPath id="clip0_101_817">
<rect width="40" height="40" fill="white" transform="translate(25 26)"/>
</clipPath>
</defs>
</svg>
