<svg width="98" height="96" viewBox="0 0 98 96" fill="none" xmlns="http://www.w3.org/2000/svg">
<circle cx="46" cy="46" r="46" fill="#1F483B"/>
<path d="M53.5 44.5H50.5V41.5H53.5M47.5 44.5H44.5V41.5H47.5M41.5 44.5H38.5V41.5H41.5M58 31H34C33.2044 31 32.4413 31.3161 31.8787 31.8787C31.3161 32.4413 31 33.2044 31 34V61L37 55H58C58.7956 55 59.5587 54.6839 60.1213 54.1213C60.6839 53.5587 61 52.7956 61 52V34C61 32.335 59.65 31 58 31Z" fill="white"/>
<circle cx="52" cy="50" r="45.5" stroke="#4BC598"/>
</svg>
