<svg width="85" height="88" viewBox="0 0 85 88" fill="none" xmlns="http://www.w3.org/2000/svg">
<path d="M10.6504 63.2639L6.10707 81.8579C7.14474 81.5494 12.249 80.1078 24.3645 76.8097C39.456 84.7185 55.663 80.091 56.3361 79.5862C57.0091 79.0814 80.9037 69.4058 81.2402 46.9415C81.5768 24.4773 68.1992 15.1383 66.6847 13.708C65.1703 12.2777 42.9585 -3.62398 19.2322 15.1383C0.251226 30.1481 5.60225 53.4761 10.6504 63.2639Z" fill="#E8A59C"/>
<path d="M37.7617 33.6057C42.2963 31.0663 39.1977 24.9899 37.0815 22.2691C43.0672 19.9112 46.6796 23.2516 47.7376 25.2166C49.098 28.4664 50.8212 35.9636 46.8307 39.9541C42.8403 43.9446 42.5984 51.5929 42.9763 54.9183H47.7376C47.5865 54.2381 47.3749 51.7894 47.7376 47.4362C48.1911 41.9947 56.1267 40.4076 59.0742 33.6057C62.0217 26.8038 59.3009 23.1761 59.0742 22.2691C58.8475 21.3622 54.5396 14.787 45.6971 15.4672C37.9283 16.0648 37.0815 17.5078 33.4538 19.7751C29.8261 22.0424 29.0217 27.4347 29.5994 29.978C29.8698 31.1686 32.0934 36.7799 37.7617 33.6057Z" fill="white"/>
<path fill-rule="evenodd" clip-rule="evenodd" d="M27.5034 0.172735C27.391 0.354636 28.3763 1.50443 28.6445 1.50443C29.0206 1.50443 28.9474 0.938875 28.5124 0.48471C28.0153 -0.0340703 27.6929 -0.133687 27.5034 0.172735ZM31.0775 0.461994C30.5936 0.967144 30.5152 1.24816 30.8081 1.42922C31.057 1.58302 32.136 0.512307 32.0246 0.222039C31.8874 -0.13537 31.5736 -0.0557773 31.0775 0.461994ZM39.5438 3.25816C28.2297 4.70512 18.7207 10.3632 12.2895 19.4751C8.74422 24.4982 6.3201 30.871 5.55733 37.1736C5.30711 39.2396 5.34884 44.1397 5.63877 46.7694C5.95277 49.6169 6.28645 51.7011 6.40878 51.5786C6.46044 51.5271 6.70831 52.2132 6.9597 53.1032C7.2111 53.9931 7.37601 54.7621 7.3262 54.812C7.27639 54.8618 7.23567 54.8015 7.23567 54.6782C7.23567 54.5548 7.19814 54.4914 7.15204 54.5373C7.1061 54.5833 7.18704 55.0199 7.33175 55.5076C7.47663 55.9951 7.62808 56.3611 7.66863 56.3207C7.70902 56.2803 7.65719 56.0038 7.55353 55.7065C7.21463 54.7346 7.52964 54.9658 7.9027 55.9628C8.50174 57.5639 10.229 60.8781 11.3931 62.6601C12.4109 64.218 12.4777 64.3783 12.3742 65.0159C11.4611 70.6471 10.1018 79.7859 10.0323 80.7602C9.98287 81.4544 9.89116 82.3809 9.82856 82.8192C9.70656 83.6725 9.90933 84.1267 10.4113 84.1243C10.5621 84.1236 12.7297 83.3212 15.2286 82.3411C17.7274 81.3611 20.5291 80.2733 21.4546 79.9238C22.3801 79.5743 23.8146 79.0136 24.6423 78.678C25.4702 78.3425 26.2653 78.064 26.4092 78.0591C26.5532 78.0544 26.3999 77.938 26.0688 77.8003C25.4667 77.5501 25.4647 77.5508 18.8331 80.1396C10.7117 83.3102 10.6093 83.3487 10.5271 83.2665C10.4905 83.2298 10.5282 82.8214 10.611 82.3587C10.6936 81.8961 10.8044 81.2714 10.857 80.9706C10.9296 80.5568 11.0431 80.419 11.3238 80.4042C11.6164 80.3889 11.6314 80.3682 11.3953 80.3067C11.1609 80.2457 11.1155 80.1126 11.1867 79.6952C11.3635 78.6592 11.9283 74.8919 12.7158 69.4968C13.4173 64.6908 13.4844 63.9944 13.2768 63.6662C11.8434 61.4008 10.1003 58.3918 9.64784 57.4018C8.90273 55.7714 7.48017 51.6002 7.15221 50.0834C6.3753 46.4906 6.18481 44.451 6.28443 40.7958C6.34232 38.6709 6.51059 36.3899 6.70662 35.0746C7.75866 28.0159 11.3578 20.8642 16.5635 15.4885C22.6889 9.1628 30.1054 5.36306 38.8113 4.08976C41.4886 3.69819 46.6571 3.70458 49.2194 4.10271C57.9022 5.45124 65.2442 9.24273 71.2673 15.4885C76.6331 21.0527 79.99 27.8293 81.386 35.9159C81.8085 38.3639 81.8078 44.8109 81.3848 47.3584C81.2157 48.3764 80.9394 49.6258 80.7709 50.1348C80.6025 50.6439 80.2722 51.8554 80.0366 52.8272C79.2836 55.935 78.301 58.7221 77.3224 60.5254C76.968 61.1785 76.8569 61.4826 77.0614 61.2408C77.7227 60.458 79.7332 56.1913 80.4147 54.1246C81.9355 49.5119 82.4515 46.3487 82.4515 41.6371C82.4515 33.0183 79.8737 25.2198 74.789 18.4559C71.0703 13.5091 66.306 9.59745 60.7029 6.89046C57.0522 5.12681 54.1065 4.18988 50.0607 3.50535C47.4387 3.06195 42.0663 2.93558 39.5438 3.25816ZM27.862 3.67833C27.4072 4.15303 27.3917 4.53332 27.8274 4.53332C28.0914 4.53332 28.9427 3.65949 28.9427 3.38823C28.9427 3.01904 28.3381 3.18126 27.862 3.67833ZM30.6254 3.38823C30.6254 3.65949 31.4767 4.53332 31.7407 4.53332C32.1504 4.53332 32.137 4.21932 31.7054 3.70626C31.2724 3.19169 30.6254 3.00121 30.6254 3.38823ZM63.5505 6.49654C63.4888 6.55813 63.4383 6.78109 63.4383 6.99176C63.4383 7.46023 64.0244 7.89875 64.6504 7.89875C65.311 7.89875 65.5065 7.13547 64.9595 6.69241C64.5854 6.38952 63.7708 6.27627 63.5505 6.49654ZM42.0258 6.67777C42.7894 6.7089 44.0386 6.7089 44.8022 6.67777C45.5659 6.64664 44.9411 6.62106 43.414 6.62106C41.8869 6.62106 41.2622 6.64664 42.0258 6.67777ZM39.4199 6.84166C39.6757 6.8802 40.0543 6.87919 40.2613 6.83931C40.4683 6.79943 40.2589 6.76779 39.7962 6.76897C39.3334 6.77032 39.1642 6.80296 39.4199 6.84166ZM46.5691 6.83965C46.7774 6.87969 47.118 6.87969 47.3263 6.83965C47.5346 6.79943 47.3642 6.76662 46.9477 6.76662C46.5312 6.76662 46.3608 6.79943 46.5691 6.83965ZM38.0746 7.00573C38.2383 7.04847 38.4655 7.04561 38.5794 6.9995C38.6933 6.9534 38.5594 6.91856 38.2817 6.92193C38.0041 6.9253 37.9109 6.96299 38.0746 7.00573ZM48.1709 7.00573C48.3346 7.04847 48.5618 7.04561 48.6757 6.9995C48.7896 6.9534 48.6557 6.91856 48.378 6.92193C48.1004 6.9253 48.0071 6.96299 48.1709 7.00573ZM37.065 7.174C37.2287 7.21674 37.4559 7.21388 37.5698 7.16777C37.6837 7.12167 37.5498 7.08684 37.2721 7.0902C36.9945 7.09357 36.9012 7.13126 37.065 7.174ZM49.3488 7.174C49.5125 7.21674 49.7397 7.21388 49.8536 7.16777C49.9675 7.12167 49.8336 7.08684 49.5559 7.0902C49.2783 7.09357 49.185 7.13126 49.3488 7.174ZM36.1469 7.34059C36.2682 7.38922 36.4134 7.38316 36.4693 7.3273C36.5251 7.27143 36.4259 7.23172 36.2485 7.23895C36.0525 7.24703 36.0126 7.28691 36.1469 7.34059ZM50.2711 7.33706C50.3868 7.38384 50.5761 7.38384 50.6917 7.33706C50.8075 7.29044 50.7128 7.25225 50.4814 7.25225C50.25 7.25225 50.1555 7.29044 50.2711 7.33706ZM35.3055 7.50886C35.4268 7.55749 35.5721 7.55143 35.6279 7.49557C35.6838 7.4397 35.5845 7.39999 35.4072 7.40723C35.2111 7.4153 35.1712 7.45518 35.3055 7.50886ZM51.123 7.50886C51.2443 7.55749 51.3896 7.55143 51.4454 7.49557C51.5013 7.4397 51.402 7.39999 51.2247 7.40723C51.0286 7.4153 50.9887 7.45518 51.123 7.50886ZM66.5936 7.51677C66.2769 7.59216 66.0282 8.26995 66.2096 8.56342C66.2705 8.66185 66.5432 8.85789 66.8158 8.99874C67.9106 9.56497 68.4755 8.31572 67.3927 7.72307C67.115 7.57112 66.7554 7.47824 66.5936 7.51677ZM34.6324 7.67713C34.7538 7.72576 34.899 7.7197 34.9548 7.66384C35.0107 7.60797 34.9114 7.56826 34.7341 7.5755C34.538 7.58357 34.4981 7.62345 34.6324 7.67713ZM28.6903 9.48622C28.2275 9.70918 27.8994 9.89747 27.9611 9.90471C28.1387 9.92574 29.6158 9.26696 29.6158 9.16684C29.6158 9.03963 29.6218 9.03761 28.6903 9.48622ZM57.044 9.24492C57.1828 9.33461 57.3721 9.40797 57.4647 9.40797C57.5572 9.40797 57.5194 9.33461 57.3805 9.24492C57.2417 9.15523 57.0524 9.08186 56.9599 9.08186C56.8673 9.08186 56.9052 9.15523 57.044 9.24492ZM68.6884 9.27857C68.3789 9.58802 68.4466 9.99002 68.8758 10.3935C69.4296 10.9137 70.1321 10.8814 70.2706 10.3294C70.4746 9.51684 69.258 8.70897 68.6884 9.27857ZM58.0536 9.66559C58.285 9.79786 58.55 9.90605 58.6426 9.90605C58.7351 9.90605 58.6215 9.79786 58.3902 9.66559C58.1588 9.53333 57.8938 9.42513 57.8012 9.42513C57.7087 9.42513 57.8222 9.53333 58.0536 9.66559ZM70.8843 10.8708C70.5343 11.0119 70.6437 11.8501 71.0633 12.2445C71.5002 12.6548 71.8551 12.7081 72.1548 12.4084C72.8127 11.7505 71.7854 10.5071 70.8843 10.8708ZM63.6066 12.5033C63.6066 12.5496 63.8337 12.7492 64.1114 12.9469C64.389 13.1446 64.6162 13.2685 64.6162 13.2222C64.6162 13.1759 64.389 12.9763 64.1114 12.7786C63.8337 12.5809 63.6066 12.457 63.6066 12.5033ZM72.7269 12.9805C72.4078 13.2996 72.4905 13.8655 72.9143 14.2638C73.3512 14.674 73.7061 14.7274 74.0057 14.4277C74.3026 14.1308 74.2529 13.7228 73.8588 13.222C73.4851 12.7466 73.053 12.6544 72.7269 12.9805ZM41.6472 13.553C35.0582 14.2219 30.7396 16.4222 28.1008 20.455C27.0824 22.0113 26.6432 23.1357 26.3669 24.8941C25.7726 28.6766 26.8995 31.2686 29.7479 32.6708C30.6969 33.1381 31.0334 33.2152 32.1275 33.2169C34.5466 33.2204 36.2149 32.2298 37.0959 30.2662C37.5188 29.3239 37.5565 29.0858 37.4898 27.7745C37.4047 26.1032 36.8723 24.7753 35.3644 22.4747C34.8865 21.7456 34.4956 20.9564 34.4956 20.721C34.4956 20.124 35.7578 18.954 36.7762 18.607C38.096 18.1572 39.4786 18.2419 40.6878 18.8461C41.8107 19.4072 43.1256 20.721 43.5409 21.697C43.8261 22.3676 43.9044 22.514 44.513 23.515C44.7551 23.9133 45.06 24.7084 45.1906 25.2818L45.4279 26.3245L45.35 25.2272C45.1911 22.988 44.1919 20.8078 42.6608 19.3599C41.3685 18.1376 40.1393 17.6023 38.626 17.6026C36.9733 17.603 35.8679 18.0105 34.7514 19.0307C33.3189 20.3401 33.3329 20.8255 34.8695 23.0952C36.7357 25.8514 37.2679 28.0767 36.4753 29.8078C35.6469 31.6176 34.2634 32.4679 32.1519 32.4647C30.2961 32.462 28.6073 31.4051 27.718 29.6899C27.4198 29.1144 27.3675 28.6994 27.3574 26.8293C27.3473 24.9445 27.4023 24.4691 27.7557 23.3937C28.8607 20.0313 32.0296 17.0884 36.0262 15.7128C38.9954 14.691 44.405 14.3351 47.4424 14.9618C49.2912 15.3432 50.8634 15.9344 50.706 16.189C50.6443 16.2888 50.6786 16.3143 50.7856 16.248C51.0158 16.1058 52.114 16.7751 53.3067 17.7842C54.3449 18.6627 56.0904 20.893 56.538 21.9132C56.994 22.9528 57.3809 25.0402 57.3777 26.4436C57.3674 30.7576 55.2716 34.2097 49.8083 38.9106C46.1864 42.0272 44.9037 43.4767 44.2712 45.1673C44.0832 45.6698 43.8066 47.0876 43.6565 48.3182C43.5064 49.5488 43.3055 50.6503 43.2099 50.7659C43.1145 50.8816 42.8283 50.9762 42.574 50.9762C41.995 50.9762 41.9288 50.6649 41.7858 47.2668C41.6859 44.8898 41.6986 44.7569 42.2338 42.6394C42.5366 41.4403 42.8597 40.3078 42.9516 40.1227C43.0586 39.907 43.0593 39.8466 42.9533 39.9544C42.8624 40.047 42.3988 40.9691 41.9231 42.0036L41.0582 43.8844L41.0596 46.1263C41.0612 48.9034 41.319 51.3336 41.6371 51.5734C41.766 51.6705 42.3376 51.738 42.9075 51.7232C44.376 51.6855 44.4748 51.5456 44.5298 49.4251C44.6091 46.3769 44.6631 46.0316 45.2458 44.8476C45.8767 43.5664 47.2136 42.1389 49.9766 39.7969C54.724 35.7727 56.978 32.7109 57.8239 29.1369C58.2362 27.395 58.0546 23.5115 57.4919 22.0335C56.8806 20.4282 56.397 19.5951 55.3554 18.3533C53.3885 16.0084 50.7367 14.498 47.4636 13.8582C46.1774 13.6068 42.8417 13.4318 41.6472 13.553ZM65.2893 13.6836C65.2893 13.7184 65.4219 13.851 65.5838 13.9781C65.8506 14.1872 65.8565 14.1813 65.6474 13.9144C65.4274 13.6341 65.2893 13.5451 65.2893 13.6836ZM77.6853 14.9101C77.4279 15.1676 77.612 15.6088 78.2275 16.21C79.4015 17.3563 80.1315 16.6263 78.9852 15.4523C78.384 14.8367 77.9428 14.6527 77.6853 14.9101ZM82.5465 15.4826C81.9009 16.1974 81.8627 16.421 82.336 16.7195C82.567 16.8654 82.7611 16.7571 83.3848 16.1333C83.92 15.5982 84.1172 15.2822 84.0408 15.0829C83.8489 14.583 83.2033 14.7556 82.5465 15.4826ZM67.1551 15.1765C67.1941 15.1997 67.4908 15.4457 67.8142 15.7234L68.4023 16.2282L67.9081 15.6813C67.6363 15.3806 67.3397 15.1344 67.249 15.1344C67.1583 15.1344 67.116 15.1533 67.1551 15.1765ZM74.1994 15.4863C73.9682 15.9184 74.261 16.7438 74.7355 16.9977C75.1537 17.2215 75.7221 16.9139 75.7221 16.4636C75.7221 15.3998 74.6233 14.6944 74.1994 15.4863ZM45.4018 16.259C45.5231 16.3076 45.6683 16.3015 45.7242 16.2457C45.7801 16.1898 45.6808 16.1501 45.5034 16.1573C45.3074 16.1654 45.2675 16.2053 45.4018 16.259ZM47.5893 16.4272C47.7106 16.4759 47.8559 16.4698 47.9117 16.4139C47.9676 16.3581 47.8683 16.3184 47.691 16.3256C47.4949 16.3337 47.455 16.3736 47.5893 16.4272ZM68.6547 16.3759C68.6547 16.4108 68.7873 16.5434 68.9492 16.6704C69.2161 16.8796 69.222 16.8737 69.0128 16.6068C68.7929 16.3264 68.6547 16.2374 68.6547 16.3759ZM49.9376 17.0137C50.0355 17.1116 50.2147 17.1584 50.3362 17.118C50.4622 17.0759 50.3858 16.9997 50.1583 16.9401C49.8785 16.8669 49.8127 16.8888 49.9376 17.0137ZM34.4536 17.7547C33.8012 18.1086 33.875 18.2308 34.5377 17.8939C35.1721 17.5712 35.2843 17.4877 35.0706 17.4969C34.9858 17.5006 34.708 17.6166 34.4536 17.7547ZM52.2483 17.9489C52.3408 18.0373 52.7194 18.2796 53.0896 18.4874C53.4598 18.6952 53.6113 18.7395 53.4262 18.5857C53.0502 18.2732 51.9842 17.6968 52.2483 17.9489ZM70.674 18.4157C70.8914 18.6471 71.1071 18.8364 71.1534 18.8364C71.1997 18.8364 71.0596 18.6471 70.8422 18.4157C70.6248 18.1843 70.4091 17.995 70.3628 17.995C70.3166 17.995 70.4566 18.1843 70.674 18.4157ZM15.6364 18.606C15.2474 19.0284 15.2459 19.0383 15.604 18.8201C15.8104 18.6942 16.0162 18.495 16.0613 18.3773C16.1818 18.0633 16.092 18.1116 15.6364 18.606ZM33.0554 18.5932C32.7417 18.8446 32.7438 18.8477 33.1074 18.6715C33.3157 18.5705 33.486 18.4527 33.486 18.4098C33.486 18.2811 33.3987 18.3183 33.0554 18.5932ZM78.1864 19.8209C77.507 20.5169 77.4206 21.0579 77.9722 21.1641C78.401 21.2467 79.6203 20.0392 79.5567 19.5953C79.4729 19.0104 78.8831 19.1076 78.1864 19.8209ZM82.1501 19.3749C81.8516 19.6734 81.8896 19.7802 82.5566 20.5186C83.2023 21.2332 83.85 21.4044 84.0396 20.9102C84.1138 20.7168 83.9237 20.4 83.4337 19.9005C82.679 19.1317 82.4764 19.0486 82.1501 19.3749ZM71.936 19.846C72.1034 20.0311 72.2784 20.1826 72.3247 20.1826C72.371 20.1826 72.2717 20.0311 72.1043 19.846C71.9369 19.6609 71.7618 19.5095 71.7156 19.5095C71.6693 19.5095 71.7686 19.6609 71.936 19.846ZM13.8664 20.7294L13.5458 21.108L13.9245 20.7875C14.2802 20.4863 14.3796 20.3508 14.245 20.3508C14.213 20.3508 14.0427 20.5211 13.8664 20.7294ZM40.0906 20.8033C40.2525 20.8457 40.5177 20.8457 40.6796 20.8033C40.8415 20.7611 40.709 20.7264 40.3851 20.7264C40.0612 20.7264 39.9288 20.7611 40.0906 20.8033ZM42.7303 21.6852C43.0485 21.9656 43.3459 22.1577 43.3911 22.1125C43.4832 22.0204 43.0038 21.6152 42.4885 21.3493C42.3034 21.2539 42.4123 21.405 42.7303 21.6852ZM12.5988 22.328C12.3897 22.5949 12.3955 22.6008 12.6624 22.3916C12.9428 22.1717 13.0318 22.0335 12.8933 22.0335C12.8585 22.0335 12.7259 22.166 12.5988 22.328ZM74.7125 23.548C74.8116 23.7331 74.9304 23.8845 74.9767 23.8845C75.0229 23.8845 74.9799 23.7331 74.8808 23.548C74.7816 23.3629 74.6628 23.2114 74.6166 23.2114C74.5703 23.2114 74.6134 23.3629 74.7125 23.548ZM28.3468 23.5593C28.2857 23.6579 28.2719 23.7748 28.316 23.8189C28.3601 23.863 28.4411 23.7822 28.4959 23.6394C28.6097 23.3429 28.5127 23.2907 28.3468 23.5593ZM27.8698 24.6483C27.7074 25.0713 27.7552 25.1805 27.9536 24.8395C28.0518 24.6705 28.0968 24.4969 28.0534 24.4536C28.0101 24.4102 27.9273 24.4979 27.8698 24.6483ZM37.4732 25.1444C37.6272 25.4673 37.783 25.7013 37.8195 25.6648C37.8964 25.5879 37.3857 24.5576 37.2704 24.5576C37.2282 24.5576 37.3194 24.8216 37.4732 25.1444ZM10.7694 25.2307C10.6703 25.4158 10.6272 25.5672 10.6735 25.5672C10.7197 25.5672 10.8385 25.4158 10.9376 25.2307C11.0367 25.0456 11.0798 24.8941 11.0336 24.8941C10.9873 24.8941 10.8685 25.0456 10.7694 25.2307ZM27.4415 26.0019C27.4496 26.1979 27.4895 26.2378 27.5432 26.1037C27.5918 25.9822 27.5857 25.837 27.5299 25.7811C27.474 25.7252 27.4343 25.8245 27.4415 26.0019ZM45.4599 26.9134C45.4599 27.1448 45.498 27.2395 45.5447 27.1237C45.5914 27.0081 45.5914 26.8188 45.5447 26.7031C45.498 26.5875 45.4599 26.682 45.4599 26.9134ZM59.0765 26.8432C59.0846 27.0393 59.1245 27.0792 59.1782 26.945C59.2268 26.8235 59.2207 26.6783 59.1649 26.6225C59.109 26.5666 59.0693 26.6659 59.0765 26.8432ZM38.3945 27.2499C38.3972 27.3888 38.4601 27.6917 38.5341 27.923C38.6425 28.2613 38.6698 28.2778 38.6738 28.0072C38.6765 27.8221 38.6137 27.5192 38.5341 27.3341C38.4455 27.128 38.3914 27.0953 38.3945 27.2499ZM59.2796 28.1754C59.281 28.6382 59.3136 28.8075 59.3523 28.5517C59.3909 28.2959 59.3899 27.9173 59.35 27.7103C59.3101 27.5034 59.2785 27.7127 59.2796 28.1754ZM45.667 29.6899C45.6672 30.893 45.6941 31.3632 45.7264 30.7345C45.7589 30.106 45.7587 29.1216 45.7259 28.547C45.6932 27.9725 45.6667 28.4867 45.667 29.6899ZM77.0683 27.7448C77.0683 27.832 77.1432 27.9495 77.2347 28.006C77.3299 28.0649 77.3582 27.9974 77.3008 27.8477C77.1889 27.5562 77.0683 27.5029 77.0683 27.7448ZM38.7563 29.4375C38.7563 30.039 38.7869 30.2851 38.8241 29.9844C38.8614 29.6837 38.8614 29.1913 38.8241 28.8906C38.7869 28.5899 38.7563 28.8359 38.7563 29.4375ZM77.585 28.6803C77.585 28.7728 77.6932 29.0378 77.8255 29.2692C77.9578 29.5006 78.066 29.6142 78.066 29.5216C78.066 29.4291 77.9578 29.164 77.8255 28.9327C77.6932 28.7013 77.585 28.5877 77.585 28.6803ZM59.282 30.2788C59.282 30.7879 59.3135 30.996 59.352 30.7416C59.3905 30.4872 59.3905 30.0705 59.352 29.8161C59.3135 29.5617 59.282 29.7698 59.282 30.2788ZM78.0831 29.8582C78.0831 29.9507 78.1565 30.14 78.2462 30.2788C78.3359 30.4177 78.4092 30.4555 78.4092 30.363C78.4092 30.2704 78.3359 30.0811 78.2462 29.9423C78.1565 29.8035 78.0831 29.7656 78.0831 29.8582ZM78.5171 31.0361C78.6556 31.6548 78.7518 31.7891 78.7485 31.3586C78.747 31.1813 78.669 30.9225 78.575 30.7836C78.4503 30.5994 78.4346 30.6674 78.5171 31.0361ZM8.01375 31.0426C7.85137 31.4657 7.89916 31.5749 8.09755 31.2338C8.19582 31.0648 8.24075 30.8912 8.19734 30.8479C8.15409 30.8045 8.0713 30.8922 8.01375 31.0426ZM38.2925 31.744C38.2013 31.9838 38.2205 32.0031 38.3867 31.8382C38.5018 31.7239 38.5535 31.5882 38.5017 31.5365C38.4498 31.4847 38.3558 31.5781 38.2925 31.744ZM59.0765 31.7231C59.0846 31.9191 59.1245 31.959 59.1782 31.8249C59.2268 31.7034 59.2207 31.5582 59.1649 31.5023C59.109 31.4465 59.0693 31.5457 59.0765 31.7231ZM28.1873 32.1933C28.3465 32.4361 28.5084 32.6346 28.5472 32.6346C28.6691 32.6346 28.2772 31.9861 28.083 31.8661C27.9813 31.8032 28.0283 31.9504 28.1873 32.1933ZM45.4599 32.8029C45.4599 33.0343 45.498 33.129 45.5447 33.0132C45.5914 32.8976 45.5914 32.7083 45.5447 32.5926C45.498 32.477 45.4599 32.5715 45.4599 32.8029ZM7.33175 33.0673C7.27 33.3139 7.25182 33.5482 7.29137 33.5879C7.33108 33.6274 7.4142 33.4582 7.47613 33.2116C7.53788 32.9649 7.55606 32.7307 7.51651 32.691C7.4768 32.6515 7.39367 32.8207 7.33175 33.0673ZM58.74 33.2375C58.7481 33.4336 58.788 33.4735 58.8416 33.3394C58.8903 33.2179 58.8842 33.0726 58.8283 33.0168C58.7725 32.9609 58.7328 33.0602 58.74 33.2375ZM35.8418 34.3173C35.6902 34.4153 35.6693 34.4814 35.7898 34.4831C35.9 34.4844 36.037 34.4099 36.0942 34.3173C36.2233 34.1083 36.1651 34.1083 35.8418 34.3173ZM30.917 34.5065C31.0313 34.6216 31.1671 34.6732 31.2187 34.6214C31.2705 34.5696 31.1771 34.4755 31.0112 34.4122C30.7714 34.321 30.7521 34.3402 30.917 34.5065ZM79.6056 34.5837C79.6137 34.7798 79.6536 34.8196 79.7073 34.6855C79.7559 34.564 79.7499 34.4188 79.694 34.3629C79.6381 34.3071 79.5984 34.4064 79.6056 34.5837ZM34.9163 34.6539C34.6944 34.7493 34.6658 34.8016 34.8322 34.8077C34.971 34.8129 35.1982 34.7436 35.337 34.6539C35.6446 34.4552 35.3789 34.4552 34.9163 34.6539ZM31.6035 34.7688C31.7249 34.8174 31.8701 34.8114 31.926 34.7555C31.9818 34.6997 31.8825 34.6599 31.7052 34.6672C31.5091 34.6753 31.4693 34.7151 31.6035 34.7688ZM32.6867 34.9447C33.0339 34.981 33.6018 34.981 33.9487 34.9447C34.2959 34.9085 34.0118 34.8787 33.3177 34.8787C32.6236 34.8787 32.3397 34.9085 32.6867 34.9447ZM79.9422 35.9299C79.9503 36.1259 79.9901 36.1658 80.0438 36.0317C80.0924 35.9102 80.0864 35.765 80.0305 35.7091C79.9747 35.6533 79.9349 35.7525 79.9422 35.9299ZM80.1105 36.603C80.1185 36.799 80.1584 36.8389 80.2121 36.7048C80.2607 36.5833 80.2547 36.4381 80.1988 36.3822C80.1429 36.3263 80.1032 36.4256 80.1105 36.603ZM56.5176 37.3042C56.3085 37.571 56.3144 37.5769 56.5812 37.3678C56.7431 37.2407 56.8757 37.1081 56.8757 37.0733C56.8757 36.9348 56.7376 37.0238 56.5176 37.3042ZM80.292 37.5145C80.292 37.7459 80.3302 37.8406 80.3768 37.7248C80.4236 37.6092 80.4236 37.4199 80.3768 37.3042C80.3302 37.1886 80.292 37.2831 80.292 37.5145ZM80.4665 38.44C80.4699 38.7176 80.5076 38.8109 80.5503 38.6471C80.5931 38.4834 80.5902 38.2562 80.5441 38.1423C80.498 38.0284 80.4632 38.1623 80.4665 38.44ZM43.5313 38.6815C43.3743 38.9473 43.2461 39.229 43.2464 39.3073C43.2467 39.3855 43.4022 39.195 43.592 38.8837C43.7817 38.5726 43.9099 38.2909 43.8769 38.2579C43.8439 38.2249 43.6885 38.4156 43.5313 38.6815ZM80.641 39.702C80.641 40.026 80.6757 40.1584 80.7179 39.9965C80.7603 39.8346 80.7603 39.5694 80.7179 39.4076C80.6757 39.2457 80.641 39.3781 80.641 39.702ZM0 39.9031C0 40.1744 0.851285 41.0482 1.1153 41.0482C1.55096 41.0482 1.53548 40.6679 1.08064 40.1932C0.604599 39.6961 0 39.5339 0 39.9031ZM3.56298 40.0914C3.10595 40.5779 3.08559 41.0482 3.52141 41.0482C3.8689 41.0482 4.54333 40.3113 4.54333 39.9317C4.54333 39.5694 3.96498 39.6637 3.56298 40.0914ZM53.2419 40.5855L52.9213 40.9641L53.2999 40.6435C53.6557 40.3423 53.7551 40.2068 53.6205 40.2068C53.5885 40.2068 53.4182 40.3771 53.2419 40.5855ZM80.8207 41.3847C80.8207 41.8938 80.8522 42.1019 80.8907 41.8475C80.9293 41.5931 80.9293 41.1764 80.8907 40.922C80.8522 40.6676 80.8207 40.8757 80.8207 41.3847ZM0.435318 43.2204C-0.0267548 43.7027 -0.0748805 44.2454 0.344283 44.2454C0.637076 44.2454 1.54978 43.2576 1.47221 43.0245C1.34297 42.6367 0.917752 42.7169 0.435318 43.2204ZM3.19716 43.036C3.19716 43.4223 4.11861 44.3197 4.36142 44.1696C4.66364 43.9828 4.56857 43.6594 4.07133 43.1831C3.52327 42.6579 3.19716 42.603 3.19716 43.036ZM80.9999 44.3295C81.0004 45.255 81.0287 45.6121 81.0627 45.1231C81.0969 44.6342 81.0965 43.877 81.062 43.4403C81.0274 43.0038 80.9996 43.404 80.9999 44.3295ZM48.5463 44.0078L48.0415 44.4414L48.5884 44.0796C48.8892 43.8805 49.1352 43.6848 49.1352 43.645C49.1352 43.5189 49.0641 43.5628 48.5463 44.0078ZM40.4901 44.8409C40.3277 45.2639 40.3755 45.3731 40.5739 45.032C40.6722 44.8631 40.7171 44.6894 40.6737 44.6462C40.6305 44.6028 40.5477 44.6904 40.4901 44.8409ZM46.9262 45.2129C46.717 45.4798 46.7229 45.4857 46.9898 45.2765C47.2701 45.0566 47.3591 44.9184 47.2206 44.9184C47.1858 44.9184 47.0532 45.051 46.9262 45.2129ZM39.9764 46.3607C39.9146 46.6074 39.8965 46.8416 39.936 46.8813C39.9757 46.9209 40.0588 46.7516 40.1208 46.5051C40.1825 46.2584 40.2007 46.0241 40.1612 45.9844C40.1214 45.9449 40.0383 46.1142 39.9764 46.3607ZM80.8224 47.1901C80.8233 47.7454 80.8547 47.9522 80.8922 47.6498C80.9296 47.3474 80.9289 46.8931 80.8906 46.6402C80.852 46.3873 80.8214 46.6348 80.8224 47.1901ZM39.7386 47.4425C39.7386 47.6739 39.7768 47.7686 39.8234 47.6529C39.8702 47.5372 39.8702 47.3479 39.8234 47.2322C39.7768 47.1166 39.7386 47.2111 39.7386 47.4425ZM39.5828 48.7887C39.5828 49.1126 39.6175 49.245 39.6597 49.0832C39.7021 48.9213 39.7021 48.6561 39.6597 48.4942C39.6175 48.3323 39.5828 48.4648 39.5828 48.7887ZM80.641 48.7887C80.641 49.1126 80.6757 49.245 80.7179 49.0832C80.7603 48.9213 80.7603 48.6561 80.7179 48.4942C80.6757 48.3323 80.641 48.4648 80.641 48.7887ZM80.4603 49.7983C80.4603 50.0297 80.4985 50.1244 80.5451 50.0086C80.5919 49.893 80.5919 49.7037 80.5451 49.588C80.4985 49.4724 80.4603 49.5669 80.4603 49.7983ZM39.4378 51.9858C39.4378 52.9576 39.4655 53.3551 39.4995 52.8693C39.5335 52.3835 39.5335 51.5882 39.4995 51.1024C39.4655 50.6166 39.4378 51.0141 39.4378 51.9858ZM6.40761 52.2522C6.41568 52.4482 6.45556 52.4881 6.50924 52.354C6.55787 52.2325 6.55181 52.0873 6.49595 52.0314C6.44008 51.9756 6.40037 52.0749 6.40761 52.2522ZM43.0908 52.4205C43.0988 52.6165 43.1387 52.6564 43.1924 52.5223C43.241 52.4008 43.235 52.2556 43.1791 52.1997C43.1232 52.1438 43.0835 52.2431 43.0908 52.4205ZM6.66775 53.1637C6.72648 53.4877 6.84074 53.9041 6.92184 54.0892C7.02281 54.3203 7.03559 54.2412 6.96223 53.8368C6.9035 53.5129 6.78924 53.0964 6.70814 52.9113C6.60717 52.6803 6.59439 52.7594 6.66775 53.1637ZM39.5438 53.9004C39.5438 53.9353 39.6764 54.0679 39.8382 54.1949C40.1051 54.4041 40.111 54.3982 39.9018 54.1313C39.6819 53.851 39.5438 53.7619 39.5438 53.9004ZM40.6796 54.4633C40.9805 54.5007 41.4725 54.5007 41.7734 54.4633C42.0742 54.4261 41.8281 54.3955 41.2265 54.3955C40.6249 54.3955 40.3787 54.4261 40.6796 54.4633ZM42.7409 55.7894C41.0688 56.237 40.0501 56.9044 38.7701 58.3909C38.5759 58.6164 38.273 58.8971 38.097 59.0145C37.8114 59.2053 37.8176 59.2092 38.1555 59.0507C38.6164 58.8345 38.6159 58.8256 38.1882 59.7925C37.02 62.4333 37.6585 65.5754 39.7735 67.5952C41.8789 69.6057 44.0573 70.0701 47.0635 69.1493C48.9949 68.5577 50.0092 67.6288 51.1059 65.4475C51.5292 64.6055 51.5713 64.3553 51.5732 62.6711C51.575 61.0255 51.5267 60.7174 51.1382 59.8946C50.5432 58.6347 49.2808 57.1334 48.3654 56.597C46.6285 55.5791 44.6096 55.2892 42.7409 55.7894ZM46.9994 57.0816C48.269 57.6628 49.6714 59.0068 50.1625 60.113C50.7138 61.3545 50.7316 63.8259 50.1977 64.9819C49.6614 66.143 48.9483 67.0342 48.7746 66.7604C48.6755 66.6042 48.6348 66.6416 48.6329 66.8906C48.6299 67.3187 48.116 67.8064 47.116 68.3304C46.4607 68.6738 46.1208 68.7273 44.5919 68.728C42.5112 68.729 41.7816 68.454 40.321 67.1193C38.7453 65.6791 38.0154 63.2349 38.5257 61.1073C38.7788 60.0524 39.7733 58.4369 40.2657 58.2805C40.4694 58.2159 40.7287 58.0414 40.8418 57.8928C40.9549 57.7444 41.05 57.6761 41.0528 57.7411C41.0559 57.806 41.2484 57.683 41.4807 57.4676C42.5567 56.4704 45.2525 56.282 46.9994 57.0816ZM43.3753 58.3044C43.863 58.4358 44.496 58.6642 44.7821 58.8121C45.0681 58.96 45.2544 59.0039 45.1962 58.9097C45.0511 58.6751 43.3194 58.0411 42.8607 58.0547C42.6561 58.0608 42.8875 58.1732 43.3753 58.3044ZM46.9477 60.463C46.9477 60.4978 47.0803 60.6304 47.2422 60.7575C47.5091 60.9666 47.5149 60.9608 47.3058 60.6939C47.0859 60.4135 46.9477 60.3245 46.9477 60.463ZM9.59938 61.1566C9.59618 61.2492 9.7345 61.5384 9.90664 61.7994C10.1629 62.1883 10.2385 62.2246 10.3243 62.001C10.3823 61.8496 10.3586 61.7717 10.2706 61.826C10.1834 61.8799 9.99818 61.7133 9.85868 61.4562C9.71902 61.1989 9.6024 61.0641 9.59938 61.1566ZM47.7068 61.4725C47.866 61.7153 48.0278 61.9138 48.0667 61.9138C48.1885 61.9138 47.7966 61.2653 47.6024 61.1454C47.5008 61.0824 47.5478 61.2297 47.7068 61.4725ZM10.3595 62.6362C10.4227 62.8021 10.5168 62.8955 10.5686 62.8437C10.6204 62.7921 10.5688 62.6563 10.4537 62.542C10.2874 62.3771 10.2683 62.3964 10.3595 62.6362ZM10.538 63.6176C10.3977 64.3189 10.5336 64.4549 10.6852 63.7648C10.7492 63.4739 10.7663 63.201 10.7234 63.1581C10.6805 63.1151 10.5971 63.3219 10.538 63.6176ZM34.6772 63.3581C34.6853 63.5542 34.7252 63.594 34.7788 63.4599C34.8275 63.3384 34.8214 63.1932 34.7655 63.1373C34.7097 63.0815 34.67 63.1808 34.6772 63.3581ZM34.5284 64.1855C34.5318 64.4632 34.5695 64.5564 34.6122 64.3926C34.655 64.2289 34.6521 64.0018 34.606 63.8878C34.5599 63.7739 34.5251 63.9079 34.5284 64.1855ZM48.8525 65.2793C48.8525 65.8808 48.8832 66.127 48.9204 65.8262C48.9577 65.5253 48.9577 65.0333 48.9204 64.7324C48.8832 64.4315 48.8525 64.6777 48.8525 65.2793ZM10.2778 64.7043C10.2859 64.9003 10.3258 64.9402 10.3795 64.8061C10.4281 64.6846 10.4221 64.5394 10.3662 64.4835C10.3103 64.4277 10.2706 64.5269 10.2778 64.7043ZM74.7766 64.8165C74.7085 64.9323 74.5445 65.2162 74.4125 65.4475C74.1818 65.8514 74.1834 65.8548 74.4547 65.5317C74.7964 65.1245 75.0911 64.6062 74.9807 64.6062C74.9366 64.6062 74.8447 64.7009 74.7766 64.8165ZM8.29578 65.145C7.75866 65.8257 7.93517 66.7937 8.59648 66.7937C9.30221 66.7937 9.51305 65.0758 8.81944 64.9767C8.62626 64.9491 8.39068 65.0248 8.29578 65.145ZM9.9413 65.8822C9.94938 66.0782 9.98926 66.1181 10.0429 65.984C10.0916 65.8625 10.0855 65.7173 10.0296 65.6614C9.97378 65.6055 9.93407 65.7048 9.9413 65.8822ZM34.5347 66.2889C34.5347 66.6128 34.5693 66.7452 34.6116 66.5834C34.654 66.4215 34.654 66.1563 34.6116 65.9944C34.5693 65.8326 34.5347 65.965 34.5347 66.2889ZM9.77926 66.4854C9.76849 66.6399 9.71616 66.9049 9.66282 67.0744C9.57111 67.3665 9.57615 67.367 9.75839 67.083C9.86407 66.9181 9.9164 66.653 9.87467 66.494C9.80635 66.2334 9.79693 66.2325 9.77926 66.4854ZM9.43649 67.7332C9.44457 67.9292 9.48445 67.9691 9.53812 67.835C9.58675 67.7135 9.5807 67.5683 9.52483 67.5124C9.46896 67.4565 9.42925 67.5558 9.43649 67.7332ZM7.39637 68.2439C7.16819 68.8441 7.24677 69.3217 7.61108 69.5502C8.03647 69.8167 8.45193 69.3287 8.47717 68.533C8.49585 67.9479 8.45429 67.8824 8.03496 67.8343C7.66156 67.7912 7.53839 67.8703 7.39637 68.2439ZM72.1669 68.4344C71.9577 68.7012 71.9636 68.7071 72.2305 68.498C72.5108 68.278 72.5998 68.1399 72.4613 68.1399C72.4265 68.1399 72.2939 68.2725 72.1669 68.4344ZM47.2627 69.6123C47.0536 69.8791 47.0594 69.885 47.3263 69.6759C47.6067 69.4559 47.6957 69.3178 47.5572 69.3178C47.5224 69.3178 47.3898 69.4504 47.2627 69.6123ZM6.93816 70.6364C6.67431 70.8038 6.38085 71.7791 6.50049 72.0909C6.71201 72.6422 7.49262 72.5493 7.66325 71.9526C7.72046 71.7528 7.80156 71.4649 7.84363 71.3126C7.8857 71.1605 7.79853 70.9143 7.65012 70.7658C7.34589 70.4615 7.2429 70.4428 6.93816 70.6364ZM45.3503 71.3352C45.2914 71.4304 45.3589 71.4587 45.5087 71.4013C45.8001 71.2894 45.8534 71.1688 45.6115 71.1688C45.5243 71.1688 45.4068 71.2437 45.3503 71.3352ZM39.039 72.0101C39.1778 72.0998 39.4049 72.1691 39.5438 72.1639C39.7102 72.1579 39.6816 72.1055 39.4596 72.0101C38.9971 71.8114 38.7314 71.8114 39.039 72.0101ZM43.4981 72.099C42.9715 72.2726 42.9166 72.3223 43.2457 72.3278C43.4771 72.3315 43.8557 72.2265 44.0871 72.0943C44.599 71.8016 44.3955 71.8032 43.4981 72.099ZM70.0938 71.9958C69.9479 72.2319 70.83 73.188 71.1938 73.188C71.6126 73.188 71.6022 72.8389 71.1665 72.2853C70.821 71.8459 70.2772 71.6992 70.0938 71.9958ZM73.6318 72.333C73.177 72.8077 73.1615 73.188 73.5972 73.188C73.9135 73.188 74.7662 72.2331 74.6368 72.0238C74.4481 71.7187 74.1252 71.818 73.6318 72.333ZM8.25859 72.4448C8.26667 72.6408 8.30655 72.6807 8.36023 72.5466C8.40886 72.4251 8.4028 72.2799 8.34693 72.224C8.29107 72.1681 8.25135 72.2674 8.25859 72.4448ZM40.0171 72.2933C40.1384 72.342 40.2837 72.3359 40.3395 72.28C40.3954 72.2242 40.2961 72.1845 40.1188 72.1917C39.9227 72.1998 39.8828 72.2396 40.0171 72.2933ZM41.0124 72.4682C41.3111 72.5053 41.8412 72.5059 42.1903 72.4695C42.5393 72.433 42.295 72.4027 41.6472 72.4019C40.9993 72.4012 40.7136 72.431 41.0124 72.4682ZM5.89606 73.6768C5.78483 73.9457 5.7187 74.3432 5.7495 74.5603C5.79392 74.8741 5.90868 74.9549 6.31018 74.9549C6.75088 74.9549 6.83417 74.8771 6.96627 74.3424C7.16062 73.5562 7.01321 73.188 6.50419 73.188C6.2151 73.188 6.04044 73.3285 5.89606 73.6768ZM66.6139 73.819C66.4048 74.0859 66.4107 74.0918 66.6775 73.8827C66.9579 73.6627 67.0469 73.5246 66.9084 73.5246C66.8736 73.5246 66.741 73.6572 66.6139 73.819ZM65.4576 74.723C64.8711 75.2371 64.871 75.2377 65.4104 74.879C65.7085 74.6808 65.9969 74.4464 66.0514 74.358C66.2136 74.0955 66.079 74.1781 65.4576 74.723ZM7.58551 74.8006C7.59358 74.9966 7.63346 75.0365 7.68714 74.9024C7.73577 74.7809 7.72971 74.6357 7.67385 74.5798C7.61798 74.5239 7.57827 74.6232 7.58551 74.8006ZM70.5314 75.4331C70.0419 75.9381 70.014 76.0182 70.256 76.2191C70.4875 76.4113 70.5991 76.3695 71.0443 75.9243C71.3715 75.5972 71.5249 75.3069 71.4603 75.1381C71.3112 74.7496 71.1418 74.8034 70.5314 75.4331ZM73.2531 75.1381C73.1884 75.3067 73.3406 75.5958 73.664 75.9192C73.9874 76.2427 74.2765 76.3948 74.4451 76.3302C74.8358 76.1801 74.7747 75.9169 74.2206 75.3626C73.6663 74.8085 73.4032 74.7474 73.2531 75.1381ZM7.33175 75.6399C7.27 75.8866 7.25182 76.1208 7.29137 76.1605C7.33108 76.2001 7.4142 76.0308 7.47613 75.7843C7.53788 75.5376 7.55606 75.3034 7.51651 75.2637C7.4768 75.2241 7.39367 75.3934 7.33175 75.6399ZM5.4106 76.1833C4.94869 76.5874 4.81643 77.3073 5.14422 77.6351C5.57634 78.0672 5.93476 77.9087 6.21981 77.1589C6.55871 76.2672 6.03573 75.6365 5.4106 76.1833ZM7.08069 76.6516C7.08877 76.8476 7.12865 76.8875 7.18233 76.7534C7.23096 76.6319 7.2249 76.4866 7.16903 76.4308C7.11317 76.3749 7.07346 76.4742 7.08069 76.6516ZM62.1663 76.8151C61.8527 77.0665 61.8547 77.0695 62.2183 76.8934C62.4267 76.7924 62.5969 76.6746 62.5969 76.6317C62.5969 76.503 62.5096 76.5402 62.1663 76.8151ZM24.2311 76.7878C24.2311 76.8242 24.3485 76.8991 24.4922 76.9543C24.642 77.0117 24.7095 76.9834 24.6506 76.8881C24.5518 76.7281 24.2311 76.6516 24.2311 76.7878ZM23.3056 77.0583C23.0934 77.1495 23.0624 77.2028 23.2214 77.2028C23.3603 77.2028 23.6253 77.1379 23.8104 77.0583C24.0226 76.9671 24.0535 76.9137 23.8945 76.9137C23.7557 76.9137 23.4907 76.9787 23.3056 77.0583ZM6.82694 77.4909C6.76518 77.7376 6.74701 77.9718 6.78655 78.0115C6.82626 78.0511 6.90939 77.8818 6.97131 77.6353C7.03307 77.3886 7.05124 77.1544 7.0117 77.1146C6.97199 77.0751 6.88886 77.2444 6.82694 77.4909ZM25.0275 77.2474C25.1418 77.3625 25.2776 77.4142 25.3292 77.3623C25.381 77.3105 25.2877 77.2164 25.1217 77.1532C24.8819 77.062 24.8626 77.0812 25.0275 77.2474ZM22.1277 77.3948C21.9155 77.486 21.8845 77.5394 22.0435 77.5394C22.1824 77.5394 22.4474 77.4744 22.6325 77.3948C22.8447 77.3036 22.8756 77.2503 22.7166 77.2503C22.5778 77.2503 22.3128 77.3152 22.1277 77.3948ZM60.8722 77.4911C60.2432 77.8323 60.2814 77.9745 60.9142 77.6472C61.1919 77.5037 61.419 77.3502 61.419 77.3063C61.419 77.1981 61.401 77.2042 60.8722 77.4911ZM20.8656 77.7314C20.5274 77.8397 20.5109 77.867 20.7815 77.871C20.9666 77.8737 21.2695 77.8109 21.4546 77.7314C21.8834 77.5471 21.441 77.5471 20.8656 77.7314ZM18.8149 78.3511C18.9362 78.3997 19.0815 78.3937 19.1373 78.3378C19.1932 78.2819 19.0939 78.2422 18.9166 78.2495C18.7205 78.2575 18.6806 78.2974 18.8149 78.3511ZM59.1486 78.4026C59.0897 78.4978 59.1571 78.5261 59.3069 78.4687C59.5984 78.3568 59.6517 78.2362 59.4097 78.2362C59.3226 78.2362 59.2051 78.3111 59.1486 78.4026ZM4.5615 78.9715C4.45616 79.0984 4.35217 79.496 4.33046 79.8549C4.29546 80.4326 4.33837 80.5144 4.70218 80.5659C5.21574 80.6384 5.55295 80.2095 5.55295 79.4841C5.55295 78.7915 4.96367 78.4869 4.5615 78.9715ZM6.1552 80.0163C5.99046 80.7153 5.88748 81.3191 5.92635 81.3581C5.96539 81.397 6.13214 80.857 6.29688 80.158C6.46162 79.459 6.5646 78.8552 6.52573 78.8162C6.48669 78.7773 6.31994 79.3173 6.1552 80.0163ZM13.5985 79.6973C13.7198 79.7459 13.8651 79.7398 13.9209 79.684C13.9768 79.6281 13.8775 79.5884 13.7001 79.5956C13.5041 79.6037 13.4642 79.6436 13.5985 79.6973ZM30.8778 79.8157C31.1554 79.9421 31.5719 80.092 31.8033 80.1487C32.1412 80.2317 32.1245 80.2066 31.7191 80.022C31.4415 79.8957 31.025 79.7457 30.7937 79.689C30.4558 79.6061 30.4724 79.6311 30.8778 79.8157ZM12.4206 80.0338C12.5419 80.0824 12.6872 80.0764 12.743 80.0205C12.7989 79.9647 12.6996 79.9249 12.5222 79.9322C12.3262 79.9403 12.2863 79.9801 12.4206 80.0338ZM53.8468 80.3396C53.5229 80.4642 53.3715 80.5664 53.5103 80.5664C53.6491 80.5664 54.0277 80.4642 54.3516 80.3396C54.6756 80.2149 54.827 80.1127 54.6882 80.1127C54.5494 80.1127 54.1708 80.2149 53.8468 80.3396ZM32.5605 80.4237C32.7456 80.5033 33.0106 80.5682 33.1495 80.5682C33.3085 80.5682 33.2775 80.5149 33.0653 80.4237C32.8802 80.3441 32.6152 80.2791 32.4764 80.2791C32.3174 80.2791 32.3483 80.3325 32.5605 80.4237ZM34.075 80.8491C34.4451 80.9711 34.8995 81.07 35.0846 81.0688C35.2697 81.0677 35.0425 80.9613 34.5798 80.8326C33.5271 80.5396 33.1713 80.5512 34.075 80.8491ZM52.8057 80.7069C52.9271 80.7555 53.0723 80.7495 53.1281 80.6936C53.184 80.6377 53.0847 80.598 52.9074 80.6053C52.7113 80.6133 52.6715 80.6532 52.8057 80.7069ZM9.39173 80.8752C9.51305 80.9238 9.65827 80.9177 9.71414 80.8619C9.77 80.806 9.67072 80.7663 9.49336 80.7735C9.29733 80.7816 9.25745 80.8215 9.39173 80.8752ZM52.1327 80.8752C52.254 80.9238 52.3992 80.9177 52.4551 80.8619C52.5109 80.806 52.4116 80.7663 52.2343 80.7735C52.0382 80.7816 51.9984 80.8215 52.1327 80.8752ZM51.4596 81.0434C51.5809 81.0921 51.7261 81.086 51.782 81.0301C51.8378 80.9743 51.7386 80.9346 51.5612 80.9418C51.3652 80.9499 51.3253 80.9898 51.4596 81.0434ZM8.21383 81.2117C8.33515 81.2603 8.48037 81.2543 8.53624 81.1984C8.5921 81.1426 8.49282 81.1028 8.31547 81.1101C8.11943 81.1181 8.07955 81.158 8.21383 81.2117ZM35.6315 81.2082C35.7472 81.255 35.9365 81.255 36.0521 81.2082C36.1679 81.1616 36.0732 81.1234 35.8418 81.1234C35.6104 81.1234 35.5159 81.1616 35.6315 81.2082ZM50.7865 81.2117C50.9078 81.2603 51.053 81.2543 51.1089 81.1984C51.1648 81.1426 51.0655 81.1028 50.8881 81.1101C50.6921 81.1181 50.6522 81.158 50.7865 81.2117ZM36.4728 81.3764C36.5886 81.4232 36.7779 81.4232 36.8935 81.3764C37.0093 81.3298 36.9145 81.2916 36.6832 81.2916C36.4518 81.2916 36.3572 81.3298 36.4728 81.3764ZM14.6396 83.15C14.6396 83.481 15.6706 84.4434 15.922 84.3469C16.269 84.2138 16.205 83.9449 15.7019 83.4198C15.2403 82.938 14.6396 82.7856 14.6396 83.15ZM18.2499 83.3609C17.7622 83.8484 17.7117 84.2939 18.144 84.2939C18.5216 84.2939 19.1829 83.6176 19.1829 83.2315C19.1829 82.8204 18.7271 82.8835 18.2499 83.3609ZM15.1278 86.4993C14.5723 87.0938 14.5262 87.2898 14.907 87.4361C15.2814 87.5796 16.2039 86.6386 16.0588 86.2609C15.9015 85.851 15.6805 85.9075 15.1278 86.4993ZM17.8938 86.2392C17.7817 86.5313 18.6007 87.4911 18.962 87.4911C19.3428 87.4911 19.2033 86.9005 18.7109 86.4288C18.1666 85.9072 18.033 85.8762 17.8938 86.2392Z" fill="url(#paint0_linear_63_89)"/>
<defs>
<linearGradient id="paint0_linear_63_89" x1="42.0283" y1="0" x2="42.0283" y2="87.4911" gradientUnits="userSpaceOnUse">
<stop stop-color="#BD3C2A"/>
<stop offset="1"/>
</linearGradient>
</defs>
</svg>
