<svg width="52" height="52" viewBox="0 0 52 52" fill="none" xmlns="http://www.w3.org/2000/svg">
<g clip-path="url(#clip0_63_569)">
<path d="M50.7817 30.0048C53.0008 16.3315 43.7153 3.44809 30.0419 1.229C16.3686 -0.990101 3.48518 8.29541 1.26608 21.9688C-0.953019 35.6421 8.33249 48.5255 22.0058 50.7446C35.6792 52.9637 48.5626 43.6782 50.7817 30.0048Z" stroke="#378B6C" stroke-width="1.81594" stroke-miterlimit="10" stroke-linecap="round" stroke-linejoin="round"/>
<path d="M39.4787 30.207C37.6841 35.9753 32.3431 40.1199 25.9767 40.1199C19.6102 40.1199 14.2692 35.9326 12.4746 30.207" stroke="#378B6C" stroke-width="1.81594" stroke-miterlimit="10" stroke-linecap="round" stroke-linejoin="round"/>
<path d="M13.5871 29.5664L11.0234 30.8055" stroke="#378B6C" stroke-width="1.81594" stroke-miterlimit="10" stroke-linecap="round" stroke-linejoin="round"/>
<path d="M38.4121 29.5664L40.9758 30.8055" stroke="#378B6C" stroke-width="1.81594" stroke-miterlimit="10" stroke-linecap="round" stroke-linejoin="round"/>
<path d="M11.9629 19.9531C12.5184 20.8931 13.5011 21.4913 14.6548 21.4913C15.723 21.4913 16.663 20.9359 17.2184 20.124" stroke="#378B6C" stroke-width="2.1364" stroke-miterlimit="10" stroke-linecap="round" stroke-linejoin="round"/>
<path d="M40.0348 19.9531C39.4794 20.8931 38.4966 21.4913 37.343 21.4913C36.2748 21.4913 35.3348 20.9359 34.7793 20.124" stroke="#378B6C" stroke-width="2.1364" stroke-miterlimit="10" stroke-linecap="round" stroke-linejoin="round"/>
</g>
<defs>
<clipPath id="clip0_63_569">
<rect width="52" height="52" fill="white"/>
</clipPath>
</defs>
</svg>
