<svg width="29" height="28" viewBox="0 0 29 28" fill="none" xmlns="http://www.w3.org/2000/svg">
<path d="M26.5375 6.99935C25.6392 7.40768 24.6709 7.67602 23.6675 7.80435C24.6942 7.18602 25.4875 6.20602 25.8609 5.02768C24.8925 5.61102 23.8192 6.01935 22.6875 6.25268C21.7659 5.24935 20.4709 4.66602 19.0009 4.66602C16.2592 4.66602 14.0192 6.90602 14.0192 9.67102C14.0192 10.0677 14.0659 10.4527 14.1475 10.8143C9.99419 10.6043 6.29586 8.60935 3.83419 5.58768C3.40253 6.32268 3.15753 7.18602 3.15753 8.09602C3.15753 9.83435 4.03253 11.3743 5.38586 12.2493C4.55753 12.2493 3.78753 12.016 3.11086 11.666C3.11086 11.666 3.11086 11.666 3.11086 11.701C3.11086 14.1277 4.83753 16.1577 7.12419 16.6127C6.70419 16.7293 6.26086 16.7877 5.80586 16.7877C5.49086 16.7877 5.17586 16.7527 4.87253 16.6944C5.50253 18.666 7.33419 20.136 9.53919 20.171C7.83586 21.5244 5.67753 22.3177 3.32086 22.3177C2.92419 22.3177 2.52753 22.2943 2.13086 22.2477C4.34753 23.671 6.98419 24.4994 9.80753 24.4994C19.0009 24.4994 24.0525 16.8693 24.0525 10.2543C24.0525 10.0327 24.0525 9.82268 24.0409 9.60102C25.0209 8.90102 25.8609 8.01435 26.5375 6.99935Z" fill="#1F483B"/>
</svg>
