<svg width="98" height="96" viewBox="0 0 98 96" fill="none" xmlns="http://www.w3.org/2000/svg">
<circle cx="46" cy="46" r="46" fill="#1F483B"/>
<g clip-path="url(#clip0_101_800)">
<g clip-path="url(#clip1_101_800)">
<path d="M27.9746 64.8876L30.5919 55.331C28.9772 52.5341 28.1281 49.3609 28.1291 46.1111C28.1333 35.9427 36.409 27.6699 46.5772 27.6699C51.5124 27.6722 56.1443 29.5928 59.6269 33.0786C63.1102 36.5644 65.0274 41.1979 65.0254 46.1255C65.0211 56.2942 56.7449 64.5677 46.578 64.5677C46.5772 64.5677 46.5785 64.5677 46.578 64.5677H46.5698C43.4824 64.5667 40.4487 63.7917 37.7543 62.3232L27.9746 64.8876V64.8876Z" fill="white"/>
<path fill-rule="evenodd" clip-rule="evenodd" d="M42.772 39.5703C42.4925 38.9481 42.1982 38.9357 41.9323 38.9248C41.7148 38.9154 41.4658 38.916 41.2172 38.916C40.9684 38.916 40.5641 39.0096 40.2222 39.3835C39.8801 39.7574 38.916 40.6611 38.916 42.4993C38.916 44.3376 40.2533 46.1139 40.4397 46.3634C40.6263 46.6125 43.0212 50.5052 46.8141 52.0027C49.9663 53.2473 50.6077 52.9997 51.2919 52.9374C51.9761 52.8752 53.4996 52.0339 53.8106 51.1614C54.1216 50.2891 54.1216 49.5414 54.0283 49.3851C53.935 49.2294 53.6862 49.136 53.313 48.9492C52.9398 48.7624 51.1053 47.8584 50.7632 47.7338C50.4211 47.6093 50.1723 47.547 49.9235 47.921C49.6747 48.2947 48.96 49.136 48.7423 49.3851C48.5246 49.6348 48.3069 49.6659 47.9337 49.4791C47.5605 49.2917 46.3586 48.8976 44.9329 47.6248C43.8236 46.6346 43.0747 45.4116 42.857 45.0376C42.6393 44.6639 42.8336 44.4615 43.0208 44.2753C43.1884 44.1079 43.394 43.8391 43.5806 43.621C43.7668 43.4028 43.829 43.2471 43.9534 42.998C44.0778 42.7485 44.0156 42.5304 43.9223 42.3435C43.829 42.1567 43.1038 40.3091 42.772 39.5703V39.5703Z" fill="#1F483B"/>
<path d="M60.0968 32.6064C56.4885 28.9957 51.6907 27.0062 46.579 27.0039C36.0454 27.0039 27.4733 35.5734 27.469 46.1064C27.4678 49.4734 28.3475 52.76 30.0196 55.6571L27.3086 65.5562L37.439 62.8998C40.2302 64.422 43.3728 65.2241 46.5708 65.2254H46.5789H46.579C57.1109 65.2254 65.6843 56.6544 65.6888 46.1218C65.6905 41.0171 63.7045 36.2173 60.0968 32.6064V32.6064ZM46.579 61.999H46.5728C43.7222 61.9975 40.9268 61.2322 38.4886 59.7854L37.9083 59.4414L31.8967 61.0175L33.5017 55.1584L33.1237 54.5578C31.5336 52.0295 30.6942 49.1078 30.6954 46.1077C30.6989 37.353 37.8238 30.2306 46.585 30.2306C50.8277 30.2323 54.8152 31.8861 57.8143 34.8872C60.8131 37.8882 62.4634 41.8777 62.4621 46.1207C62.4584 54.8756 55.3332 61.999 46.579 61.999Z" fill="#1F483B"/>
</g>
</g>
<circle cx="52" cy="50" r="45.5" stroke="#4BC598"/>
<defs>
<clipPath id="clip0_101_800">
<rect width="36" height="36" fill="white" transform="translate(28 28)"/>
</clipPath>
<clipPath id="clip1_101_800">
<rect width="39" height="39" fill="white" transform="translate(27 27)"/>
</clipPath>
</defs>
</svg>
