<svg width="28" height="28" viewBox="0 0 28 28" fill="none" xmlns="http://www.w3.org/2000/svg">
<path d="M11.6673 17.5007L17.7223 14.0007L11.6673 10.5007V17.5007ZM25.154 8.36565C25.3057 8.91398 25.4107 9.64898 25.4807 10.5823C25.5623 11.5157 25.5973 12.3207 25.5973 13.0207L25.6673 14.0007C25.6673 16.5557 25.4807 18.434 25.154 19.6357C24.8623 20.6857 24.1857 21.3623 23.1357 21.654C22.5873 21.8057 21.584 21.9107 20.044 21.9807C18.5273 22.0623 17.139 22.0973 15.8557 22.0973L14.0007 22.1673C9.11232 22.1673 6.06732 21.9807 4.86565 21.654C3.81565 21.3623 3.13898 20.6857 2.84732 19.6357C2.69565 19.0873 2.59065 18.3523 2.52065 17.419C2.43898 16.4857 2.40398 15.6807 2.40398 14.9807L2.33398 14.0007C2.33398 11.4457 2.52065 9.56732 2.84732 8.36565C3.13898 7.31565 3.81565 6.63898 4.86565 6.34732C5.41398 6.19565 6.41732 6.09065 7.95732 6.02065C9.47399 5.93898 10.8623 5.90398 12.1457 5.90398L14.0007 5.83398C18.889 5.83398 21.934 6.02065 23.1357 6.34732C24.1857 6.63898 24.8623 7.31565 25.154 8.36565Z" fill="#1F483B"/>
</svg>
